<?xml version="1.0" encoding="UTF-8"?>
<svg width="32px" height="32px" viewBox="0 0 32 32" version="1.1" xmlns="http://www.w3.org/2000/svg" xmlns:xlink="http://www.w3.org/1999/xlink">
    <title>YouTube</title>
    <g id="Page-1" stroke="none" stroke-width="1" fill="none" fill-rule="evenodd">
        <g id="YouTube">
            <path d="M16,32 C24.8366,32 32,24.8366 32,16 C32,7.16344 24.8366,0 16,0 C7.16344,0 0,7.16344 0,16 C0,24.8366 7.16344,32 16,32 Z" id="Path" fill="#FFFFFF"></path>
            <path d="M24.6292,11.0341 C24.4217,10.2388 23.8138,9.61176 23.0428,9.39765 C21.6342,9 16,9 16,9 C16,9 10.3657,9 8.95716,9.38235 C8.20098,9.59647 7.57825,10.2388 7.37067,11.0341 C7,12.4871 7,15.5 7,15.5 C7,15.5 7,18.5282 7.37067,19.9659 C7.57825,20.7612 8.18616,21.3882 8.95716,21.6024 C10.3805,22 16,22 16,22 C16,22 21.6342,22 23.0428,21.6176 C23.8138,21.4035 24.4217,20.7765 24.6292,19.9812 C24.9999753,18.5282 24.9999753,15.5153 24.9999753,15.5153 C24.9999753,15.5153 25.0147,12.4871 24.6292,11.0341 Z" id="Path" fill="#FF0000" fill-rule="nonzero"></path>
            <polygon id="Path" fill="#FFFFFF" fill-rule="nonzero" points="14 18 19 15.5 14 13"></polygon>
        </g>
    </g>
</svg>