<svg width="4320" height="459" viewBox="0 0 4320 459" fill="none" xmlns="http://www.w3.org/2000/svg">
<g clip-path="url(#clip0_535_12497)">
<path d="M257.941 10.8667C147.18 26.0859 0 135.069 0 135.069V487.867H4377V197.17C4377 197.17 4146.77 89.7291 3989.09 84.2102C3809.75 77.9334 3723.13 195.842 3543.69 197.17C3307.14 198.92 3194.57 -54.8334 2967.32 10.8667C2829.74 50.6429 2808.39 187.783 2670.39 226.079C2493.05 275.292 2375.76 210.748 2208 135.069C2122.08 96.3091 2093.8 27.6403 2001.04 10.8667C1859.81 -14.6743 1798.14 107.872 1661.12 150.594C1531.85 190.9 1458.01 231.183 1322.7 226.079C1194.58 221.246 1135.39 139.805 1007.27 135.069C883.914 130.508 820.688 201.984 697.341 197.17C511.099 189.901 442.589 -14.5049 257.941 10.8667Z" fill="url(#paint0_linear_535_12497)"/>
</g>
<defs>
<linearGradient id="paint0_linear_535_12497" x1="4080.14" y1="-199.733" x2="4078.24" y2="452.976" gradientUnits="userSpaceOnUse">
<stop stop-color="#4B20DD"/>
<stop offset="0.484375" stop-color="#DB5356"/>
<stop offset="1" stop-color="#FF5F8F" stop-opacity="0"/>
</linearGradient>
<clipPath id="clip0_535_12497">
<rect width="4320" height="459" fill="white"/>
</clipPath>
</defs>
</svg>
