<svg width="4320" height="518" viewBox="0 0 4320 518" fill="none" xmlns="http://www.w3.org/2000/svg">
<g clip-path="url(#clip0_535_12501)">
<path d="M234.027 70.4118C141.363 77.3543 0 124.019 0 124.019V518H4322V164.709C4322 164.709 4106.17 39.5103 3958.46 24.555C3757.53 4.2111 3655.45 165.407 3453.9 164.709C3254.83 164.019 3139.11 -75.841 2955.84 24.555C2904.12 52.8892 2887.37 100.096 2834.33 124.019C2726.67 172.577 2658.78 56.0045 2545.29 70.4118C2449.46 82.5784 2405.99 159.685 2309.77 164.709C2176.61 171.661 2118.31 47.4762 1986.23 24.555C1803.1 -7.22466 1700.36 73.4535 1517.18 104.643C1379.11 128.149 1302.77 172.224 1163.63 164.709C994.169 155.556 911.783 1.81153 743.086 24.555C656.91 36.1731 616.036 90.7649 530.061 104.643C414.886 123.234 349.903 61.7302 234.027 70.4118Z" fill="url(#paint0_linear_535_12501)"/>
</g>
<defs>
<linearGradient id="paint0_linear_535_12501" x1="2324.71" y1="-67.5982" x2="2320.25" y2="489.987" gradientUnits="userSpaceOnUse">
<stop stop-color="#000AFF" stop-opacity="0.25"/>
<stop offset="1" stop-color="white"/>
</linearGradient>
<clipPath id="clip0_535_12501">
<rect width="4320" height="518" fill="white"/>
</clipPath>
</defs>
</svg>
