<svg width="4320" height="346" viewBox="0 0 4320 346" fill="none" xmlns="http://www.w3.org/2000/svg">
<g clip-path="url(#clip0_536_12542)">
<path d="M236.5 -7.03558e-05C143.057 -1.47025 1 42.4999 1 42.4999V390.5H4318V180.5C4318 180.5 3986.15 136.574 3772.5 138.5C3581.23 140.224 3475.06 197.041 3284.5 180.5C3148.67 168.71 3078.29 91.1416 2943 108C2857.09 118.705 2819.06 167.309 2733.5 180.5C2602.81 200.647 2527.72 161.507 2397.5 138.5C2239.68 110.616 2158.14 56.6049 1998.5 42.4999C1778.78 23.0874 1658.03 112.413 1437.5 108C1341.34 106.076 1287.41 100.618 1192 88.4999C1059 71.6077 988.625 33.9058 855 22.9999C698.151 10.1986 608.942 59.5722 452.5 42.4999C367.037 33.1734 322.46 1.35238 236.5 -7.03558e-05Z" fill="url(#paint0_linear_536_12542)"/>
</g>
<defs>
<linearGradient id="paint0_linear_536_12542" x1="2159.5" y1="-37.946" x2="2159.5" y2="211.762" gradientUnits="userSpaceOnUse">
<stop stop-color="#D0D7FA" stop-opacity="0.8"/>
<stop offset="1" stop-color="#F2F6FF"/>
</linearGradient>
<clipPath id="clip0_536_12542">
<rect width="4320" height="346" fill="white"/>
</clipPath>
</defs>
</svg>
