<svg width="4320" height="306" viewBox="0 0 4320 306" fill="none" xmlns="http://www.w3.org/2000/svg">
<g clip-path="url(#clip0_536_12547)">
<path d="M174.054 93.3465C98.8605 110.777 -3 180.707 -3 180.707V310H4279V93.3465C4279 93.3465 4058.87 143.637 3916.34 137.276C3812.07 132.623 3756.73 84.1586 3652.77 93.3465C3550.23 102.409 3507.2 183.341 3404.29 180.707C3288.6 177.745 3251.91 53.7818 3136.19 55.4072C3023.84 56.9853 2989.29 168.057 2877.65 180.707C2751.36 195.017 2688.81 118.711 2564.29 93.3465C2462.41 72.5925 2393.79 9.34181 2300.72 55.4072C2241.23 84.8502 2247.63 154.699 2186.54 180.707C2088.52 222.434 2031.7 118.079 1928 93.3465C1829.89 69.9493 1773.38 55.2025 1672.48 55.4072C1572.94 55.6091 1519.96 96.6666 1420.48 93.3465C1339 90.6273 1294.61 73.9419 1215.25 55.4072C1132.89 36.1692 1091.63 -3.62662 1007.01 -3.99781C921.078 -4.3748 880.411 43.9357 795.254 55.4072C713.502 66.4199 666.185 48.2966 583.996 55.4072C499.316 62.7333 454.424 86.3053 369.72 93.3465C293.574 99.6762 248.464 76.098 174.054 93.3465Z" fill="url(#paint0_linear_536_12547)" stroke="black"/>
</g>
<defs>
<linearGradient id="paint0_linear_536_12547" x1="2314.87" y1="-4.00752" x2="2315.84" y2="282.826" gradientUnits="userSpaceOnUse">
<stop stop-color="#C8D0F8"/>
<stop offset="1" stop-color="white"/>
</linearGradient>
<clipPath id="clip0_536_12547">
<rect width="4320" height="306" fill="white"/>
</clipPath>
</defs>
</svg>
