<svg width="200" height="150" viewBox="0 0 200 150" fill="none" xmlns="http://www.w3.org/2000/svg">
<path d="M184.278 55.8068H167.754V60.1173H184.278V55.8068Z" fill="#5C76FF"/>
<path d="M192.54 59.936H176.016V64.2465H192.54V59.936Z" fill="#5C76FF"/>
<path fill-rule="evenodd" clip-rule="evenodd" d="M167.81 56.7253C167.953 56.7253 168.068 56.8408 168.068 56.9833V59.8593H182.717C182.859 59.8593 182.975 59.9748 182.975 60.1173C182.975 60.2601 182.859 60.3756 182.717 60.3756H167.552V56.9833C167.552 56.8408 167.668 56.7253 167.81 56.7253Z" fill="#75E0E6"/>
<path fill-rule="evenodd" clip-rule="evenodd" d="M184.02 60.1172C184.02 59.9747 184.136 59.8592 184.278 59.8592H186.736C186.878 59.8592 186.994 59.9747 186.994 60.1172C186.994 60.2597 186.878 60.3752 186.736 60.3752H184.278C184.136 60.3752 184.02 60.2597 184.02 60.1172Z" fill="#75E0E6"/>
<path d="M109.147 126.987H123.654V123.203H109.147V126.987Z" fill="#5C76FF"/>
<path d="M62.1774 19.567H76.6839V15.7827H62.1774V19.567Z" fill="#5C76FF"/>
<path fill-rule="evenodd" clip-rule="evenodd" d="M173.196 33.4698C173.41 33.4698 173.583 33.643 173.583 33.8568V133.962C173.583 134.176 173.41 134.349 173.196 134.349C172.983 134.349 172.809 134.176 172.809 133.962V33.8568C172.809 33.643 172.983 33.4698 173.196 33.4698Z" fill="#5C76FF"/>
<path fill-rule="evenodd" clip-rule="evenodd" d="M139.969 10.1371C139.969 9.92328 140.142 9.74998 140.356 9.74998H167.115C170.687 9.74998 173.583 12.646 173.583 16.2184V30.167C173.583 30.3807 173.41 30.554 173.196 30.554C172.982 30.554 172.809 30.3807 172.809 30.167V16.2184C172.809 13.0735 170.259 10.5242 167.115 10.5242H140.356C140.142 10.5242 139.969 10.3509 139.969 10.1371Z" fill="#5C76FF"/>
<path fill-rule="evenodd" clip-rule="evenodd" d="M117.256 10.5242C114.111 10.5242 111.562 13.0735 111.562 16.2184C111.562 16.4322 111.389 16.6055 111.175 16.6055C110.961 16.6055 110.788 16.4322 110.788 16.2184C110.788 12.646 113.684 9.74998 117.256 9.74998H138.194C138.407 9.74998 138.581 9.92328 138.581 10.1371C138.581 10.3509 138.407 10.5242 138.194 10.5242H117.256Z" fill="#5C76FF"/>
<path d="M197.161 136.359H149.23C149.23 133.901 151.223 131.908 153.681 131.908H192.71C195.168 131.908 197.161 133.901 197.161 136.359Z" fill="#5C76FF"/>
<path d="M131.547 48.4992H91.4522C91.1672 48.4992 90.9362 48.2682 90.9362 47.9832V37.9052C90.9362 26.5482 100.143 17.3418 111.499 17.3418H111.5C122.856 17.3418 132.063 26.5482 132.063 37.9052V47.9832C132.063 48.2682 131.832 48.4992 131.547 48.4992Z" fill="#5C76FF"/>
<path d="M115.383 131.093H85.0553V92.3484H105.15C110.801 92.3484 115.383 96.9299 115.383 102.582V131.093Z" fill="#5C76FF"/>
<path d="M115.383 131.092H85.0553V92.3479H105.15C110.801 92.3479 115.383 96.9296 115.383 102.581V131.092Z" fill="black" fill-opacity="0.19"/>
<path d="M98.3727 93.0999C103.715 93.0999 108.061 97.4497 108.061 102.796V130.548H78.8229V93.0999H98.3727ZM98.3727 92.5549H78.2784V131.093H108.606V102.796C108.606 97.1402 104.024 92.5549 98.3727 92.5549Z" fill="#75E0E6"/>
<path fill-rule="evenodd" clip-rule="evenodd" d="M10.4936 130.119H15.8315V136.328H10.4936V130.119ZM11.0097 130.635V135.812H15.3154V130.635H11.0097Z" fill="#5C76FF"/>
<path fill-rule="evenodd" clip-rule="evenodd" d="M42.396 130.118H47.734V136.328H42.396V130.118ZM42.9122 130.635V135.811H47.2177V130.635H42.9122Z" fill="#5C76FF"/>
<path d="M74.0499 130.087H69.2282V134.908H74.0499V130.087Z" fill="#5C76FF"/>
<path d="M104.976 130.202H100.154V135.024H104.976V130.202Z" fill="#5C76FF"/>
<path d="M106.184 108.361H10.2812V131.101H106.184V108.361Z" fill="#B5CDFB"/>
<path d="M68.103 66.4002H13.2093L21.5384 106.348H76.4323L68.103 66.4002Z" fill="#B5CDFB"/>
<path d="M86.6523 106.348H76.3826L68.0533 66.4002H74.5756C78.5491 66.4002 81.9776 69.1877 82.7886 73.0774L89.0983 103.34C89.4218 104.891 88.2373 106.348 86.6523 106.348Z" fill="#B5CDFB"/>
<path opacity="0.2" d="M68.1952 131.101C68.1952 131.101 68.6777 112.275 67.07 109.958C66.6315 109.326 57.1477 109.063 54.7605 108.361H83.3897L84.577 131.101H68.1952Z" fill="#5C76FF"/>
<path fill-rule="evenodd" clip-rule="evenodd" d="M8.05298 66.142H14.8926C18.9883 66.142 22.5222 69.0152 23.3582 73.0245L30.36 106.606H16.4898L13.2003 90.8292C13.1712 90.6897 13.2607 90.553 13.4002 90.524C13.5397 90.4947 13.6764 90.5842 13.7055 90.7239L16.9094 106.09H29.725L22.8529 73.13C22.0669 69.3597 18.7438 66.6582 14.8926 66.6582H8.6878L13.249 88.5342C13.2781 88.6737 13.1886 88.8105 13.049 88.8395C12.9095 88.8687 12.7728 88.7792 12.7437 88.6397L8.05298 66.142Z" fill="#5C76FF"/>
<path d="M50.4304 108.36H10.28V116.2H50.4304V108.36Z" fill="#5C76FF"/>
<path d="M46.7521 33.7279H30.2276V38.0384H46.7521V33.7279Z" fill="#5C76FF"/>
<path d="M38.4325 36.6077H21.908V40.9184H38.4325V36.6077Z" fill="#5C76FF"/>
<path d="M129.76 78.1045H144.267V74.3202H129.76V78.1045Z" fill="#5C76FF"/>
<path d="M141.778 22.8576H156.284V19.0733H141.778V22.8576Z" fill="#5C76FF"/>
<path fill-rule="evenodd" clip-rule="evenodd" d="M141.644 117.124C131.774 117.124 123.773 125.125 123.773 134.994C123.773 135.707 123.196 136.285 122.483 136.285C121.771 136.285 121.193 135.707 121.193 134.994C121.193 123.699 130.349 114.543 141.644 114.543C152.939 114.543 162.095 123.699 162.095 134.994C162.095 135.707 161.517 136.285 160.804 136.285C160.092 136.285 159.514 135.707 159.514 134.994C159.514 125.125 151.513 117.124 141.644 117.124Z" fill="#5C76FF"/>
<path fill-rule="evenodd" clip-rule="evenodd" d="M100.97 114.798C100.97 114.085 101.547 113.508 102.26 113.508H181.027C181.739 113.508 182.317 114.085 182.317 114.798C182.317 115.511 181.739 116.088 181.027 116.088H102.26C101.547 116.088 100.97 115.511 100.97 114.798Z" fill="#5C76FF"/>
<path d="M117.231 113.321C114.471 113.321 112.233 111.084 112.233 108.324V106.859C112.233 106.301 112.686 105.849 113.243 105.849H121.218C121.776 105.849 122.228 106.301 122.228 106.859V108.324C122.228 111.084 119.991 113.321 117.231 113.321Z" fill="#75E0E6"/>
<path d="M112.202 109.585H111.34C110.608 109.585 110.014 108.992 110.014 108.26C110.014 107.527 110.608 106.934 111.34 106.934H112.202C112.934 106.934 113.528 107.527 113.528 108.26C113.528 108.992 112.934 109.585 112.202 109.585Z" fill="#75E0E6"/>
<path d="M117.708 103.75C116.277 102.939 114.631 101.682 114.411 99.9324C114.14 97.7689 116.271 96.6056 116.927 93.8591C117.308 92.2676 117.246 89.9274 115.279 86.6579C119.076 88.6414 119.945 90.4339 120.051 91.6901C120.23 93.8079 119.338 95.7381 119.01 96.2884C117.909 98.1344 116.704 98.2969 116.349 99.7011C116.123 100.596 116.268 101.894 117.708 103.75Z" fill="#75E0E6"/>
<path d="M122.587 113.831H112.233C112.233 113.192 112.751 112.675 113.39 112.675H121.43C122.069 112.675 122.587 113.192 122.587 113.831Z" fill="#75E0E6"/>
<path d="M169.19 113.831H164.139V97.6992C164.139 96.5182 165.096 95.5605 166.278 95.5605H167.051C168.232 95.5605 169.19 96.5182 169.19 97.6992V113.831Z" fill="#75E0E6"/>
<path d="M165.519 97.8409H167.293V87.7274H165.519V97.8409Z" fill="#75E0E6"/>
<path d="M165.212 88.9041H167.6V87.5396C167.6 87.3508 167.447 87.1978 167.259 87.1978H165.553C165.365 87.1978 165.212 87.3508 165.212 87.5396V88.9041Z" fill="#5C76FF"/>
<path d="M174.333 113.831H168.746V95.9846C168.746 94.6779 169.805 93.6184 171.112 93.6184H171.967C173.274 93.6184 174.333 94.6779 174.333 95.9846V113.831Z" fill="#75E0E6"/>
<path d="M170.394 94.9488H172.168V84.835H170.394V94.9488Z" fill="#75E0E6"/>
<path d="M170.087 86.0121H172.476V84.6476C172.476 84.4589 172.323 84.3059 172.134 84.3059H170.429C170.24 84.3059 170.087 84.4589 170.087 84.6476V86.0121Z" fill="#5C76FF"/>
<path d="M155.223 107.558H155.223C153.354 107.558 151.84 106.043 151.84 104.174V98.6507H158.607V104.174C158.607 106.043 157.092 107.558 155.223 107.558Z" fill="#75E0E6"/>
<path d="M155.636 106.604H155V113.608H155.636V106.604Z" fill="#75E0E6"/>
<path d="M152.794 113.673C152.794 113.321 153.079 113.036 153.431 113.036H157.017C157.368 113.036 157.653 113.321 157.653 113.673H152.794Z" fill="#75E0E6"/>
<path d="M147.01 107.558C145.141 107.558 143.626 106.043 143.626 104.174V98.6507H150.394V104.174C150.394 106.043 148.879 107.558 147.01 107.558Z" fill="#75E0E6"/>
<path d="M147.422 106.604H146.786V113.608H147.422V106.604Z" fill="#75E0E6"/>
<path d="M144.58 113.673C144.58 113.321 144.865 113.036 145.217 113.036H148.803C149.154 113.036 149.439 113.321 149.439 113.673H144.58Z" fill="#75E0E6"/>
<path d="M133.263 85.5134H147.77V81.7291H133.263V85.5134Z" fill="#5C76FF"/>
<path d="M126.01 81.8887H140.517V78.1045H126.01V81.8887Z" fill="#5C76FF"/>
<path fill-rule="evenodd" clip-rule="evenodd" d="M2.5 139.948C2.5 139.806 2.61555 139.69 2.75805 139.69H197.242C197.385 139.69 197.5 139.806 197.5 139.948C197.5 140.091 197.385 140.206 197.242 140.206H2.75805C2.61555 140.206 2.5 140.091 2.5 139.948Z" fill="#5C76FF"/>
<path d="M116.046 18.3774H106.953C106.953 16.5626 108.424 14.5753 110.239 14.5753H112.76C114.575 14.5753 116.046 16.5626 116.046 18.3774Z" fill="#5C76FF"/>
<path fill-rule="evenodd" clip-rule="evenodd" d="M29.9689 36.6077C29.9689 36.4652 30.0847 36.3494 30.2272 36.3494H38.6907V39.7417C38.6907 39.8842 38.5752 39.9997 38.4327 39.9997C38.2902 39.9997 38.1747 39.8842 38.1747 39.7417V36.8657H30.2272C30.0847 36.8657 29.9689 36.7502 29.9689 36.6077Z" fill="#75E0E6"/>
<path fill-rule="evenodd" clip-rule="evenodd" d="M105.14 44.2007C105.14 44.0582 105.255 43.9427 105.398 43.9427H127.536C127.678 43.9427 127.794 44.0582 127.794 44.2007C127.794 44.3432 127.678 44.4587 127.536 44.4587H105.398C105.255 44.4587 105.14 44.3432 105.14 44.2007Z" fill="#75E0E6"/>
<path fill-rule="evenodd" clip-rule="evenodd" d="M96.4601 44.2007C96.4601 44.0582 96.5758 43.9427 96.7183 43.9427H103.591C103.733 43.9427 103.849 44.0582 103.849 44.2007C103.849 44.3432 103.733 44.4587 103.591 44.4587H96.7183C96.5758 44.4587 96.4601 44.3432 96.4601 44.2007Z" fill="#75E0E6"/>
<path fill-rule="evenodd" clip-rule="evenodd" d="M88.6063 44.2007C88.6063 44.0582 88.7218 43.9427 88.8643 43.9427H94.9126C95.0551 43.9427 95.1706 44.0582 95.1706 44.2007C95.1706 44.3432 95.0551 44.4587 94.9126 44.4587H88.8643C88.7218 44.4587 88.6063 44.3432 88.6063 44.2007Z" fill="#75E0E6"/>
<path d="M169.192 102.716C169.191 103.131 169.19 103.408 169.19 103.408L169.192 102.716Z" fill="#75E0E6"/>
<path d="M169.196 99.5825C169.198 100.146 169.196 101.116 169.194 101.942L169.196 99.5825Z" fill="#75E0E6"/>
<path fill-rule="evenodd" clip-rule="evenodd" d="M169.196 99.4554C169.266 99.4551 169.323 99.5119 169.323 99.5821C169.325 100.146 169.323 101.116 169.321 101.943C169.321 102.013 169.264 102.07 169.194 102.069C169.124 102.069 169.067 102.012 169.067 101.942C169.069 101.116 169.071 100.146 169.069 99.5829C169.069 99.5129 169.125 99.4556 169.196 99.4554Z" fill="#5C76FF"/>
<path d="M168.647 96.2683C168.882 96.5121 169.112 96.8524 169.146 97.2711C169.171 97.5791 169.184 98.1618 169.191 98.8083" fill="#75E0E6"/>
<path fill-rule="evenodd" clip-rule="evenodd" d="M168.559 96.177C168.61 96.128 168.69 96.1295 168.739 96.18C168.985 96.4345 169.236 96.801 169.273 97.2608C169.298 97.5743 169.312 98.1613 169.318 98.807C169.319 98.8772 169.263 98.9347 169.192 98.9355C169.122 98.936 169.065 98.8797 169.064 98.8095C169.057 98.1623 169.044 97.5843 169.019 97.2813L168.559 96.177ZM168.559 96.177C168.509 96.2258 168.507 96.3063 168.556 96.3568L168.559 96.177ZM168.556 96.3568C168.781 96.5898 168.989 96.9035 169.019 97.2813L168.556 96.3568Z" fill="#5C76FF"/>
<path d="M119.982 103.45C118.642 102.927 117.802 101.77 117.878 100.651C117.916 100.08 118.197 99.4501 118.668 99.0199C119.274 98.4661 119.782 98.6194 120.348 98.2291C120.809 97.9124 121.321 97.2271 121.386 95.5609C121.603 95.7926 122.274 96.5681 122.276 97.6856C122.276 97.8161 122.268 98.4069 121.93 99.0694C121.38 100.148 120.586 100.181 120.101 100.997C119.847 101.424 119.623 102.161 119.982 103.45Z" fill="#B5CDFB"/>
<path d="M113.873 94.9651C115.245 94.5333 116.161 93.4358 116.162 92.3143C116.162 91.7418 115.924 91.0948 115.483 90.6338C114.916 90.0401 113.86 89.7311 113.86 89.7311C114.06 90.0598 114.315 90.5593 114.474 91.2093C114.642 91.8951 114.628 92.4401 114.622 92.5931C114.579 93.6733 114.159 94.5048 113.873 94.9651Z" fill="#B5CDFB"/>
<path fill-rule="evenodd" clip-rule="evenodd" d="M121.419 112.802L121.418 112.803L121.411 112.803H119.042C118.971 112.803 118.913 112.746 118.913 112.674C118.913 112.603 118.971 112.545 119.042 112.545H121.397C121.402 112.545 121.409 112.544 121.417 112.544C121.433 112.543 121.456 112.543 121.483 112.544C121.539 112.546 121.616 112.553 121.706 112.575C121.888 112.62 122.123 112.723 122.342 112.954C122.391 113.006 122.389 113.088 122.337 113.137C122.286 113.186 122.204 113.184 122.155 113.132C121.974 112.941 121.786 112.86 121.645 112.826C121.574 112.809 121.515 112.803 121.475 112.802C121.455 112.801 121.439 112.801 121.429 112.802C121.425 112.802 121.421 112.802 121.419 112.802Z" fill="#5C76FF"/>
<path fill-rule="evenodd" clip-rule="evenodd" d="M117.721 112.675C117.721 112.603 117.779 112.546 117.85 112.546H118.526C118.597 112.546 118.655 112.603 118.655 112.675C118.655 112.746 118.597 112.804 118.526 112.804H117.85C117.779 112.804 117.721 112.746 117.721 112.675Z" fill="#5C76FF"/>
<path fill-rule="evenodd" clip-rule="evenodd" d="M116.927 112.675C116.927 112.603 116.985 112.546 117.056 112.546H117.335C117.406 112.546 117.464 112.603 117.464 112.675C117.464 112.746 117.406 112.804 117.335 112.804H117.056C116.985 112.804 116.927 112.746 116.927 112.675Z" fill="#5C76FF"/>
<path d="M78.8121 133.88L75.6994 133.43L75.1336 130.364L78.0831 130.348L78.8121 133.88Z" fill="#9C7159"/>
<path d="M87.837 133.119L85.0698 133.442L84.3128 129.444L87.1028 129.292L87.837 133.119Z" fill="#9C7159"/>
<path d="M95.5523 135.613H83.0753C82.8118 135.613 82.5981 135.4 82.5981 135.136C82.5981 134.872 82.8118 134.659 83.0753 134.659H95.5523C95.8158 134.659 96.0296 134.872 96.0296 135.136C96.0296 135.4 95.8158 135.613 95.5523 135.613Z" fill="#5C76FF"/>
<path d="M84.8936 132.51C84.8936 132.51 83.4564 134.349 84.5264 134.647C85.5966 134.945 93.8936 134.659 93.8936 134.659L93.4886 132.903L86.8659 132.094L84.8936 132.51Z" fill="#9C7159"/>
<path d="M95.6335 134.659L88.5285 135.136L88.3838 131.978L93.0683 132.093C94.485 132.093 95.6335 133.242 95.6335 134.659Z" fill="#5C76FF"/>
<path d="M76.6381 86.9046C76.6381 86.9046 74.4584 85.4449 74.3219 85.6766C73.8376 86.4989 75.2691 88.0681 75.2691 88.0681L76.6381 86.9046Z" fill="#231F20"/>
<path d="M78.6875 98.7167L65.5375 97.245C65.0628 97.1975 64.6723 96.85 64.5705 96.3837L60.8328 79.2787C60.579 78.1175 61.3148 76.9705 62.476 76.7167C63.636 76.4625 64.784 77.1987 65.038 78.3597L68.2478 93.05L78.3922 96.143C79.5792 96.2092 78.4415 98.2367 78.6875 98.7167Z" fill="#835A4B"/>
<path d="M70.6024 87.2545C70.6024 87.2545 70.7526 86.9028 71.9386 85.8903C72.3304 85.556 73.1769 85.317 73.1769 85.317C73.1769 85.317 74.4386 85.005 74.5629 85.2018C74.9644 85.8365 74.1884 86.1757 73.7044 86.269C73.6799 86.2737 73.6624 86.2937 73.6431 86.31L74.6346 87.2525L70.6024 87.2545Z" fill="#835A4B"/>
<path d="M70.6024 87.2546C70.6024 87.2546 71.5591 85.8411 72.6426 85.7606C73.1564 85.7226 74.5629 87.7851 74.5629 87.7851L70.6024 87.2546Z" fill="#9C7159"/>
<path d="M77.0427 86.2934C77.0427 86.2934 75.4052 84.8589 75.2687 85.0904C74.7845 85.9126 75.8815 86.9171 75.8815 86.9171L77.0427 86.2934Z" fill="#835A4B"/>
<path d="M65.64 95.5877L53.396 95.7669C52.9097 94.3814 52.231 92.3934 51.4727 89.9827C48.9682 82.0207 51.205 76.5362 51.477 75.5852C51.7472 74.6399 55.7305 72.4272 57.275 72.8509C57.9737 73.0137 61.2255 72.4727 62.1305 73.2462C64.8235 75.5472 65.4635 80.8694 65.3642 82.3862C65.1797 85.2069 64.8272 87.4837 64.7762 90.2719C64.7352 92.5059 65.2132 94.3499 65.64 95.5877Z" fill="#75E0E6"/>
<path fill-rule="evenodd" clip-rule="evenodd" d="M61.0022 101.337C61.1472 98.7754 63.3409 96.8164 65.9022 96.9614L77.9797 97.6447C80.9799 97.8144 83.5169 99.9202 84.2392 102.833L89.8834 124.674C90.5254 127.158 89.0322 129.692 86.5484 130.334C84.0647 130.976 81.5307 129.483 80.8889 126.999L75.6739 106.819L65.3774 106.237C62.8162 106.092 60.8572 103.898 61.0022 101.337Z" fill="#75E0E6"/>
<path fill-rule="evenodd" clip-rule="evenodd" d="M49.8588 102.637C49.8588 99.5014 52.4005 96.9596 55.536 96.9596H71.158C74.115 96.9596 76.1206 98.7161 77.0973 99.9024C78.0746 101.09 78.8825 102.703 79.0923 104.507L82.5751 125.729C83.0828 128.823 80.9863 131.743 77.8921 132.251C74.798 132.759 71.878 130.662 71.3703 127.568L68.2103 108.314H55.536C52.4005 108.314 49.8588 105.772 49.8588 102.637Z" fill="#5C76FF"/>
<path d="M77.1586 95.767C77.1586 95.767 81.6584 96.0815 82.0291 96.452C82.3996 96.8227 84.4504 100.107 84.0551 100.23C83.9014 100.278 84.2811 100.749 83.2644 100.502C82.9489 100.426 81.6831 99.4645 81.6831 99.4645C81.6831 99.4645 79.3711 98.5327 78.9901 98.4315C78.7936 98.3792 78.6099 98.2782 78.4451 98.156C77.9234 97.7695 77.6181 97.672 77.5674 97.0245L77.5361 96.625L77.1586 95.767Z" fill="#835A4B"/>
<path d="M74.8566 84.2791C72.9879 84.2791 71.4729 82.7641 71.4729 80.8954V76.9574H78.2404V80.8954C78.2404 82.7641 76.7254 84.2791 74.8566 84.2791Z" fill="#5C76FF"/>
<path d="M75.2687 83.3244H74.6325V91.3916H75.2687V83.3244Z" fill="#5C76FF"/>
<path d="M72.4271 91.8775C72.4271 91.5263 72.7118 91.2413 73.0633 91.2413H76.6496C77.0008 91.2413 77.2858 91.5263 77.2858 91.8775H72.4271Z" fill="#5C76FF"/>
<path d="M86.984 136.528H74.2805C74.017 136.528 73.8035 136.314 73.8035 136.051C73.8035 135.787 74.017 135.574 74.2805 135.574H86.984C87.2478 135.574 87.4613 135.787 87.4613 136.051C87.4613 136.314 87.2478 136.528 86.984 136.528Z" fill="#5C76FF"/>
<path d="M75.6994 133.43C75.6994 133.43 74.4411 135.276 75.5111 135.574C76.5814 135.872 85.0981 135.574 85.0981 135.574L84.6931 133.818L78.0704 133.009L75.6994 133.43Z" fill="#9C7159"/>
<path d="M87.0655 135.574L79.9603 136.051L79.8158 132.893L84.5003 133.009C85.917 133.009 87.0655 134.157 87.0655 135.574Z" fill="#5C76FF"/>
<path d="M53.0749 94.7589C51.0667 97.4759 49.9174 100.103 49.9022 102.81L69.5367 99.4882C69.5367 99.4882 68.2547 96.8304 65.2044 94.1019L53.0749 94.7589Z" fill="#5C76FF"/>
<path d="M65.5383 67.9982C65.448 68.3897 65.3298 68.7882 65.2005 69.1717C65.1728 69.259 65.142 69.3439 65.1115 69.4262C64.935 69.9214 64.7385 70.3822 64.5515 70.7594C64.385 71.0912 64.0198 71.2762 63.6535 71.2152L61.0028 70.2912L60.9923 70.2894C60.9923 70.2894 60.8488 70.8887 60.7573 71.5309C60.7135 71.8417 60.6808 72.1619 60.683 72.4284C60.6968 74.0594 60.5673 75.2164 60.1718 75.2584C59.635 75.3152 59.0373 75.3475 58.4703 75.264C57.175 75.0765 56.048 74.278 56.2253 71.7522C56.2288 71.6872 56.2293 71.6172 56.2243 71.5427C56.1013 69.7094 53.552 66.9834 53.552 66.9834C53.2958 66.7497 53.0638 66.4912 52.8613 66.2099C52.4275 65.6027 52.1288 64.8882 52.011 64.0995C51.6188 61.449 53.4498 58.9777 56.103 58.5852L59.8933 58.0232C60.0265 58.0039 60.1575 57.9899 60.2863 57.9814C62.7863 57.8139 65.0343 59.5952 65.4075 62.1152C65.434 62.2764 65.447 62.4332 65.4553 62.5957L65.478 62.5862C65.478 62.5862 65.5163 62.8087 65.5615 63.1782C65.694 64.2272 65.9025 66.4505 65.5383 67.9982Z" fill="#9C7159"/>
<path d="M65.5466 64.2547C65.5466 64.2547 66.8183 67.2315 66.5488 67.6082C66.4693 67.7192 66.0693 67.6542 65.4668 67.6805C65.0453 67.6987 64.4836 66.707 64.6513 66.32L65.5466 64.2547Z" fill="#9C7159"/>
<path fill-rule="evenodd" clip-rule="evenodd" d="M62.8412 64.9939L62.7122 64.7704C62.5887 64.8416 62.5465 64.9994 62.6177 65.1229C62.6892 65.2461 62.847 65.2884 62.9702 65.2174L62.9725 65.2161L62.9815 65.2109C62.9897 65.2064 63.0027 65.1994 63.0195 65.1901C63.0535 65.1719 63.104 65.1459 63.1677 65.1146C63.2955 65.0524 63.4757 64.9714 63.6847 64.8966C64.1125 64.7436 64.6207 64.6316 65.0437 64.7186C65.1835 64.7474 65.32 64.6574 65.3485 64.5179C65.3773 64.3781 65.2875 64.2416 65.1477 64.2131C64.5825 64.0969 63.9632 64.2489 63.511 64.4106C63.28 64.4931 63.082 64.5824 62.9415 64.6506C62.8712 64.6851 62.815 64.7144 62.7757 64.7354C62.7562 64.7459 62.7407 64.7541 62.7302 64.7601L62.7175 64.7671L62.714 64.7694L62.713 64.7699L62.7125 64.7701C62.7125 64.7701 62.7122 64.7704 62.8412 64.9939Z" fill="#231F20"/>
<path d="M64.2108 66.1886C64.3905 66.1886 64.5363 66.0429 64.5363 65.8631C64.5363 65.6836 64.3905 65.5379 64.2108 65.5379C64.031 65.5379 63.8855 65.6836 63.8855 65.8631C63.8855 66.0429 64.031 66.1886 64.2108 66.1886Z" fill="#231F20"/>
<path d="M65.2006 69.1719C65.1729 69.2591 65.1421 69.3441 65.1116 69.4264C64.5734 69.3849 64.3084 68.9809 64.2411 68.7501L64.4896 68.6766C64.4961 68.6969 64.6469 69.1704 65.2006 69.1719Z" fill="#231F20"/>
<path d="M61.0023 70.2912L60.9918 70.2894C60.9918 70.2894 60.8486 70.8887 60.7571 71.5309C60.4751 71.3767 60.0613 70.1214 60.1488 69.9217C60.1488 69.9217 60.2316 69.9602 60.3778 70.0227C60.5856 70.1122 60.5951 70.1194 61.0023 70.2912Z" fill="#231F20"/>
<path d="M56.114 93.4211C55.3745 93.4211 49.746 77.4881 49.746 77.4881C49.5008 76.1339 50.1588 73.4579 52.8603 73.4586C55.5625 73.4594 56.4195 75.0731 56.7155 76.4174C57.3278 79.1984 59.5518 88.7581 59.5518 88.7581L71.515 87.0039C72.8245 86.5799 74.0318 86.7159 74.455 88.0254C74.8785 89.3349 74.0105 89.9351 72.7008 90.3586C72.7008 90.3586 57.7488 93.7506 56.114 93.4211Z" fill="#9C7159"/>
<path d="M72.4256 86.8897C72.4256 86.8897 73.2171 86.9552 73.8811 86.795C74.3866 86.673 75.6236 86.414 75.6236 86.414C75.6236 86.414 76.2676 90.113 75.6894 90.4022C75.1109 90.6912 74.6091 90.8787 73.6691 90.9077C72.9554 90.9297 71.3399 90.6785 71.3399 90.6785L72.4256 86.8897Z" fill="#9C7159"/>
<path d="M75.4916 89.4477C75.4916 89.4477 76.8516 88.4002 76.9086 87.6917C76.9656 86.9829 77.5346 85.8319 76.3343 86.2092C75.1343 86.5867 74.7621 86.7722 74.7621 86.7722L75.4916 89.4477Z" fill="#9C7159"/>
<path d="M60.5696 64.2549C62.4393 64.0086 64.7166 63.5931 66.5863 63.3469C66.4748 62.3834 66.5248 59.7589 65.0993 58.0099C62.4268 54.7316 58.0868 56.6114 57.3206 56.6264C56.6478 56.6394 54.1426 56.6894 53.7201 57.8844C53.5826 58.2726 53.7061 58.6771 53.8351 58.9611C52.8736 58.8049 51.5353 58.8516 51.0651 62.0126C50.7136 64.3766 50.5498 64.9164 50.4063 65.3234C50.0538 66.3226 49.5725 67.0521 49.1483 67.9261C47.7403 70.8269 47.5948 71.1186 47.4998 71.7871C47.4006 72.4849 49.2401 73.0514 48.9158 73.9996C48.7748 74.4111 48.6103 74.7669 48.2355 75.4379C46.7978 78.0106 45.9656 78.6806 45.8061 80.2099C45.6281 81.9191 44.7638 81.8669 46.8628 87.2376C47.389 88.5839 47.7218 89.5896 48.7716 90.4476C49.7523 91.2491 51.4243 90.7419 52.18 90.8399C51.2273 87.8076 51.0995 85.8179 51.1003 84.0856C51.1015 81.6466 50.5053 79.7891 51.895 78.0406C52.1798 77.6826 53.1438 76.0536 54.4981 76.0451C55.6328 76.0381 56.2663 77.1531 57.2916 76.8844C57.8701 76.7326 58.2011 76.2381 58.4446 75.8631C59.0996 74.8546 59.9388 73.3514 59.7193 69.6226C59.5951 67.5134 60.6128 65.8594 60.5696 64.2549Z" fill="#231F20"/>
<path fill-rule="evenodd" clip-rule="evenodd" d="M63.4639 97.0014C63.4639 96.8589 63.5794 96.7434 63.7221 96.7434H64.7926C64.9351 96.7434 65.0506 96.8589 65.0506 97.0014C65.0506 97.1439 64.9351 97.2594 64.7926 97.2594H63.7221C63.5794 97.2594 63.4639 97.1439 63.4639 97.0014Z" fill="#B5CDFB"/>
<path fill-rule="evenodd" clip-rule="evenodd" d="M65.8881 97.2596C65.8881 97.2596 65.8881 97.2596 65.8796 97.0016C65.8714 96.7438 65.8714 96.7438 65.8714 96.7438L65.9211 96.7421C65.9534 96.7411 66.0011 96.7398 66.0621 96.7378C66.1844 96.7343 66.3604 96.7293 66.5761 96.7238C67.0079 96.7131 67.5984 96.6998 68.2341 96.6911C69.4994 96.6736 70.9644 96.6731 71.7029 96.7448C72.9296 96.8641 74.8041 97.3511 76.2679 98.6863C76.3734 98.7823 76.3809 98.9456 76.2846 99.0508C76.1886 99.1561 76.0254 99.1636 75.9201 99.0676C74.5669 97.8331 72.8139 97.3713 71.6529 97.2586C70.9486 97.1901 69.5146 97.1896 68.2414 97.2071C67.6081 97.2158 67.0196 97.2291 66.5894 97.2398C66.3744 97.2453 66.1989 97.2503 66.0771 97.2538C66.0164 97.2556 65.9691 97.2571 65.9369 97.2581L65.8881 97.2596ZM65.6219 97.0098C65.6171 96.8676 65.7291 96.7483 65.8714 96.7438L65.8796 97.0016L65.8881 97.2596C65.7456 97.2641 65.6264 97.1523 65.6219 97.0098Z" fill="#B5CDFB"/>
</svg>
