<svg width="200" height="150" viewBox="0 0 200 150" fill="none" xmlns="http://www.w3.org/2000/svg">
<g opacity="0.2">
<path opacity="0.2" d="M50.9666 64.52C51.0861 66.2222 38.8953 65.9572 26.9906 72.4072C13.1107 79.9227 10.0727 90.9 6.15119 89.4757C1.66579 87.8465 1.02127 71.825 7.67926 59.6812C7.86379 59.3432 8.05349 59.0107 8.24839 58.686C9.24109 57.0045 10.3248 55.5025 11.4448 54.1537C14.5529 50.4192 17.9677 47.888 20.6678 46.1392C20.7405 46.0897 20.8133 46.043 20.8861 45.9987C21.2837 45.7415 21.6631 45.505 22.0243 45.2842C22.3284 45.097 22.6168 44.9202 22.8897 44.7567C23.8564 44.172 24.8414 43.6235 25.8393 43.1065C25.9173 43.0647 25.9978 43.0232 26.0783 42.9842C26.6033 42.714 27.1336 42.4542 27.6636 42.2072C28.1938 41.9577 28.7266 41.716 29.2566 41.4847C29.4333 41.4067 29.6101 41.3315 29.7893 41.2562C29.9661 41.1807 30.1428 41.1055 30.3196 41.0327C30.6756 40.887 31.0291 40.7467 31.3823 40.609C31.5383 40.5467 31.6943 40.487 31.8501 40.4272C32.2633 40.2712 32.6766 40.1205 33.0871 39.975C33.3106 39.8945 33.5316 39.819 33.7526 39.7437C34.0148 39.6552 34.2748 39.567 34.5346 39.4837C42.7103 36.8382 49.8856 36.555 50.9666 38.803C52.5023 41.9967 41.1433 49.0992 37.1126 54.993C37.0633 55.0657 37.0138 55.1412 36.9646 55.214C35.8991 56.8355 35.4156 58.361 35.9431 59.6812C36.8943 62.0642 40.7483 62.8152 44.3138 63.213C44.4463 63.2285 44.5763 63.2415 44.7061 63.257C47.9806 63.6027 50.9068 63.6857 50.9666 64.52Z" fill="#2249B3"/>
</g>
<g opacity="0.7">
<path opacity="0.1" d="M14.4469 55.5543L12.1392 60.4998L8.2489 58.6858C9.2416 57.0045 10.3253 55.5023 11.4453 54.1535L14.4469 55.5543Z" fill="#333333"/>
</g>
<g opacity="0.84">
<path opacity="0.84" d="M185.693 128.538H17.4479C12.2533 128.538 7.94366 124.542 7.52183 119.365C6.41298 105.754 7.87111 93.2718 15.6236 87.9973C25.0918 81.5553 35.8405 91.3803 47.0683 84.8788C63.4653 75.3838 58.2678 44.1643 67.8583 42.5193C74.7068 41.3445 79.1018 56.9645 87.089 56.2925C99.0375 55.2875 101.424 19.3051 111.257 18.8706C120.536 18.4607 124.729 50.2238 139.584 51.6148C148.214 52.423 152.795 42.263 158.555 44.5983C167.7 48.3063 160.511 75.6923 171.808 81.2405C177.537 84.0543 182.697 78.6368 186.361 82.02C192.228 87.4378 181.59 103.723 188.96 111.386C191.351 113.873 194.08 113.83 195.197 116.843C195.651 118.068 195.678 119.366 195.427 120.666C194.538 125.276 190.388 128.538 185.693 128.538Z" fill="#2249B3"/>
</g>
<path d="M174.407 76.1725C174.388 76.1725 174.368 76.1682 174.35 76.1592C168.349 73.2125 167.526 64.375 166.73 55.8285C166.031 48.332 165.372 41.251 161.104 39.5207C161.038 39.4937 161.006 39.418 161.033 39.3515C161.06 39.285 161.136 39.2532 161.202 39.28C165.616 41.0697 166.283 48.227 166.989 55.8045C167.778 64.2797 168.595 73.0435 174.464 75.926C174.528 75.9577 174.555 76.0355 174.523 76.1C174.501 76.146 174.455 76.1725 174.407 76.1725Z" fill="#333333"/>
<path d="M143.158 46.593C142.834 46.593 142.506 46.578 142.17 46.5465C142.099 46.5398 142.046 46.4765 142.053 46.405C142.059 46.3338 142.123 46.281 142.194 46.2878C146.552 46.6965 149.898 44.2528 152.851 42.0973C155.783 39.9575 158.315 38.11 161.202 39.28C161.268 39.3073 161.3 39.383 161.273 39.4495C161.247 39.5158 161.171 39.5475 161.104 39.521C158.352 38.405 155.874 40.2133 153.005 42.3073C150.239 44.3255 147.132 46.593 143.158 46.593Z" fill="#333333"/>
<path d="M87.0896 56.4222C87.0228 56.4222 86.9661 56.371 86.9603 56.303C86.9543 56.2315 87.0073 56.1687 87.0788 56.1627C93.2391 55.6445 96.8243 45.7015 100.292 36.0857C103.469 27.2745 106.47 18.9518 111.252 18.7405C111.318 18.7339 111.385 18.7928 111.388 18.8646C111.391 18.9363 111.336 18.9969 111.264 19.0001C106.656 19.2038 103.683 27.4467 100.536 36.174C97.041 45.8667 93.4268 55.8895 87.1008 56.4217C87.0971 56.422 87.0933 56.4222 87.0896 56.4222Z" fill="#333333"/>
<path d="M86.5847 56.4435C82.6839 56.4435 79.6674 52.6875 76.7457 49.0503C73.8692 45.469 71.1542 42.085 67.8802 42.647C67.8097 42.6593 67.7422 42.6115 67.7302 42.5408C67.7179 42.4703 67.7654 42.403 67.8362 42.3908C71.2582 41.8043 74.0224 45.2445 76.9485 48.8875C79.9547 52.6305 83.0612 56.5008 87.078 56.1628C87.1502 56.155 87.2122 56.2098 87.2182 56.2813C87.2244 56.3528 87.1712 56.4158 87.0997 56.4218C86.9264 56.4363 86.7544 56.4435 86.5847 56.4435Z" fill="#333333"/>
<g opacity="0.31">
<g opacity="0.31">
<path opacity="0.31" d="M14.9181 111.285C12.7886 111.434 11.3683 111.933 11.6092 112.51L20.8527 118.353C21.1351 119.03 23.59 119.559 26.3348 119.534L97.5182 118.901C97.9215 118.897 98.3082 118.882 98.6742 118.856C100.803 118.707 102.222 118.209 101.981 117.632L92.7373 111.788C92.4558 111.111 89.9997 110.582 87.2552 110.607L16.0716 111.241C15.6693 111.244 15.2835 111.26 14.9181 111.285Z" fill="#333333"/>
</g>
</g>
<path d="M45.5187 101.152H37.758L37.9767 101.91H44.7782L46.7997 108.913H47.759L45.5187 101.152ZM72.507 101.152H64.7462L64.9652 101.91H71.7665L73.788 108.913H74.7472L72.507 101.152ZM86.0022 101.152H78.2415L78.4605 101.91H85.2617L87.2832 108.913H88.2425L86.0022 101.152ZM38.6317 77.295H30.871L31.09 78.0532H37.8912L39.9127 85.0557H40.8722L38.6317 77.295ZM52.127 77.295H44.3662L44.5852 78.0532H51.3842L53.4057 85.0557H54.3675L52.127 77.295ZM79.1152 77.295H71.3545L71.5735 78.0532H78.3747L80.3962 85.0557H81.3557L79.1152 77.295ZM52.3975 110.168L50.014 101.91H58.2712L60.6547 110.168H52.3975ZM37.7285 101.91L37.438 100.904H45.6955L48.079 109.161H46.8712L47.1617 110.168H38.9045L36.5207 101.91H37.7285ZM64.717 101.91L64.4262 100.904H72.6835L75.0672 109.161H73.8595L74.15 110.168H65.8927L63.5092 101.91H64.717ZM78.2122 101.91L77.9215 100.904H86.1787L88.5625 109.161H87.3547L87.6452 110.168H79.3857L77.0022 101.91H78.2122ZM35.4612 98.2402L33.0777 89.983H41.335L43.7187 98.2402H35.4612ZM48.9545 98.2402L46.5707 89.983H54.828L57.2117 98.2402H48.9545ZM62.4497 98.2402L60.066 89.983H68.3232L70.707 98.2402H62.4497ZM75.9427 98.2402L73.559 89.983H81.8185L84.2022 98.2402H75.9427ZM59.0057 86.3105L56.6222 78.0532H64.8795L67.2632 86.3105H59.0057ZM30.8415 78.0532L30.551 77.0467H38.8085L41.192 85.3042H39.9842L40.275 86.3105H32.0175L29.634 78.0532H30.8415ZM44.3367 78.0532L44.0462 77.0467H52.3037L54.6872 85.3042H53.4772L53.768 86.3105H45.5105L43.127 78.0532H44.3367ZM71.3252 78.0532L71.0347 77.0467H79.292L81.6755 85.3042H80.4677L80.7585 86.3105H72.4987L70.1152 78.0532H71.3252ZM81.914 71.9877H23.5888C21.2963 71.9877 19.9711 73.8507 20.6329 76.1432L31.792 114.799C32.4532 117.09 34.8547 118.955 37.147 118.955H95.4637C97.2015 118.497 98.1022 116.811 97.5215 114.799L86.3625 76.1432C85.7827 74.135 83.913 72.4495 81.914 71.9877ZM22.5167 71.8625H19.5761C17.212 71.8625 15.8508 73.7792 16.5333 76.1432L27.6925 114.799C28.3747 117.163 30.842 119.078 33.206 119.078H36.1375C34.076 118.608 32.141 116.868 31.5437 114.799L20.3846 76.1432C19.7864 74.071 20.721 72.3295 22.5167 71.8625Z" fill="#75E0E6"/>
<path d="M30.8418 78.053H29.634L32.0178 86.3102H40.275L39.9845 85.3037H32.9348L30.8418 78.053ZM37.8913 78.053H31.09L33.1115 85.0555H39.9128L37.8913 78.053Z" fill="#2249B3"/>
<path d="M31.09 78.0533L30.871 77.295H38.632L40.8723 85.056H39.9128H33.1115L31.09 78.0533ZM38.8085 77.047H30.5513L30.8418 78.0533L32.9348 85.3043H39.9845H41.1923L38.8085 77.047Z" fill="#333333"/>
<path d="M44.3367 78.053H43.1267L45.5105 86.3102H53.7677L53.4772 85.3037H46.43L44.3367 78.053ZM51.384 78.053H44.585L46.6065 85.0555H53.4055L51.384 78.053Z" fill="#2249B3"/>
<path d="M44.5853 78.0533L44.3663 77.295H52.127L54.3675 85.056H53.4058H46.6068L44.5853 78.0533ZM52.3038 77.047H44.0465L44.337 78.0533L46.43 85.3043H53.4773H54.6873L52.3038 77.047Z" fill="#333333"/>
<path d="M64.8792 78.053H56.6219L59.0057 86.3102H67.2629L64.8792 78.053Z" fill="#2249B3"/>
<path d="M71.3252 78.053H70.1152L72.4987 86.3102H80.7585L80.4677 85.3037H73.4182L71.3252 78.053ZM78.3747 78.053H71.5735L73.5947 85.0555H80.3962L78.3747 78.053Z" fill="#2249B3"/>
<path d="M71.5735 78.0533L71.3548 77.295H79.1155L81.3558 85.056H80.3963H73.595L71.5735 78.0533ZM79.292 77.047H71.0348L71.3253 78.0533L73.4185 85.3043H80.468H81.6758L79.292 77.047Z" fill="#333333"/>
<path d="M41.335 89.983H33.0778L35.4613 98.2403H43.7188L41.335 89.983Z" fill="#2249B3"/>
<path d="M54.8278 89.983H46.5706L48.9541 98.2403H57.2116L54.8278 89.983Z" fill="#2249B3"/>
<path d="M68.3231 89.983H60.0656L62.4493 98.2403H70.7066L68.3231 89.983Z" fill="#2249B3"/>
<path d="M81.8182 89.983H73.5587L75.9425 98.2403H84.202L81.8182 89.983Z" fill="#2249B3"/>
<path d="M37.7287 101.911H36.521L38.9045 110.168H47.1617L46.8712 109.161H39.8217L37.7287 101.911ZM44.7782 101.911H37.977L39.9982 108.913H46.7997L44.7782 101.911Z" fill="#2249B3"/>
<path d="M37.9767 101.91L37.758 101.152H45.5187L47.759 108.913H46.7997H39.9982L37.9767 101.91ZM45.6952 100.904H37.438L37.7285 101.91L39.8217 109.161H46.8712H48.079L45.6952 100.904Z" fill="#333333"/>
<path d="M58.2715 101.911H50.0143L52.3978 110.168H60.655L58.2715 101.911Z" fill="#2249B3"/>
<path d="M64.717 101.911H63.5093L65.893 110.168H74.1503L73.8598 109.161H66.8103L64.717 101.911ZM71.7665 101.911H64.9653L66.9868 108.913H73.788L71.7665 101.911Z" fill="#2249B3"/>
<path d="M64.9653 101.91L64.7465 101.152H72.5073L74.7475 108.913H73.788H66.9868L64.9653 101.91ZM72.6838 100.904H64.4265L64.717 101.91L66.8103 109.161H73.8598H75.0675L72.6838 100.904Z" fill="#333333"/>
<path d="M78.2124 101.911H77.0024L79.3862 110.168H87.6457L87.3552 109.161H80.3054L78.2124 101.911ZM85.2619 101.911H78.4607L80.4822 108.913H87.2834L85.2619 101.911Z" fill="#2249B3"/>
<path d="M78.4605 101.91L78.2415 101.152H86.0023L88.2428 108.913H87.2832H80.482L78.4605 101.91ZM86.179 100.904H77.9218L78.2122 101.91L80.3053 109.161H87.355H88.5628L86.179 100.904Z" fill="#333333"/>
<path d="M81.9139 71.9877H84.8587C87.1512 71.9877 89.5519 73.8507 90.2137 76.1432L101.373 114.799C102.034 117.09 100.709 118.955 98.4169 118.955H95.4637H37.1472C34.8547 118.955 32.4532 117.09 31.7919 114.799L20.6329 76.1432C19.9711 73.8507 21.2964 71.9877 23.5888 71.9877H81.9139ZM84.7869 71.7395H23.5171C23.1605 71.7395 22.8258 71.7823 22.5167 71.8625C20.7211 72.3293 19.7864 74.071 20.3847 76.1432L31.5437 114.799C32.1409 116.868 34.0759 118.608 36.1374 119.078C36.4962 119.16 36.8587 119.203 37.2187 119.203H98.4887C100.917 119.203 102.322 117.228 101.621 114.799L90.4619 76.1432C89.7609 73.7142 87.2159 71.7395 84.7869 71.7395Z" fill="#333333"/>
<path d="M30.4262 74.3757C30.3747 74.3757 30.3247 74.3477 30.2989 74.299C30.2622 74.229 30.2892 74.142 30.3592 74.1052C31.5412 73.4832 32.2754 72.2675 32.2754 70.933C32.2754 68.9577 30.6687 67.3507 28.6934 67.3507C26.7182 67.3507 25.1112 68.9577 25.1112 70.933C25.1112 71.0122 25.0469 71.0765 24.9677 71.0765C24.8886 71.0765 24.8242 71.0122 24.8242 70.933C24.8242 68.7995 26.5599 67.0637 28.6934 67.0637C30.8269 67.0637 32.5627 68.7995 32.5627 70.933C32.5627 72.3745 31.7694 73.6872 30.4929 74.3592C30.4714 74.3705 30.4487 74.3757 30.4262 74.3757Z" fill="#333333"/>
<path d="M40.0777 74.3755C40.0262 74.3755 39.9762 74.3475 39.9505 74.2987C39.9137 74.2287 39.9407 74.142 40.0107 74.105C41.1927 73.483 41.9272 72.2672 41.9272 70.9327C41.9272 68.9575 40.3202 67.3505 38.345 67.3505C36.3697 67.3505 34.763 68.9575 34.763 70.9327C34.763 71.012 34.6985 71.0762 34.6195 71.0762C34.5402 71.0762 34.4757 71.012 34.4757 70.9327C34.4757 68.7992 36.2115 67.0635 38.345 67.0635C40.4785 67.0635 42.2142 68.7992 42.2142 70.9327C42.2142 72.3742 41.4212 73.687 40.1445 74.359C40.1232 74.3702 40.1002 74.3755 40.0777 74.3755Z" fill="#333333"/>
<path d="M49.7292 74.3755C49.6777 74.3755 49.6277 74.3475 49.6019 74.2987C49.5652 74.2287 49.5922 74.142 49.6622 74.105C50.8444 73.483 51.5787 72.2675 51.5787 70.9327C51.5787 68.9575 49.9717 67.3505 47.9967 67.3505C46.0212 67.3505 44.4142 68.9575 44.4142 70.9327C44.4142 71.012 44.3499 71.0762 44.2707 71.0762C44.1917 71.0762 44.1272 71.012 44.1272 70.9327C44.1272 68.7992 45.8629 67.0635 47.9967 67.0635C50.1299 67.0635 51.8657 68.7992 51.8657 70.9327C51.8657 72.3742 51.0724 73.687 49.7959 74.359C49.7747 74.3702 49.7517 74.3755 49.7292 74.3755Z" fill="#333333"/>
<path d="M59.3813 74.3755C59.3295 74.3755 59.2798 74.3475 59.254 74.2987C59.2173 74.2287 59.244 74.142 59.3143 74.105C60.4965 73.483 61.2308 72.2675 61.2308 70.9327C61.2308 68.9575 59.6238 67.3505 57.6485 67.3505C55.6733 67.3505 54.0663 68.9575 54.0663 70.9327C54.0663 71.012 54.002 71.0762 53.9228 71.0762C53.8435 71.0762 53.7793 71.012 53.7793 70.9327C53.7793 68.7992 55.515 67.0635 57.6485 67.0635C59.782 67.0635 61.5178 68.7992 61.5178 70.9327C61.5178 72.3742 60.7245 73.687 59.4478 74.359C59.4265 74.3702 59.4035 74.3755 59.3813 74.3755Z" fill="#333333"/>
<path d="M69.059 74.3755C69.0075 74.3755 68.9578 74.3475 68.932 74.2987C68.8953 74.2287 68.922 74.142 68.992 74.105C70.1743 73.483 70.9085 72.2672 70.9085 70.9327C70.9085 68.9575 69.3015 67.3505 67.3263 67.3505C65.3513 67.3505 63.7443 68.9575 63.7443 70.9327C63.7443 71.012 63.68 71.0762 63.6008 71.0762C63.5215 71.0762 63.4573 71.012 63.4573 70.9327C63.4573 68.7992 65.193 67.0635 67.3263 67.0635C69.4598 67.0635 71.1955 68.7992 71.1955 70.9327C71.1955 72.3742 70.4025 73.687 69.1258 74.359C69.1045 74.3702 69.0815 74.3755 69.059 74.3755Z" fill="#333333"/>
<path d="M78.7113 74.3755C78.6598 74.3755 78.6097 74.3475 78.584 74.2987C78.5472 74.2287 78.574 74.142 78.6442 74.105C79.8262 73.483 80.5605 72.2672 80.5605 70.9327C80.5605 68.9575 78.9538 67.3505 76.9785 67.3505C75.003 67.3505 73.3962 68.9575 73.3962 70.9327C73.3962 71.012 73.3317 71.0762 73.2527 71.0762C73.1735 71.0762 73.1093 71.012 73.1093 70.9327C73.1093 68.7992 74.845 67.0635 76.9785 67.0635C79.1118 67.0635 80.8475 68.7992 80.8475 70.9327C80.8475 72.3742 80.0545 73.687 78.778 74.359C78.7565 74.3702 78.7335 74.3755 78.7113 74.3755Z" fill="#333333"/>
<path d="M195.327 123.859H89.0482C88.9047 123.859 88.7885 123.743 88.7885 123.6C88.7885 123.456 88.9047 123.34 89.0482 123.34H195.327C195.47 123.34 195.587 123.456 195.587 123.6C195.587 123.743 195.47 123.859 195.327 123.859Z" fill="#B5CDFB"/>
<path d="M75.9797 123.859H2.75975C2.61625 123.859 2.49988 123.743 2.49988 123.6C2.49988 123.456 2.61625 123.34 2.75975 123.34H75.9797C76.1235 123.34 76.2397 123.456 76.2397 123.6C76.2397 123.743 76.1235 123.859 75.9797 123.859Z" fill="#B5CDFB"/>
<path d="M195.587 128.732H164.125C164.018 128.732 163.931 128.645 163.931 128.538C163.931 128.43 164.018 128.343 164.125 128.343H195.587C195.694 128.343 195.782 128.43 195.782 128.538C195.782 128.645 195.694 128.732 195.587 128.732Z" fill="#333333"/>
<path d="M156.182 128.732H4.31905C4.21145 128.732 4.12415 128.645 4.12415 128.538C4.12415 128.43 4.21145 128.343 4.31905 128.343H156.182C156.289 128.343 156.377 128.43 156.377 128.538C156.377 128.645 156.289 128.732 156.182 128.732Z" fill="#333333"/>
<g opacity="0.59">
<path opacity="0.59" d="M167.391 29.0055H49.408C47.0397 29.0055 45.12 27.0857 45.12 24.7176V24.7176C45.12 22.3494 47.0397 20.4297 49.408 20.4297H167.391C169.759 20.4297 171.679 22.3494 171.679 24.7176V24.7176C171.679 27.0857 169.759 29.0055 167.391 29.0055Z" fill="#B5CDFB"/>
</g>
<path d="M186.231 31.3443C189.82 31.3443 192.728 28.4355 192.728 24.8475C192.728 21.2593 189.82 18.3506 186.231 18.3506C182.643 18.3506 179.735 21.2593 179.735 24.8475C179.735 28.4355 182.643 31.3443 186.231 31.3443Z" fill="#2249B3"/>
<path d="M57.3334 31.0507C54.6294 31.0507 52.4294 28.8507 52.4294 26.1467C52.4294 23.4428 54.6294 21.2429 57.3334 21.2429C60.0372 21.2429 62.2372 23.4428 62.2372 26.1467C62.2372 28.8507 60.0372 31.0507 57.3334 31.0507ZM57.3334 21.4353C54.7354 21.4353 52.6219 23.5488 52.6219 26.1467C52.6219 28.7447 54.7354 30.8582 57.3334 30.8582C59.9314 30.8582 62.0449 28.7447 62.0449 26.1467C62.0449 23.5488 59.9314 21.4353 57.3334 21.4353Z" fill="#333333"/>
<path d="M123.861 66.6873H119.184V96.5728H123.861V66.6873Z" fill="#75E0E6"/>
<path d="M133.737 53.6935H129.059V96.5727H133.737V53.6935Z" fill="#75E0E6"/>
<path d="M135.036 95.7932H130.098V52.654H135.036V95.7932ZM130.358 95.5332H134.776V52.914H130.358V95.5332Z" fill="#333333"/>
<path d="M143.612 68.766H138.934V96.5727H143.612V68.766Z" fill="#75E0E6"/>
<path d="M153.487 85.1385H148.809V96.573H153.487V85.1385Z" fill="#75E0E6"/>
<path d="M154.656 95.6632H149.719V83.969H154.656V95.6632ZM149.979 95.4035H154.396V84.2287H149.979V95.4035Z" fill="#333333"/>
<path d="M114.14 102.03H111.51C108.343 102.03 105.776 99.463 105.776 96.296V51.3715C105.776 48.2048 108.343 45.6375 111.51 45.6375H114.14V102.03Z" fill="#B5CDFB"/>
<path d="M111.257 104.369C111.185 104.369 111.127 104.311 111.127 104.239V52.2643C111.127 52.1925 111.185 52.1343 111.257 52.1343C111.329 52.1343 111.387 52.1925 111.387 52.2643V104.239C111.387 104.311 111.329 104.369 111.257 104.369Z" fill="#333333"/>
<path d="M169.209 98.5218H104.589C104.518 98.5218 104.46 98.4638 104.46 98.392C104.46 98.32 104.518 98.262 104.589 98.262H169.209C169.281 98.262 169.339 98.32 169.339 98.392C169.339 98.4638 169.281 98.5218 169.209 98.5218Z" fill="#333333"/>
<path d="M176.616 103.589H164.142V105.148H176.616V103.589Z" fill="#B5CDFB"/>
<path d="M191.148 60.6125H183.871C182.436 60.6125 181.273 59.449 181.273 58.0137C181.273 56.5785 182.436 55.415 183.871 55.415H191.148C192.583 55.415 193.746 56.5785 193.746 58.0137C193.746 59.449 192.583 60.6125 191.148 60.6125Z" fill="#2249B3"/>
<path d="M191.148 59.4432H183.871C182.367 59.4432 181.142 58.219 181.142 56.7145C181.142 55.21 182.367 53.9857 183.871 53.9857H191.148C192.652 53.9857 193.876 55.21 193.876 56.7145C193.876 58.219 192.652 59.4432 191.148 59.4432ZM183.871 54.2457C182.51 54.2457 181.402 55.3532 181.402 56.7145C181.402 58.0757 182.51 59.1832 183.871 59.1832H191.148C192.509 59.1832 193.616 58.0757 193.616 56.7145C193.616 55.3532 192.509 54.2457 191.148 54.2457H183.871Z" fill="#333333"/>
<path d="M193.035 64.5757H181.984C181.52 64.5757 181.142 64.1982 181.142 63.7345V62.9482C181.142 62.4845 181.52 62.107 181.984 62.107H193.035C193.499 62.107 193.876 62.4845 193.876 62.9482V63.7345C193.876 64.1982 193.499 64.5757 193.035 64.5757ZM181.984 62.3667C181.663 62.3667 181.402 62.6277 181.402 62.9482V63.7345C181.402 64.055 181.663 64.3157 181.984 64.3157H193.035C193.356 64.3157 193.616 64.055 193.616 63.7345V62.9482C193.616 62.6277 193.356 62.3667 193.035 62.3667H181.984Z" fill="#333333"/>
<path d="M193.035 68.214H181.984C181.52 68.214 181.142 67.8365 181.142 67.3727V66.5865C181.142 66.1225 181.52 65.745 181.984 65.745H193.035C193.499 65.745 193.876 66.1225 193.876 66.5865V67.3727C193.876 67.8365 193.499 68.214 193.035 68.214ZM181.984 66.005C181.663 66.005 181.402 66.266 181.402 66.5865V67.3727C181.402 67.6932 181.663 67.954 181.984 67.954H193.035C193.356 67.954 193.616 67.6932 193.616 67.3727V66.5865C193.616 66.266 193.356 66.005 193.035 66.005H181.984Z" fill="#333333"/>
<path d="M174.735 69.1887H163.684C163.291 69.1887 162.973 68.8702 162.973 68.4772V67.691C162.973 67.2982 163.291 66.9797 163.684 66.9797H174.735C175.128 66.9797 175.447 67.2982 175.447 67.691V68.4772C175.447 68.8702 175.128 69.1887 174.735 69.1887Z" fill="#75E0E6"/>
<path d="M104.345 111.711H93.2938C92.901 111.711 92.5825 111.392 92.5825 110.999V110.213C92.5825 109.82 92.901 109.502 93.2938 109.502H104.345C104.738 109.502 105.057 109.82 105.057 110.213V110.999C105.057 111.392 104.738 111.711 104.345 111.711Z" fill="#B5CDFB"/>
<path d="M193.035 71.8522H181.984C181.52 71.8522 181.142 71.475 181.142 71.011V70.225C181.142 69.761 181.52 69.3835 181.984 69.3835H193.035C193.499 69.3835 193.876 69.761 193.876 70.225V71.011C193.876 71.475 193.499 71.8522 193.035 71.8522ZM181.984 69.6435C181.663 69.6435 181.402 69.9042 181.402 70.225V71.011C181.402 71.3317 181.663 71.5925 181.984 71.5925H193.035C193.356 71.5925 193.616 71.3317 193.616 71.011V70.225C193.616 69.9042 193.356 69.6435 193.035 69.6435H181.984Z" fill="#333333"/>
<g opacity="0.59">
<path opacity="0.59" d="M62.4015 33.6833H53.046C52.8308 33.6833 52.656 33.5088 52.656 33.2935C52.656 33.078 52.8308 32.9035 53.046 32.9035H62.4015C62.6168 32.9035 62.7913 33.078 62.7913 33.2935C62.7913 33.5088 62.6168 33.6833 62.4015 33.6833Z" fill="#333333"/>
</g>
<path d="M8.40741 31.6723C8.34181 31.6723 8.28558 31.6228 8.27836 31.5563C8.27061 31.485 8.32226 31.4208 8.39358 31.413L57.3128 26.1305C57.3848 26.1233 57.4481 26.1745 57.4558 26.2458C57.4636 26.317 57.4121 26.3813 57.3406 26.389L8.42148 31.6715C8.41678 31.672 8.41196 31.6723 8.40741 31.6723Z" fill="#333333"/>
<path d="M40.4443 52.4985C40.4093 52.4985 40.3743 52.4845 40.3488 52.4565L6.55173 15.6746C6.50313 15.6217 6.50668 15.5396 6.55945 15.491C6.61238 15.4427 6.69448 15.4458 6.74308 15.4988L40.5401 52.2805C40.5886 52.3335 40.5851 52.4155 40.5323 52.4642C40.5073 52.4872 40.4758 52.4985 40.4443 52.4985Z" fill="#333333"/>
<path d="M40.5655 56.4852C42.8477 56.4852 44.698 54.635 44.698 52.3527C44.698 50.0702 42.8477 48.22 40.5655 48.22C38.283 48.22 36.4327 50.0702 36.4327 52.3527C36.4327 54.635 38.283 56.4852 40.5655 56.4852Z" fill="#B5CDFB"/>
<path d="M6.87283 18.5521C8.16608 18.5521 9.21442 17.5037 9.21442 16.2105C9.21442 14.9173 8.16608 13.8689 6.87283 13.8689C5.5796 13.8689 4.53125 14.9173 4.53125 16.2105C4.53125 17.5037 5.5796 18.5521 6.87283 18.5521Z" fill="#B5CDFB"/>
<path d="M10.2007 54.876C10.1811 54.876 10.1612 54.8715 10.1424 54.862C10.0783 54.8297 10.0525 54.7515 10.0849 54.6875L31.5087 12.2215C31.541 12.1575 31.6192 12.1318 31.6832 12.1641C31.7472 12.1964 31.773 12.2744 31.7407 12.3385L10.3168 54.8045C10.294 54.8497 10.2482 54.876 10.2007 54.876Z" fill="#333333"/>
<path d="M27.999 36.2623L31.4242 28.9198L26.778 22.2822L18.7066 22.9872L15.2815 30.3298L19.9277 36.9673L27.999 36.2623Z" fill="#2249B3"/>
<path d="M11.3475 58.4357L13.6545 53.49L8.70881 51.183L6.40173 56.1287L11.3475 58.4357Z" fill="#75E0E6"/>
<path d="M31.6242 15.0119C33.3465 15.0119 34.7427 13.6157 34.7427 11.8934C34.7427 10.1711 33.3465 8.7749 31.6242 8.7749C29.902 8.7749 28.5057 10.1711 28.5057 11.8934C28.5057 13.6157 29.902 15.0119 31.6242 15.0119Z" fill="#75E0E6"/>
<path d="M57.3262 27.8193C58.1875 27.8193 58.8855 27.121 58.8855 26.26C58.8855 25.3988 58.1875 24.7007 57.3262 24.7007C56.465 24.7007 55.767 25.3988 55.767 26.26C55.767 27.121 56.465 27.8193 57.3262 27.8193Z" fill="#333333"/>
<path d="M8.40727 33.1015C9.26842 33.1015 9.96652 32.4032 9.96652 31.5422C9.96652 30.681 9.26842 29.983 8.40727 29.983C7.54612 29.983 6.84802 30.681 6.84802 31.5422C6.84802 32.4032 7.54612 33.1015 8.40727 33.1015Z" fill="#333333"/>
<path d="M20.1791 40.1175L15.4469 33.357L18.9354 25.8785L27.1563 25.1605L31.8885 31.9208L28.3998 39.3995L20.1791 40.1175ZM15.7458 33.3308L20.306 39.8455L28.2278 39.1535L31.5896 31.947L27.0293 25.4325L19.1075 26.1245L15.7458 33.3308ZM28.3138 39.2765H28.3163H28.3138Z" fill="#333333"/>
<path d="M161.804 103.589H118.405V105.148H161.804V103.589Z" fill="#B5CDFB"/>
<path d="M164.792 106.708H131.398V108.267H164.792V106.708Z" fill="#B5CDFB"/>
<path d="M164.141 109.826H143.335V111.386H164.141V109.826Z" fill="#B5CDFB"/>
<path d="M141.273 109.826H120.466V111.386H141.273V109.826Z" fill="#B5CDFB"/>
<path d="M184.915 109.826H166.724V111.386H184.915V109.826Z" fill="#B5CDFB"/>
<path d="M197.5 112.945H125.551V114.504H197.5V112.945Z" fill="#B5CDFB"/>
<path d="M189.936 106.708H167.131V108.267H189.936V106.708Z" fill="#B5CDFB"/>
<path opacity="0.28" d="M153.488 116.063H118.405V117.622H153.488V116.063Z" fill="#333333"/>
<path opacity="0.28" d="M182.853 116.063H170.379V117.622H182.853V116.063Z" fill="#333333"/>
<path opacity="0.28" d="M168.56 116.063H156.086V117.622H168.56V116.063Z" fill="#333333"/>
<path d="M178.046 39.0105C179.194 39.0105 180.125 38.0797 180.125 36.9315C180.125 35.7832 179.194 34.8525 178.046 34.8525C176.898 34.8525 175.967 35.7832 175.967 36.9315C175.967 38.0797 176.898 39.0105 178.046 39.0105Z" fill="#333333"/>
<path d="M141.274 72.7943C141.848 72.7943 142.313 72.329 142.313 71.7548C142.313 71.1808 141.848 70.7153 141.274 70.7153C140.699 70.7153 140.234 71.1808 140.234 71.7548C140.234 72.329 140.699 72.7943 141.274 72.7943Z" fill="#B5CDFB"/>
<path d="M141.273 73.2733C140.436 73.2733 139.754 72.592 139.754 71.7548C139.754 70.9173 140.436 70.236 141.273 70.236C142.11 70.236 142.792 70.9173 142.792 71.7548C142.792 72.592 142.11 73.2733 141.273 73.2733ZM141.273 70.4148C140.534 70.4148 139.933 71.0158 139.933 71.7548C139.933 72.4935 140.534 73.0948 141.273 73.0948C142.012 73.0948 142.613 72.4935 142.613 71.7548C142.613 71.0158 142.012 70.4148 141.273 70.4148Z" fill="#333333"/>
<path d="M167.638 71.8848H166.729C166.657 71.8848 166.599 71.8265 166.599 71.7548C166.599 71.6828 166.657 71.6248 166.729 71.6248H167.638C167.71 71.6248 167.768 71.6828 167.768 71.7548C167.768 71.8265 167.71 71.8848 167.638 71.8848Z" fill="#333333"/>
<path d="M164.85 71.8848H162.972C162.9 71.8848 162.842 71.8265 162.842 71.7548C162.842 71.6828 162.9 71.6248 162.972 71.6248H164.85C164.922 71.6248 164.98 71.6828 164.98 71.7548C164.98 71.8265 164.922 71.8848 164.85 71.8848ZM161.094 71.8848H159.216C159.144 71.8848 159.086 71.8265 159.086 71.7548C159.086 71.6828 159.144 71.6248 159.216 71.6248H161.094C161.166 71.6248 161.224 71.6828 161.224 71.7548C161.224 71.8265 161.166 71.8848 161.094 71.8848ZM157.338 71.8848H155.46C155.388 71.8848 155.33 71.8265 155.33 71.7548C155.33 71.6828 155.388 71.6248 155.46 71.6248H157.338C157.41 71.6248 157.468 71.6828 157.468 71.7548C157.468 71.8265 157.41 71.8848 157.338 71.8848ZM153.582 71.8848H151.703C151.632 71.8848 151.573 71.8265 151.573 71.7548C151.573 71.6828 151.632 71.6248 151.703 71.6248H153.582C153.653 71.6248 153.711 71.6828 153.711 71.7548C153.711 71.8265 153.653 71.8848 153.582 71.8848ZM149.825 71.8848H147.947C147.875 71.8848 147.817 71.8265 147.817 71.7548C147.817 71.6828 147.875 71.6248 147.947 71.6248H149.825C149.897 71.6248 149.955 71.6828 149.955 71.7548C149.955 71.8265 149.897 71.8848 149.825 71.8848ZM146.069 71.8848H144.191C144.119 71.8848 144.061 71.8265 144.061 71.7548C144.061 71.6828 144.119 71.6248 144.191 71.6248H146.069C146.141 71.6248 146.199 71.6828 146.199 71.7548C146.199 71.8265 146.141 71.8848 146.069 71.8848Z" fill="#333333"/>
<path d="M142.312 71.8848H141.403C141.331 71.8848 141.273 71.8265 141.273 71.7548C141.273 71.6828 141.331 71.6248 141.403 71.6248H142.312C142.384 71.6248 142.442 71.6828 142.442 71.7548C142.442 71.8265 142.384 71.8848 142.312 71.8848Z" fill="#333333"/>
<path d="M177.526 71.8847H167.638C167.566 71.8847 167.508 71.8265 167.508 71.7547C167.508 71.683 167.566 71.6247 167.638 71.6247H177.526C177.741 71.6247 177.915 71.45 177.915 71.235V55.1362C177.915 55.0645 177.974 55.0062 178.045 55.0062C178.117 55.0062 178.175 55.0645 178.175 55.1362V71.235C178.175 71.5932 177.884 71.8847 177.526 71.8847Z" fill="#333333"/>
<path d="M178.045 38.491C177.973 38.491 177.915 38.4327 177.915 38.361V37.4515C177.915 37.3797 177.973 37.3215 178.045 37.3215C178.116 37.3215 178.175 37.3797 178.175 37.4515V38.361C178.175 38.4327 178.116 38.491 178.045 38.491Z" fill="#333333"/>
<path d="M178.045 52.594C177.973 52.594 177.915 52.536 177.915 52.4643V50.7013C177.915 50.6295 177.973 50.5713 178.045 50.5713C178.116 50.5713 178.175 50.6295 178.175 50.7013V52.4643C178.175 52.536 178.116 52.594 178.045 52.594ZM178.045 49.0683C177.973 49.0683 177.915 49.0103 177.915 48.9383V47.1755C177.915 47.1038 177.973 47.0458 178.045 47.0458C178.116 47.0458 178.175 47.1038 178.175 47.1755V48.9383C178.175 49.0103 178.116 49.0683 178.045 49.0683ZM178.045 45.5425C177.973 45.5425 177.915 45.4845 177.915 45.4128V43.6498C177.915 43.578 177.973 43.5198 178.045 43.5198C178.116 43.5198 178.175 43.578 178.175 43.6498V45.4128C178.175 45.4845 178.116 45.5425 178.045 45.5425ZM178.045 42.017C177.973 42.017 177.915 41.9588 177.915 41.887V40.124C177.915 40.0523 177.973 39.9943 178.045 39.9943C178.116 39.9943 178.175 40.0523 178.175 40.124V41.887C178.175 41.9588 178.116 42.017 178.045 42.017Z" fill="#333333"/>
<path d="M178.045 55.2662C177.973 55.2662 177.915 55.2082 177.915 55.1365V54.2267C177.915 54.155 177.973 54.097 178.045 54.097C178.116 54.097 178.175 54.155 178.175 54.2267V55.1365C178.175 55.2082 178.116 55.2662 178.045 55.2662Z" fill="#333333"/>
<path d="M53.9215 51.5395H46.582C46.4385 51.5395 46.322 51.4233 46.322 51.2798C46.322 51.1363 46.4385 51.0198 46.582 51.0198H53.9215C54.065 51.0198 54.1815 51.1363 54.1815 51.2798C54.1815 51.4233 54.065 51.5395 53.9215 51.5395Z" fill="#333333"/>
<path d="M53.9215 53.0442H46.5818C46.4383 53.0442 46.322 52.9277 46.322 52.7842C46.322 52.6407 46.4383 52.5245 46.5818 52.5245H53.9215C54.065 52.5245 54.1813 52.6407 54.1813 52.7842C54.1813 52.9277 54.065 53.0442 53.9215 53.0442Z" fill="#333333"/>
<path d="M53.9215 54.5485H46.5818C46.4383 54.5485 46.322 54.4322 46.322 54.2887C46.322 54.1452 46.4383 54.0287 46.5818 54.0287H53.9215C54.065 54.0287 54.1813 54.1452 54.1813 54.2887C54.1813 54.4322 54.065 54.5485 53.9215 54.5485Z" fill="#333333"/>
<path d="M131.398 43.6255C132.044 43.6255 132.568 43.102 132.568 42.456C132.568 41.8103 132.044 41.2865 131.398 41.2865C130.752 41.2865 130.229 41.8103 130.229 42.456C130.229 43.102 130.752 43.6255 131.398 43.6255Z" fill="#2249B3"/>
<path d="M131.398 48.329C132.283 48.329 133 47.6118 133 46.7268C133 45.842 132.283 45.1245 131.398 45.1245C130.513 45.1245 129.795 45.842 129.795 46.7268C129.795 47.6118 130.513 48.329 131.398 48.329Z" fill="#B5CDFB"/>
<path d="M131.398 39.9173C130.442 39.9173 129.665 39.14 129.665 38.1848C129.665 37.2298 130.442 36.4528 131.398 36.4528C132.353 36.4528 133.13 37.2298 133.13 38.1848C133.13 39.14 132.353 39.9173 131.398 39.9173ZM131.398 36.7125C130.586 36.7125 129.925 37.373 129.925 38.1848C129.925 38.9968 130.586 39.6573 131.398 39.6573C132.209 39.6573 132.87 38.9968 132.87 38.1848C132.87 37.373 132.209 36.7125 131.398 36.7125Z" fill="#333333"/>
<path d="M121.522 65.0165C121.45 65.0165 121.392 64.9585 121.392 64.8867V63.977C121.392 63.9052 121.45 63.8472 121.522 63.8472C121.594 63.8472 121.652 63.9052 121.652 63.977V64.8867C121.652 64.9585 121.594 65.0165 121.522 65.0165Z" fill="#333333"/>
<path d="M121.522 62.2352C121.45 62.2352 121.392 62.1772 121.392 62.1052V60.2337C121.392 60.162 121.45 60.1037 121.522 60.1037C121.594 60.1037 121.652 60.162 121.652 60.2337V62.1052C121.652 62.1772 121.594 62.2352 121.522 62.2352ZM121.522 58.492C121.45 58.492 121.392 58.4337 121.392 58.362V56.4902C121.392 56.4185 121.45 56.3602 121.522 56.3602C121.594 56.3602 121.652 56.4185 121.652 56.4902V58.362C121.652 58.4337 121.594 58.492 121.522 58.492ZM121.522 54.7485C121.45 54.7485 121.392 54.6902 121.392 54.6185V52.7467C121.392 52.675 121.45 52.617 121.522 52.617C121.594 52.617 121.652 52.675 121.652 52.7467V54.6185C121.652 54.6902 121.594 54.7485 121.522 54.7485ZM121.522 51.005C121.45 51.005 121.392 50.947 121.392 50.875V49.0035C121.392 48.9315 121.45 48.8735 121.522 48.8735C121.594 48.8735 121.652 48.9315 121.652 49.0035V50.875C121.652 50.947 121.594 51.005 121.522 51.005ZM121.522 47.2615C121.45 47.2615 121.392 47.2035 121.392 47.1317V45.26C121.392 45.1882 121.45 45.13 121.522 45.13C121.594 45.13 121.652 45.1882 121.652 45.26V47.1317C121.652 47.2035 121.594 47.2615 121.522 47.2615ZM121.522 43.5182C121.45 43.5182 121.392 43.46 121.392 43.3882V41.5165C121.392 41.4447 121.45 41.3865 121.522 41.3865C121.594 41.3865 121.652 41.4447 121.652 41.5165V43.3882C121.652 43.46 121.594 43.5182 121.522 43.5182ZM121.522 39.7747C121.45 39.7747 121.392 39.7165 121.392 39.6447V37.773C121.392 37.7012 121.45 37.6432 121.522 37.6432C121.594 37.6432 121.652 37.7012 121.652 37.773V39.6447C121.652 39.7165 121.594 39.7747 121.522 39.7747ZM121.522 36.0315C121.45 36.0315 121.392 35.9732 121.392 35.9015V34.033C121.392 33.9612 121.45 33.9015 121.522 33.9015C121.594 33.9015 121.652 33.9577 121.652 34.0297V35.9015C121.652 35.9732 121.594 36.0315 121.522 36.0315ZM131.397 34.9272C131.325 34.9272 131.267 34.869 131.267 34.7972V34.033C131.267 33.818 131.092 33.6432 130.877 33.6432H130.587C130.515 33.6432 130.457 33.585 130.457 33.5132C130.457 33.4415 130.515 33.3832 130.587 33.3832H130.877C131.236 33.3832 131.527 33.6747 131.527 34.033V34.7972C131.527 34.869 131.469 34.9272 131.397 34.9272ZM128.715 33.6432H126.843C126.772 33.6432 126.714 33.585 126.714 33.5132C126.714 33.4415 126.772 33.3832 126.843 33.3832H128.715C128.787 33.3832 128.845 33.4415 128.845 33.5132C128.845 33.585 128.787 33.6432 128.715 33.6432ZM124.972 33.6432H123.1C123.028 33.6432 122.97 33.585 122.97 33.5132C122.97 33.4415 123.028 33.3832 123.1 33.3832H124.972C125.044 33.3832 125.102 33.4415 125.102 33.5132C125.102 33.585 125.044 33.6432 124.972 33.6432Z" fill="#333333"/>
<path d="M131.398 37.7117C131.326 37.7117 131.268 37.6535 131.268 37.5817V36.6722C131.268 36.6002 131.326 36.5422 131.398 36.5422C131.47 36.5422 131.528 36.6002 131.528 36.6722V37.5817C131.528 37.6535 131.47 37.7117 131.398 37.7117Z" fill="#333333"/>
<path d="M194.353 141.225H5.76426C5.08308 141.225 4.53088 140.673 4.53088 139.992V133.28C4.53088 132.599 5.08308 132.047 5.76426 132.047H194.353C195.034 132.047 195.587 132.599 195.587 133.28V139.992C195.587 140.673 195.034 141.225 194.353 141.225Z" fill="#75E0E6"/>
<path d="M79.8845 83.642C79.8428 83.642 79.8008 83.6285 79.7653 83.601L73.1468 78.465C73.0618 78.399 73.0463 78.2768 73.1125 78.1918C73.1783 78.1065 73.3008 78.0913 73.3858 78.157L80.0043 83.293C80.0893 83.359 80.1048 83.4815 80.0388 83.5665C80.0003 83.616 79.9428 83.642 79.8845 83.642Z" fill="#333333"/>
<path d="M74.749 83.642C74.7098 83.642 74.6703 83.6303 74.636 83.6058C74.5483 83.5435 74.5278 83.4218 74.5903 83.334L78.2435 78.1983C78.306 78.1105 78.4275 78.0898 78.5153 78.1523C78.603 78.2148 78.6235 78.3365 78.561 78.424L74.908 83.56C74.8698 83.6132 74.8098 83.642 74.749 83.642Z" fill="#333333"/>
<path d="M197.056 86.8617C197.014 86.8617 196.972 86.8485 196.936 86.821L190.318 81.685C190.233 81.619 190.217 81.4967 190.283 81.4115C190.349 81.3265 190.472 81.311 190.557 81.377L197.175 86.513C197.26 86.579 197.276 86.7012 197.21 86.7865C197.171 86.836 197.114 86.8617 197.056 86.8617Z" fill="#333333"/>
<path d="M191.92 86.8618C191.881 86.8618 191.841 86.8503 191.807 86.8258C191.719 86.7635 191.699 86.6418 191.761 86.554L195.414 81.4183C195.477 81.3305 195.599 81.3098 195.686 81.3723C195.774 81.4348 195.795 81.5565 195.732 81.644L192.079 86.78C192.041 86.8333 191.981 86.8618 191.92 86.8618Z" fill="#333333"/>
<path d="M87.5165 44.0492C87.4747 44.0492 87.4327 44.036 87.3972 44.0085L80.7787 38.8725C80.6937 38.8065 80.6782 38.6842 80.7445 38.599C80.8102 38.514 80.9327 38.4985 81.0177 38.5645L87.6362 43.7005C87.7212 43.7665 87.7367 43.8887 87.6707 43.974C87.6322 44.0235 87.5747 44.0492 87.5165 44.0492Z" fill="#333333"/>
<path d="M82.3805 44.0492C82.3415 44.0492 82.302 44.0377 82.2678 44.0132C82.18 43.9507 82.1595 43.8292 82.2218 43.7415L85.875 38.6057C85.9375 38.518 86.0593 38.4972 86.1468 38.5597C86.2348 38.6222 86.255 38.744 86.1928 38.8315L82.5395 43.9672C82.5015 44.0207 82.4415 44.0492 82.3805 44.0492Z" fill="#333333"/>
<path d="M141.558 14.6314C141.517 14.6314 141.474 14.6181 141.439 14.5905L134.82 9.4546C134.735 9.3886 134.72 9.26627 134.786 9.18115C134.852 9.09612 134.975 9.08065 135.06 9.14662L141.678 14.2826C141.763 14.3485 141.778 14.4709 141.712 14.556C141.674 14.6055 141.616 14.6314 141.558 14.6314Z" fill="#333333"/>
<path d="M136.423 14.6314C136.383 14.6314 136.344 14.6197 136.31 14.5953C136.222 14.5329 136.202 14.4112 136.264 14.3235L139.917 9.18772C139.98 9.10005 140.101 9.07935 140.189 9.1418C140.277 9.20422 140.297 9.3259 140.235 9.4136L136.582 14.5494C136.543 14.6028 136.483 14.6314 136.423 14.6314Z" fill="#333333"/>
<g opacity="0.7">
<path opacity="0.1" d="M31.8422 49.255L35.2232 42.007L34.1032 40.4088L34.5347 39.4838C34.2747 39.5668 34.015 39.6553 33.7525 39.7435C33.5315 39.8188 33.3107 39.8943 33.0872 39.9748C32.6765 40.1203 32.2635 40.271 31.8502 40.427C31.6942 40.4868 31.5382 40.5465 31.3822 40.609C31.029 40.7468 30.6755 40.887 30.3195 41.0325C30.1427 41.1053 29.966 41.1805 29.7892 41.256C29.61 41.3313 29.4332 41.4068 29.2565 41.4848C28.7265 41.716 28.1937 41.9578 27.6635 42.207C27.1335 42.4593 26.606 42.7165 26.081 42.9868L26.0782 42.9843C25.9977 43.0233 25.9172 43.0648 25.8392 43.1063C24.8413 43.6235 23.8564 44.1718 22.8897 44.7565C22.6168 44.9203 22.3283 45.097 22.0243 45.284L23.2613 47.0538L29.0045 46.5523L31.4812 49.247L23.6408 49.9333L20.886 45.9988C20.8133 46.0428 20.7405 46.0898 20.6677 46.139L23.5133 50.2035L31.7045 49.4888L36.9645 55.2138C37.014 55.141 37.0632 55.0658 37.1125 54.993L31.8422 49.255ZM31.65 49.047L29.332 46.5235L31.333 46.3495L33.976 40.6818L34.9245 42.033L31.65 49.047Z" fill="#333333"/>
</g>
<path d="M24.7063 79.9447C24.161 79.9447 23.6533 79.5987 23.4729 79.0527L22.6887 76.681C22.4709 76.0222 22.5836 75.2935 22.9898 74.7312C23.3961 74.1692 24.0526 73.8337 24.7461 73.8337H27.3757C28.0935 73.8337 28.6752 74.4155 28.6752 75.133C28.6752 75.8507 28.0935 76.4325 27.3757 76.4325H25.3435L25.9402 78.2372C26.1655 78.9185 25.7957 79.6535 25.1145 79.8785C24.9791 79.9235 24.8415 79.9447 24.7063 79.9447Z" fill="white"/>
<path d="M62.2497 116.215C62.708 115.693 62.5117 114.772 61.8115 114.156C61.111 113.541 60.172 113.464 59.7137 113.986C59.2555 114.507 59.4517 115.429 60.152 116.044C60.8522 116.66 61.7915 116.736 62.2497 116.215Z" fill="#B5CDFB"/>
<g opacity="0.25">
<path opacity="0.25" d="M66.7709 116.185C67.2292 115.663 67.0329 114.742 66.3327 114.126C65.6322 113.511 64.6932 113.434 64.2349 113.956C63.7767 114.477 63.9729 115.399 64.6732 116.014C65.3734 116.63 66.3127 116.706 66.7709 116.185Z" fill="#B5CDFB"/>
</g>
<g opacity="0.68">
<path opacity="0.68" d="M71.2928 116.155C71.751 115.634 71.5548 114.712 70.8545 114.096C70.154 113.481 69.215 113.405 68.7568 113.926C68.2985 114.447 68.4948 115.369 69.195 115.984C69.8953 116.6 70.8345 116.676 71.2928 116.155Z" fill="#B5CDFB"/>
</g>
</svg>
