<svg width="200" height="150" viewBox="0 0 200 150" fill="none" xmlns="http://www.w3.org/2000/svg">
<path opacity="0.4" d="M181.717 127.228C177.984 131.4 89.8925 129.457 75.1975 129.638C37.7472 106.572 34.715 70.7543 42.4642 51.0055C45.963 42.09 55.8892 32.6042 67.7332 30.6087C82.2727 28.1465 95.0757 38.4358 100.881 43.1268C118.816 57.5885 118.686 72.6463 128.69 73.4755C139.679 74.3828 143.463 54.893 159.221 53.8823C168.965 53.2603 175.911 60.1023 176.766 60.9575C184.904 69.2253 185.786 83.1945 180.369 91.3065C175.056 99.263 164.637 100.17 165.026 103.229C165.363 106.131 176.3 104.265 181.483 110.874C184.93 115.358 185.267 123.288 181.717 127.228Z" fill="#B5CDFB"/>
<path opacity="0.5" d="M145.147 72.6202L127.886 66.9962L128.12 82.8575L145.38 88.4815L145.147 72.6202Z" fill="#FEEFF0"/>
<path d="M179.954 122.303L178.451 20.5527C178.451 20.2935 178.27 20.0084 178.062 19.9307L138.046 6.94622C137.839 6.86847 137.657 7.02397 137.657 7.30905L137.968 29.3645L164.844 38.306C165.052 38.3837 165.207 38.6427 165.207 38.902L166.451 122.692L179.617 127.02C179.825 127.098 180.006 126.942 180.006 126.657L179.954 122.303Z" fill="#2249B3"/>
<path d="M137.424 49.9943V50.2275L137.45 50.2535C137.502 50.3313 137.502 50.4607 137.45 50.5127L136.958 51.005C137.062 51.1605 137.191 51.2643 137.347 51.316C137.658 51.4198 137.891 51.1865 137.891 50.8237C137.917 50.4607 137.709 50.124 137.424 49.9943ZM137.295 49.9425C137.036 49.8907 136.828 50.124 136.828 50.4607C136.828 50.5127 136.828 50.5645 136.854 50.6422L137.269 50.2018L137.295 50.1757V49.9425Z" fill="#75E0E6"/>
<path d="M137.191 39.6278C137.113 39.6018 137.061 39.6535 137.061 39.7573L137.087 41.105C137.087 41.2088 137.165 41.2865 137.243 41.3122C137.321 41.3382 137.372 41.2865 137.372 41.1828L137.346 39.835C137.346 39.7573 137.295 39.6535 137.191 39.6278Z" fill="#75E0E6"/>
<path d="M137.502 59.9463C137.424 59.9205 137.372 59.9723 137.372 60.076L137.398 61.4235C137.398 61.5273 137.476 61.605 137.554 61.631C137.631 61.6568 137.683 61.605 137.683 61.5013L137.657 60.1538C137.657 60.076 137.58 59.9723 137.502 59.9463Z" fill="#75E0E6"/>
<path d="M143.463 44.915C143.437 44.915 143.437 44.915 143.411 44.915L142.659 45.6147C142.633 45.6407 142.633 45.6925 142.659 45.7445C142.685 45.7702 142.685 45.7702 142.711 45.7962C142.737 45.7962 142.737 45.7962 142.763 45.7962L143.514 45.0965C143.54 45.0705 143.54 45.0188 143.514 44.9668C143.488 44.941 143.488 44.915 143.463 44.915Z" fill="#75E0E6"/>
<path d="M132.033 55.4893C132.008 55.4893 132.008 55.4893 131.982 55.4893L131.23 56.189C131.204 56.215 131.204 56.2668 131.23 56.3185C131.256 56.3445 131.256 56.3445 131.282 56.3705C131.308 56.3705 131.308 56.3705 131.334 56.3705L132.085 55.6707C132.111 55.6447 132.111 55.593 132.085 55.541C132.059 55.5153 132.033 55.4893 132.033 55.4893Z" fill="#75E0E6"/>
<path d="M142.893 59.0135C142.867 59.0135 142.867 59.0135 142.841 59.0135C142.815 59.0393 142.815 59.0913 142.841 59.143L143.619 60.3353C143.645 60.361 143.645 60.361 143.671 60.387C143.697 60.387 143.697 60.387 143.722 60.387C143.748 60.361 143.748 60.3092 143.722 60.2575L142.945 59.0653C142.945 59.0393 142.919 59.0393 142.893 59.0135Z" fill="#75E0E6"/>
<path d="M131.048 40.8715C131.022 40.8715 131.022 40.8715 130.996 40.8715C130.97 40.8975 130.97 40.9493 130.996 41.0013L131.774 42.1932C131.8 42.2192 131.8 42.2193 131.825 42.2453C131.851 42.2453 131.852 42.2453 131.878 42.2453C131.903 42.2193 131.903 42.1675 131.878 42.1155L131.1 40.9235C131.074 40.8975 131.048 40.8715 131.048 40.8715Z" fill="#75E0E6"/>
<path d="M146.133 53.3115L145.044 52.9487C144.966 52.9227 144.914 52.9747 144.914 53.0782C144.914 53.182 144.992 53.2857 145.07 53.3115L146.158 53.6745C146.236 53.7002 146.288 53.6485 146.288 53.5447C146.288 53.4412 146.21 53.3375 146.133 53.3115Z" fill="#75E0E6"/>
<path d="M129.623 47.9733L128.638 47.6623C128.56 47.6363 128.509 47.6883 128.509 47.766C128.509 47.8438 128.56 47.9473 128.638 47.9733L129.623 48.2842C129.701 48.3102 129.753 48.2583 129.753 48.1805C129.753 48.077 129.675 47.9733 129.623 47.9733Z" fill="#75E0E6"/>
<path d="M137.242 42.8932C137.19 42.8932 137.164 42.9193 137.164 42.9453L137.268 49.9168V50.15C137.294 50.15 137.32 50.15 137.346 50.15C137.372 50.15 137.398 50.176 137.424 50.202V49.9688L137.32 42.997C137.32 42.9453 137.294 42.8932 137.242 42.8932Z" fill="#75E0E6"/>
<path d="M137.346 50.1763C137.32 50.1763 137.294 50.1763 137.268 50.1763C137.268 50.1763 137.242 50.1763 137.242 50.2023L136.827 50.6427L133.251 54.2713C133.199 54.323 133.199 54.4268 133.251 54.5303C133.277 54.5823 133.303 54.608 133.355 54.608C133.381 54.608 133.432 54.608 133.458 54.5822L136.983 51.0055L137.475 50.5132C137.527 50.4612 137.527 50.3578 137.475 50.254L137.45 50.228C137.398 50.2023 137.372 50.1763 137.346 50.1763Z" fill="#75E0E6"/>
<path d="M163.497 113.517L128.405 102.114L128.535 111.029V110.692L163.627 122.096L163.497 113.517Z" fill="#75E0E6"/>
<path d="M157.043 45.044L150.227 42.8153L150.253 44.7072L157.069 46.936L157.043 45.044Z" fill="#75E0E6"/>
<path d="M162.693 58.5732L156.551 56.5778L156.655 62.746L162.797 64.7415L162.693 58.5732Z" fill="#75E0E6"/>
<path d="M135.117 72.4913C132.629 71.6878 130.659 73.502 130.685 76.586C130.737 79.6443 132.785 82.8062 135.273 83.6095C137.761 84.413 139.73 82.5988 139.705 79.5148C139.679 76.4565 137.605 73.3205 135.117 72.4913Z" fill="#B5CDFB"/>
<path d="M98.7555 112.61C96.9932 113.595 94.9197 113.906 92.9502 115.539C92.095 116.265 91.2395 117.25 90.462 118.675C90.462 118.675 88.4405 121.293 85.6155 124.74C85.6155 124.74 85.6155 124.74 85.6155 124.766C80.6135 130.908 73.1755 139.668 70.48 141.042C68.588 142.001 64.1045 140.653 59.7502 138.865C54.4115 136.688 49.228 133.837 49.228 133.837C46.4807 132.67 44.7185 131.53 44.6925 129.897C44.6665 128.42 46.118 126.58 49.6167 123.962C54.6447 120.256 60.191 116.161 64.6227 112.922C64.6487 112.922 64.6487 112.896 64.6487 112.896C68.5622 110.071 71.5945 107.868 72.683 107.194C75.4042 105.483 78.1515 101.103 80.8467 98.3043C81.469 97.6563 82.065 97.112 82.687 96.6715C83.4385 96.1533 84.1902 95.8163 84.9417 95.7903C84.9935 95.7903 85.0455 95.7903 85.0972 95.7903C85.5897 95.8163 86.1857 96.0752 86.8855 96.4642C86.8855 96.4642 86.8855 96.4642 86.9115 96.4642C87.4297 96.7752 87.974 97.164 88.5442 97.6305C88.5442 97.6305 88.5702 97.6563 88.648 97.7083C90.151 98.9263 91.8097 100.637 93.3647 102.451C93.3907 102.477 93.4167 102.503 93.4425 102.529C94.6607 103.954 95.801 105.457 96.76 106.857C96.8635 107.013 96.9412 107.116 96.9672 107.168C97.4337 107.893 97.8745 108.593 98.2112 109.215C99.0925 110.978 99.4035 112.248 98.7555 112.61Z" fill="#75E0E6"/>
<path d="M53.7115 37.7098H20.6673V39.7573H53.7115V37.7098Z" fill="#75E0E6"/>
<path d="M136.75 95.6087L128.275 92.8357L128.379 101.414L136.88 104.188L136.75 95.6087Z" fill="#FAECC1"/>
<path d="M53.7115 41.5457H20.6673V43.593H53.7115V41.5457Z" fill="#75E0E6"/>
<path d="M17.7127 37.7098H13.9288V41.8045H17.7127V37.7098Z" fill="#75E0E6"/>
<path d="M34.8705 60.9837H19.4756V62.3833H34.8705V60.9837Z" fill="#75E0E6"/>
<path d="M48.5028 68.7588H35.8035V79.0478H48.5028V68.7588Z" fill="#75E0E6"/>
<path d="M104.665 21.7455H88.5448C88.3893 21.7455 88.2855 21.6159 88.2855 21.4604V12.3117C88.2855 12.1562 88.415 12.0266 88.5448 12.0266H111.378C111.533 12.0266 111.637 12.1562 111.637 12.3117V21.4863C111.637 21.6418 111.507 21.7714 111.378 21.7714H108.009" fill="#75E0E6"/>
<path d="M186.2 133.551H177.57V135.884H186.2V133.551Z" fill="#75E0E6"/>
<path d="M166.737 139.927L165.233 38.6948C165.233 38.4355 165.052 38.1505 164.845 38.0988L134.392 28.1983L124.829 25.0883C124.621 25.0105 124.44 25.166 124.44 25.4513L125.347 86.3823L125.425 92.1357L125.995 131.089C125.995 131.348 126.176 131.633 126.384 131.711L166.4 144.721C166.607 144.799 166.788 144.644 166.788 144.359L166.737 139.927ZM162.797 64.7415L162.875 70.9098L156.733 68.914L150.59 66.9185L150.513 60.7503L150.435 54.582L156.577 56.5775L162.72 58.5733L162.797 64.7415ZM162.668 56.5518L150.383 52.5605L150.357 50.6685L162.642 54.6598L162.668 56.5518ZM150.331 48.647L150.305 46.755L153.623 47.8435L153.649 49.7355L150.331 48.647ZM157.044 45.0445L157.07 46.9365L150.253 44.7335L150.227 42.8415L157.044 45.0445ZM145.588 33.4078C145.77 33.4595 145.925 33.6928 145.925 33.9C145.925 34.1075 145.796 34.237 145.614 34.1853C145.433 34.1333 145.277 33.9 145.277 33.6928C145.277 33.4855 145.407 33.3558 145.588 33.4078ZM144.137 32.9413C144.318 32.993 144.474 33.2263 144.474 33.4335C144.474 33.6668 144.344 33.7965 144.163 33.7188C143.981 33.6668 143.826 33.4335 143.826 33.2263C143.8 33.019 143.956 32.8893 144.137 32.9413ZM137.191 38.2283C142.737 40.0425 147.325 47.066 147.428 53.8823C147.532 60.7243 143.1 64.8193 137.554 63.005C132.008 61.1908 127.42 54.1673 127.317 47.351C127.213 40.535 131.645 36.44 137.191 38.2283ZM133.122 122.614L131.826 122.2C131.567 122.122 131.36 121.785 131.334 121.474L131.308 119.893C131.308 119.582 131.515 119.375 131.775 119.452L133.07 119.867C133.33 119.945 133.537 120.282 133.563 120.593L133.589 122.174C133.589 122.485 133.381 122.692 133.122 122.614ZM139.99 124.843L138.694 124.428C138.435 124.351 138.228 124.014 138.202 123.703L138.176 122.122C138.176 121.811 138.383 121.604 138.643 121.681L139.938 122.096C140.198 122.174 140.405 122.511 140.431 122.822L140.457 124.402C140.483 124.739 140.249 124.921 139.99 124.843ZM146.884 127.072L145.588 126.657C145.329 126.579 145.122 126.243 145.096 125.932L145.07 124.351C145.07 124.04 145.277 123.832 145.536 123.91L146.832 124.325C147.092 124.403 147.299 124.739 147.325 125.05L147.351 126.632C147.351 126.968 147.143 127.15 146.884 127.072ZM153.752 129.301L152.456 128.886C152.197 128.808 151.99 128.472 151.964 128.161L151.938 126.579C151.938 126.268 152.145 126.061 152.405 126.139L153.7 126.554C153.96 126.631 154.167 126.968 154.193 127.279L154.219 128.86C154.219 129.197 154.011 129.404 153.752 129.301ZM160.646 131.556L159.35 131.141C159.091 131.063 158.884 130.726 158.858 130.415L158.832 128.834C158.832 128.523 159.039 128.316 159.298 128.394L160.594 128.809C160.853 128.886 161.061 129.223 161.061 129.534L161.087 131.115C161.113 131.426 160.905 131.634 160.646 131.556ZM163.497 112.817L164.145 113.025V113.725L163.497 113.518L163.627 122.096L164.275 122.303V123.003L163.627 122.796L163.653 123.832C163.653 124.091 163.497 124.247 163.29 124.169L128.924 112.999C128.716 112.921 128.535 112.662 128.535 112.403L128.379 102.088L127.524 101.803V101.103L128.379 101.388L128.25 92.8098L127.395 92.5245V91.8248L128.25 92.11L128.198 88.948L128.12 83.5313L128.017 83.5055L127.265 83.2723V82.5725L128.12 82.8575L127.887 66.9963L127.032 66.7113V66.0115L127.887 66.2965L127.861 65.1303C127.861 64.871 128.017 64.7155 128.224 64.7933L162.59 75.9635C162.797 76.0413 162.979 76.3005 162.979 76.5598L163.005 77.726L163.653 77.9333V78.633L163.005 78.4258L163.238 94.287L164.819 94.8053V95.505L163.238 94.9867L163.497 112.817Z" fill="#2249B3"/>
<path fill-rule="evenodd" clip-rule="evenodd" d="M46.0403 27.11H20.6674V29.1575H46.0403V27.11ZM137.191 38.5913C131.801 36.829 127.498 40.7943 127.602 47.455C127.706 54.1158 132.138 60.932 137.554 62.6683C142.945 64.4308 147.247 60.4655 147.144 53.8047C147.04 47.17 142.582 40.3538 137.191 38.5913ZM127.317 47.3512C127.213 40.5352 131.645 36.4403 137.191 38.2285C142.738 40.0428 147.325 47.0662 147.429 53.8825C147.532 60.6987 143.101 64.8195 137.554 63.0052C132.008 61.217 127.421 54.1935 127.317 47.3512ZM123.17 94.2087C123.171 94.216 123.173 94.2232 123.174 94.2305C123.176 94.2397 123.178 94.249 123.18 94.2582C123.203 94.2525 123.225 94.246 123.248 94.2347C123.559 94.131 123.792 94.0015 123.922 93.846C125.14 92.4723 128.872 92.239 128.535 94.3903C128.457 94.8308 128.302 95.2712 128.069 95.6602C127.136 97.2152 125.062 98.485 122.807 99.133C121.559 99.4995 120.047 100.327 118.437 101.208C116.405 102.32 114.217 103.517 112.207 103.979C110.523 104.368 108.086 104.342 105.78 103.824L105.779 103.824L105.753 103.824C104.872 103.824 103.965 103.876 103.032 103.979C101.918 104.083 100.777 104.317 99.6888 104.679C98.626 105.042 97.6673 105.82 96.76 106.856C96.7503 106.866 96.744 106.876 96.7388 106.884C96.7303 106.898 96.7243 106.908 96.7083 106.908C96.217 105.181 91.0955 100.072 88.5963 97.7335L88.5965 97.7333C89.0888 97.2928 89.5813 96.8522 90.0735 96.3857C91.0325 95.5047 91.9395 94.5975 92.7688 93.6905C93.1318 93.3017 93.4685 92.887 93.7795 92.4723C94.9718 90.8915 95.9308 89.1032 96.501 87.937C96.9155 87.1335 97.5635 86.4855 98.367 86.0707C99.4448 85.5377 100.49 84.3172 101.595 83.0277C102.907 81.4957 104.302 79.8665 105.935 79.177C106.764 79.0993 107.879 79.2027 109.097 79.3842C109.265 79.4102 109.336 79.5072 109.408 79.6045C109.479 79.7017 109.55 79.799 109.719 79.8248C109.94 79.8618 110.253 79.8402 110.572 79.8187C110.927 79.7947 111.287 79.7703 111.533 79.8248C113.399 80.2135 115.369 80.706 117.001 81.1465L117.019 81.1515C117.42 81.0282 117.869 80.8895 118.35 80.7405L118.35 80.7402C121.337 79.815 125.575 78.5023 127.524 78.192C128.458 78.0435 129.345 77.4427 130.149 76.8972C131.309 76.111 132.299 75.4397 133.019 76.4037C134.237 78.0365 130.453 81.3023 128.224 80.7838C127.187 81.8465 126.125 82.313 124.751 82.5462C124.419 82.847 124.057 83.198 123.672 83.5725C123.276 83.9568 122.855 84.3655 122.416 84.7685C123.152 87.0193 123.156 90.0468 123.159 92.5638C123.159 93.1445 123.16 93.6982 123.17 94.2087ZM119.308 87.885C119.308 87.885 119.749 91.7208 120.215 94.5715C119.549 94.571 118.858 94.545 118.142 94.4938H118.115H118.09C118.112 94.1655 118.133 93.8395 118.152 93.5178L118.153 93.515V93.5143V93.514C118.202 92.7202 118.249 91.9545 118.323 91.2542C118.531 89.0512 119.308 87.885 119.308 87.885ZM20.6674 30.946H46.0403V32.9935H20.6674V30.946ZM32.1753 68.7588H19.4758V91.3842H32.1753V68.7588ZM8.1756 118.727H26.8358V129.016H8.1756V118.727ZM76.5115 45.9515H85.5825V39.887H76.5115V45.9515ZM74.2035 45.9515H65.1325V39.887H74.2035V45.9515ZM65.1453 38.7272H85.5938V37.535H65.1453V38.7272ZM85.5825 50.4637H76.5115V49.2718H85.5825V50.4637ZM65.1325 50.4637H74.2035V49.2718H65.1325V50.4637ZM85.5948 59.956H65.1463V53.8913H85.5948V59.956ZM65.1463 52.7315H85.5948V51.5395H65.1463V52.7315ZM85.5825 48.3955H76.5115V47.7995H85.5825V48.3955ZM65.1325 48.3955H74.2035V47.7995H65.1325V48.3955ZM74.2035 36.5617H65.1325V35.9658H74.2035V36.5617Z" fill="#2249B3"/>
<path fill-rule="evenodd" clip-rule="evenodd" d="M8.39612 98.1097H27.0565V116.77H8.39612V98.1097ZM8.78489 98.4985V116.382H26.6677V98.4985H8.78489Z" fill="#75E0E6"/>
<path fill-rule="evenodd" clip-rule="evenodd" d="M10.5601 52.2365H57.1073V52.6253H10.5601V52.2365Z" fill="#75E0E6"/>
<path d="M6.69836 44.889V18.8423C6.69836 16.7171 8.40889 15.0066 10.5341 15.0066H57.107C59.2322 15.0066 60.9427 16.7171 60.9427 18.8423V44.889" stroke="#161616" stroke-width="0.375" stroke-miterlimit="10" stroke-linecap="round"/>
<path opacity="0.36" d="M173.112 131.245L171.635 29.4942C171.635 29.2352 171.453 28.95 171.246 28.8982L131.204 15.8879C130.997 15.8101 130.815 15.9656 130.815 16.2507L130.971 27.11L165.104 38.5653L166.607 133.266C166.607 133.526 172.775 136.014 172.775 136.014C172.982 136.091 173.164 135.936 173.164 135.651L173.112 131.245Z" fill="#75E0E6"/>
<path d="M137.528 61.6315C137.45 61.6055 137.398 61.5018 137.372 61.424L137.346 60.0763C137.346 59.9728 137.398 59.9208 137.476 59.9468C137.554 59.9728 137.631 60.0763 137.631 60.154L137.657 61.5018C137.657 61.6055 137.605 61.6573 137.528 61.6315ZM131.281 56.3703C131.256 56.3703 131.256 56.3443 131.23 56.3185C131.204 56.2665 131.204 56.2148 131.23 56.1888L131.981 55.489C132.007 55.489 132.007 55.4633 132.033 55.489C132.059 55.489 132.059 55.515 132.085 55.541C132.111 55.5928 132.111 55.6445 132.085 55.6705L131.334 56.3703C131.308 56.3703 131.281 56.3703 131.281 56.3703ZM143.696 60.3873C143.67 60.3873 143.67 60.3615 143.644 60.3355L142.867 59.1433C142.841 59.0915 142.841 59.0398 142.867 59.0138C142.893 59.0138 142.892 58.9878 142.918 59.0138C142.944 59.0138 142.944 59.0398 142.97 59.0655L143.748 60.2578C143.774 60.3095 143.774 60.3615 143.748 60.3873C143.722 60.3873 143.696 60.4133 143.696 60.3873ZM128.586 47.9473C128.508 47.9213 128.457 47.8175 128.431 47.714C128.431 47.6103 128.483 47.5585 128.56 47.5843L129.649 47.9473C129.726 47.973 129.779 48.0768 129.804 48.1545C129.804 48.2583 129.752 48.31 129.675 48.284L128.586 47.9473ZM145.07 53.312C144.992 53.286 144.94 53.1825 144.914 53.0788C144.914 52.975 144.966 52.9233 145.044 52.9493L146.132 53.312C146.21 53.338 146.262 53.4415 146.288 53.5193C146.288 53.623 146.236 53.6748 146.158 53.649L145.07 53.312ZM138.875 51.8088C138.72 51.757 138.616 51.5755 138.59 51.3943V50.6945C138.59 50.513 138.694 50.4093 138.849 50.4613L141.674 51.3683C141.83 51.42 141.934 51.6015 141.96 51.783V52.4828C141.96 52.664 141.856 52.7678 141.7 52.716L138.875 51.8088ZM131.826 42.2455C131.8 42.2455 131.8 42.2195 131.774 42.1935L130.997 41.0015C130.971 40.9495 130.971 40.8978 130.997 40.8718C131.023 40.8718 131.023 40.846 131.048 40.8718C131.074 40.8718 131.074 40.8978 131.1 40.9238L131.878 42.1158C131.904 42.1678 131.904 42.2195 131.878 42.2455C131.852 42.2455 131.852 42.2455 131.826 42.2455ZM137.294 49.9428L137.191 42.971C137.191 42.9193 137.216 42.8933 137.268 42.9193C137.32 42.9193 137.346 42.971 137.346 43.023L137.45 49.9948C137.709 50.1243 137.942 50.487 137.942 50.824C137.942 51.1868 137.709 51.42 137.398 51.3165C137.243 51.2645 137.113 51.161 137.009 51.0055L133.485 54.582C133.459 54.6078 133.407 54.6078 133.381 54.6078C133.355 54.6078 133.303 54.582 133.277 54.53C133.225 54.4523 133.225 54.3228 133.277 54.271L136.854 50.6425C136.854 50.5908 136.828 50.539 136.828 50.4613C136.802 50.0983 137.009 49.891 137.294 49.9428ZM142.711 45.7703C142.685 45.7703 142.685 45.7443 142.659 45.7183C142.633 45.6665 142.633 45.6148 142.659 45.5888L143.411 44.889C143.437 44.889 143.437 44.863 143.462 44.889C143.488 44.889 143.489 44.915 143.515 44.9408C143.54 44.9928 143.54 45.0445 143.515 45.0705L142.763 45.7703C142.737 45.796 142.737 45.796 142.711 45.7703ZM137.217 41.3125C137.139 41.2865 137.087 41.1828 137.061 41.105L137.035 39.7575C137.035 39.6538 137.087 39.602 137.165 39.6278C137.243 39.6538 137.32 39.7575 137.32 39.8353L137.346 41.1828C137.372 41.2865 137.294 41.3383 137.217 41.3125ZM137.191 38.591C131.8 36.8288 127.498 40.82 127.601 47.4548C127.705 54.1155 132.163 60.9318 137.554 62.668C142.944 64.4305 147.247 60.4393 147.143 53.8045C147.039 47.1438 142.582 40.3535 137.191 38.591Z" fill="#FEEFF0"/>
<path d="M141.701 51.3685L138.876 50.4612C138.72 50.4095 138.616 50.5132 138.616 50.6945V51.3942C138.616 51.5757 138.746 51.7572 138.902 51.809L141.726 52.7163C141.882 52.768 141.986 52.6642 141.986 52.4827V51.783C141.96 51.6017 141.856 51.4202 141.701 51.3685Z" fill="#FBD8CB"/>
<path d="M128.405 102.114L128.56 112.429C128.56 112.688 128.742 112.947 128.949 113.025L163.315 124.195C163.522 124.273 163.678 124.117 163.678 123.858L163.652 122.822L128.534 111.418V111.081L128.405 102.114ZM162.589 75.9377L128.223 64.7675C128.016 64.6897 127.861 64.8452 127.861 65.1042L127.887 66.2705L163.004 77.674L162.978 76.5077C162.952 76.2745 162.797 76.0155 162.589 75.9377Z" fill="#FBEFCB"/>
<path d="M144.111 32.9412C143.929 32.8895 143.8 33.019 143.8 33.2265C143.8 33.4338 143.955 33.667 144.137 33.7187C144.318 33.7707 144.448 33.641 144.448 33.4337C144.448 33.2265 144.292 32.9932 144.111 32.9412Z" fill="#FAE9B8"/>
<path d="M145.588 33.4078C145.406 33.3558 145.277 33.4855 145.277 33.6928C145.277 33.9 145.432 34.1333 145.614 34.1853C145.795 34.237 145.925 34.1075 145.925 33.9C145.925 33.6928 145.769 33.4855 145.588 33.4078Z" fill="#FAE9B8"/>
<path d="M163.238 94.961L145.977 89.3627L146.236 107.22L163.497 112.818L163.238 94.961Z" fill="#B5CDFB"/>
<path d="M145.536 98.4595L137.32 95.79L137.45 104.368L145.666 107.038L145.536 98.4595Z" fill="#FEEFF0"/>
<path d="M136.621 86.3305L128.12 83.5573L128.249 92.136L136.75 94.909L136.621 86.3305Z" fill="#B5CDFB"/>
<path d="M133.07 119.841L131.774 119.427C131.515 119.349 131.308 119.53 131.308 119.867L131.334 121.448C131.334 121.759 131.567 122.096 131.826 122.174L133.122 122.589C133.381 122.666 133.588 122.485 133.588 122.148L133.563 120.567C133.563 120.256 133.355 119.919 133.07 119.841Z" fill="#1F818C"/>
<path d="M139.964 122.07L138.668 121.656C138.409 121.578 138.202 121.759 138.202 122.096L138.228 123.677C138.228 123.988 138.461 124.325 138.72 124.403L140.016 124.817C140.275 124.895 140.483 124.714 140.483 124.377L140.457 122.796C140.431 122.485 140.223 122.174 139.964 122.07Z" fill="#1F818C"/>
<path d="M146.832 124.325L145.536 123.91C145.277 123.833 145.07 124.014 145.07 124.351L145.096 125.932C145.096 126.243 145.329 126.58 145.588 126.658L146.884 127.072C147.143 127.15 147.351 126.969 147.351 126.632L147.325 125.051C147.325 124.74 147.091 124.403 146.832 124.325Z" fill="#1F818C"/>
<path d="M153.726 126.554L152.43 126.139C152.171 126.062 151.964 126.243 151.964 126.58L151.99 128.161C151.99 128.472 152.197 128.809 152.482 128.887L153.778 129.301C154.037 129.379 154.244 129.198 154.244 128.861L154.219 127.28C154.193 126.969 153.985 126.632 153.726 126.554Z" fill="#1F818C"/>
<path d="M160.594 128.783L159.298 128.368C159.039 128.29 158.831 128.472 158.831 128.809L158.857 130.389C158.857 130.7 159.065 131.038 159.35 131.115L160.646 131.53C160.905 131.608 161.112 131.426 161.112 131.089L161.086 129.508C161.086 129.197 160.853 128.86 160.594 128.783Z" fill="#1F818C"/>
<path d="M153.596 47.8177L150.305 46.7552L150.331 48.647L153.648 49.7098L153.596 47.8177Z" fill="#B5CDFB"/>
<path d="M162.642 54.66L150.357 50.6688L150.383 52.5607L162.667 56.552L162.642 54.66Z" fill="#FEEFF0"/>
<path d="M162.797 64.7415L156.654 62.7458L156.732 68.914L162.874 70.9098L162.797 64.7415Z" fill="#FBEFCB"/>
<path d="M156.551 56.5778L150.409 54.582L150.512 60.7503L150.59 66.9185L156.732 68.9143L156.655 62.746L156.551 56.5778Z" fill="#B5CDFB"/>
<path d="M145.976 89.3627L145.406 89.1813L145.536 97.76L145.821 97.8635V98.5632L145.536 98.4597L145.665 107.038L146.236 107.22L145.976 89.3627ZM145.717 72.8018L145.147 72.6202L145.38 88.4815L145.95 88.663L145.717 72.8018Z" fill="#161616"/>
<path d="M164.793 94.7795L163.238 94.261L145.951 88.663L145.381 88.4815L128.12 82.8575L127.239 82.5725L127.265 83.2722L128.12 83.5573L136.621 86.3305V85.7602L137.191 85.9417V86.512L145.407 89.1813L145.977 89.3627L163.238 94.961L164.793 95.4792V94.7795Z" fill="#161616"/>
<path d="M136.75 94.909L128.249 92.136L127.394 91.8508V92.5505L128.249 92.8357L136.75 95.583V94.909ZM145.795 97.8378L145.51 97.734L137.32 95.0905V95.7903L145.536 98.4597L145.821 98.5632L145.795 97.8378Z" fill="#161616"/>
<path d="M137.191 85.9417L136.621 85.7602V86.3305L136.75 94.909V95.6087L136.88 104.187L137.45 104.369L137.321 95.7903V95.0905L137.191 86.5117V85.9417Z" fill="#161616"/>
<path d="M164.274 122.303L163.626 122.096L128.534 110.692V111.029V111.392L163.652 122.796L164.274 123.003V122.303Z" fill="#161616"/>
<path d="M164.145 113.025L163.497 112.818L146.236 107.22L145.665 107.038L137.45 104.369L136.88 104.187L128.379 101.414L127.523 101.129V101.829L128.405 102.114L163.497 113.518L164.145 113.725V113.025Z" fill="#161616"/>
<path d="M163.626 77.9075L162.978 77.7L127.86 66.2965L127.005 66.0115V66.7113L127.886 66.9962L145.147 72.6202L145.717 72.8018L163.004 78.3997L163.626 78.6072V77.9075Z" fill="#161616"/>
<path d="M135.169 74.4605C133.563 73.9423 132.293 75.1085 132.319 77.104C132.345 79.0737 133.666 81.0952 135.273 81.6137C136.88 82.132 138.15 80.9658 138.124 78.9703C138.072 77.0263 136.75 75.0048 135.169 74.4605Z" fill="#2249B3"/>
<path opacity="0.1" d="M134.159 82.0022C134.029 83.013 130.945 86.6932 128.224 89.8292C127.187 91.0215 126.202 92.11 125.45 92.9392L125.373 87.1858L128.042 84.3347L132.396 79.6957C133.096 78.97 134.314 79.4625 134.314 80.4733C134.288 80.9398 134.236 81.4322 134.159 82.0022Z" fill="#161616"/>
<path d="M116.949 81.173C119.826 80.2917 125.243 78.5552 127.524 78.1925C129.804 77.8297 131.8 74.7715 133.018 76.4042C134.236 78.037 130.452 81.3025 128.197 80.7842C127.187 81.8207 126.072 82.3392 124.75 82.5207C122.444 84.1015 121.2 85.2677 118.79 87.1597C117.312 88.326 114.487 91.8767 116.509 93.7167C118.504 95.531 120.967 94.9867 123.273 94.2352" stroke="#161616" stroke-width="0.375" stroke-miterlimit="10" stroke-linecap="round"/>
<path opacity="0.1" d="M98.7557 112.61C96.9932 113.595 94.92 113.906 92.9502 115.539C92.095 116.264 91.2397 117.25 90.4622 118.675C90.4622 118.675 88.4407 121.293 85.6157 124.74C85.6157 124.74 85.6157 124.74 85.6157 124.765C80.6137 130.908 73.1755 139.668 70.48 141.041C68.5882 142 64.1045 140.652 59.7505 138.864C64.286 138.009 71.2057 135.391 72.6052 133.811C74.4712 131.737 81.1837 123.469 85.9007 119.4C87.4817 118.053 88.5185 117.016 89.1922 116.109C90.5657 114.295 90.514 112.973 90.514 110.666C90.514 107.219 92.38 108.774 90.514 104.161C89.7365 102.217 88.2332 100.585 86.756 99.3665C84.7085 97.656 82.713 96.6712 82.713 96.6712C83.4645 96.153 84.2162 95.816 84.9677 95.79C85.0195 95.79 85.0715 95.79 85.1232 95.79C85.6157 95.816 86.2117 96.0752 86.9115 96.464C86.9115 96.464 86.9115 96.464 86.9375 96.464C87.4557 96.775 88 97.1637 88.5702 97.6302C88.5702 97.6302 88.5962 97.656 88.674 97.708C90.177 98.926 91.8357 100.637 93.3907 102.451C93.4167 102.477 93.4427 102.503 93.4685 102.529C94.6867 103.954 95.827 105.457 96.786 106.857C96.8895 107.012 96.9672 107.116 96.9932 107.168C97.4597 107.893 97.9002 108.593 98.2372 109.215C99.0925 110.977 99.4035 112.248 98.7557 112.61Z" fill="#161616"/>
<path d="M76.0262 136.765C79.6807 132.618 83.05 128.29 85.6157 124.74C87.9482 121.5 89.607 118.908 90.203 117.69C90.229 117.612 90.2807 117.561 90.3067 117.483C90.9287 116.239 91.6285 115.306 92.38 114.606C94.298 112.74 96.449 112.351 98.2112 111.237C98.652 110.952 98.6002 110.252 98.1855 109.293C97.9002 108.593 97.408 107.764 96.786 106.857C95.9047 105.535 94.7125 104.032 93.4167 102.58C93.3907 102.555 93.3647 102.529 93.339 102.503C92.4577 101.518 91.5507 100.559 90.6177 99.678C90.6177 99.678 90.6177 99.678 90.5917 99.652C89.892 98.978 89.2182 98.356 88.5442 97.8118C87.974 97.3195 87.404 96.9047 86.8597 96.516C86.8597 96.516 86.8597 96.516 86.8337 96.516C85.512 95.583 84.3457 95.0388 83.5682 95.1165C83.1277 95.1425 82.687 95.298 82.2465 95.5312C78.7477 97.3452 75.4302 104.628 71.8795 107.09C70.7652 107.868 67.992 110.097 64.6227 112.922L64.597 112.948C57.677 118.727 48.1395 126.917 44.6407 129.923C43.7855 130.675 43.293 131.089 43.293 131.089" stroke="#161616" stroke-width="0.375" stroke-miterlimit="10" stroke-linecap="round"/>
<path opacity="0.1" d="M128.068 95.6865C127.135 97.2415 125.061 98.5115 122.807 99.1592C119.982 99.9887 115.809 103.177 112.207 104.006C110.522 104.395 108.086 104.369 105.779 103.85C104.898 103.85 103.991 103.902 103.058 104.006C101.943 104.11 100.803 104.343 99.7147 104.705C98.652 105.068 97.6932 105.846 96.786 106.883C96.76 106.909 96.76 106.935 96.7342 106.935C96.8377 107.09 96.9155 107.193 96.9415 107.245C97.0192 107.375 96.9415 107.271 96.7082 106.96C96.0602 106.105 94.3497 103.825 92.5875 101.777C91.9135 101 91.2397 100.3 90.6177 99.6778C90.6177 99.6778 90.6177 99.6778 90.5917 99.6518C89.633 98.6928 88.8555 97.993 88.5962 97.7598C88.5445 97.708 88.5185 97.682 88.4925 97.682C88.4925 97.682 88.5185 97.708 88.5962 97.7598C89.0887 97.3193 89.581 96.8785 90.0735 96.412C91.162 98.952 93.6242 102.762 98.4707 102.14C99.3517 102.036 100.181 101.881 100.959 101.699C101.01 101.673 101.088 101.673 101.14 101.647C106.608 100.377 110.004 97.8375 116.742 97.7598C117.131 97.7598 117.494 97.7338 117.856 97.708C118.893 97.656 119.852 97.5005 120.733 97.345C121.122 97.2673 121.511 97.1895 121.874 97.086C124.932 96.3602 126.953 95.3495 128.068 95.6865Z" fill="#161616"/>
<path d="M17.7132 27.058H13.9293V31.153H17.7132V27.058Z" fill="#B5CDFB"/>
<path d="M2.5 21.7451H64.727" stroke="#161616" stroke-width="0.375" stroke-miterlimit="10" stroke-linecap="round"/>
<path opacity="0.1" d="M57.133 17.676H10.5601V19.9308H57.133V17.676Z" fill="#161616"/>
<path d="M26.9657 63.1865H19.4756V64.586H26.9657V63.1865Z" fill="#B5CDFB"/>
<path d="M47.2587 65.3635H19.4756V66.763H47.2587V65.3635Z" fill="#B5CDFB"/>
<path opacity="0.1" d="M32.175 93.38H19.4756V103.669H32.175V93.38Z" fill="#161616"/>
<path opacity="0.3" d="M89.3223 68.7588H69.7548V79.0478H89.3223V68.7588Z" fill="#75E0E6"/>
<path opacity="0.1" d="M48.5028 81.0953H35.8035V91.3842H48.5028V81.0953Z" fill="#161616"/>
<path opacity="0.1" d="M52.1828 55.489H14.5251V59.1693H52.1828V55.489Z" fill="#161616"/>
<path opacity="0.1" d="M71.3098 18.1167H69.288V20.1382H71.3098V18.1167Z" fill="#161616"/>
<path opacity="0.1" d="M75.3525 18.1167H73.331V20.1382H75.3525V18.1167Z" fill="#161616"/>
<path opacity="0.1" d="M73.3315 20.1382H71.3098V22.1597H73.3315V20.1382Z" fill="#161616"/>
<path opacity="0.1" d="M73.3315 16.0693H71.3098V18.0909H73.3315V16.0693Z" fill="#161616"/>
<path opacity="0.1" d="M106.665 61.0322V66.5007H112.133V61.0322H106.665Z" fill="#161616"/>
<path opacity="0.1" d="M112.133 66.518V71.9865H117.602V66.518H112.133Z" fill="#161616"/>
<path opacity="0.1" d="M101.204 66.5007V71.9693H106.673V66.5007H101.204Z" fill="#161616"/>
<path opacity="0.1" d="M195.141 19.4385H189.673V24.907H195.141V19.4385Z" fill="#161616"/>
<path opacity="0.1" d="M189.699 24.907H184.23V30.3755H189.699V24.907Z" fill="#161616"/>
<path opacity="0.1" d="M189.699 13.97H184.23V19.4385H189.699V13.97Z" fill="#161616"/>
<path opacity="0.19" d="M14.8104 107.634H12.7889V109.656H14.8104V107.634Z" fill="#1A1A1A"/>
<path opacity="0.19" d="M18.8534 107.634H16.8318V109.656H18.8534V107.634Z" fill="#1A1A1A"/>
<path opacity="0.19" d="M16.8321 109.656H14.8106V111.677H16.8321V109.656Z" fill="#1A1A1A"/>
<path opacity="0.19" d="M16.8321 105.613H14.8106V107.634H16.8321V105.613Z" fill="#1A1A1A"/>
<path fill-rule="evenodd" clip-rule="evenodd" d="M129.373 15.0293L150.573 21.9751L150.452 22.3445L129.252 15.3987L129.373 15.0293Z" fill="#75E0E6"/>
<path fill-rule="evenodd" clip-rule="evenodd" d="M133.105 5.25855L159.592 13.9667L159.471 14.336L132.984 5.62785L133.105 5.25855Z" fill="#75E0E6"/>
<path fill-rule="evenodd" clip-rule="evenodd" d="M86.3418 11.0025H85.5643V10.6138H86.3418V11.0025Z" fill="#75E0E6"/>
<path fill-rule="evenodd" clip-rule="evenodd" d="M88.692 11.0025H87.9225V10.6138H88.692V11.0025ZM91.7697 11.0025H90.2307V10.6138H91.7697V11.0025ZM94.8472 11.0025H93.3085V10.6138H94.8472V11.0025ZM97.925 11.0025H96.3862V10.6138H97.925V11.0025ZM101.002 11.0025H99.4637V10.6138H101.002V11.0025ZM104.08 11.0025H102.541V10.6138H104.08V11.0025ZM107.158 11.0025H105.619V10.6138H107.158V11.0025ZM110.235 11.0025H108.697V10.6138H110.235V11.0025ZM112.544 11.0025H111.774V10.6138H112.544V11.0025Z" fill="#75E0E6"/>
<path fill-rule="evenodd" clip-rule="evenodd" d="M114.099 11.0025H113.321V10.6138H114.099V11.0025Z" fill="#75E0E6"/>
<path fill-rule="evenodd" clip-rule="evenodd" d="M114.099 8.92905H85.5643V8.54028H114.099V8.92905Z" fill="#75E0E6"/>
<path fill-rule="evenodd" clip-rule="evenodd" d="M114.099 6.82968H85.5643V6.44093H114.099V6.82968Z" fill="#75E0E6"/>
<path fill-rule="evenodd" clip-rule="evenodd" d="M174.476 19.3897L161.777 15.1653L161.899 14.7964L174.599 19.0209L174.476 19.3897Z" fill="#75E0E6"/>
<path fill-rule="evenodd" clip-rule="evenodd" d="M172.169 29.497L153.82 23.3547L153.943 22.9861L172.293 29.1285L172.169 29.497Z" fill="#75E0E6"/>
<path fill-rule="evenodd" clip-rule="evenodd" d="M28.741 107.873V107.038H29.1298V107.873H28.741ZM28.741 111.212V109.543H29.1298V111.212H28.741ZM28.741 114.551V112.882H29.1298V114.551H28.741ZM28.741 117.89V116.22H29.1298V117.89H28.741ZM28.741 121.229V119.56H29.1298V121.229H28.741ZM28.741 124.568V122.898H29.1298V124.568H28.741ZM28.741 127.072V126.238H29.1298V127.072H28.741Z" fill="#75E0E6"/>
<path fill-rule="evenodd" clip-rule="evenodd" d="M87.2097 68.5307V67.696H87.5987V68.5307H87.2097ZM87.2097 71.8698V70.2002H87.5987V71.8698H87.2097ZM87.2097 75.2087V73.5393H87.5987V75.2087H87.2097ZM87.2097 78.5478V76.8783H87.5987V78.5478H87.2097ZM87.2097 81.8867V80.2172H87.5987V81.8867H87.2097ZM87.2097 85.2258V83.5563H87.5987V85.2258H87.2097ZM87.2097 87.73V86.8952H87.5987V87.73H87.2097Z" fill="#2249B3"/>
<path opacity="0.77" d="M61.6427 68.7588H52.1312V69.951H61.6427V68.7588Z" fill="#2249B3"/>
<path opacity="0.77" d="M66.1522 71.4023H52.1312V72.5945H66.1522V71.4023Z" fill="#2249B3"/>
<path opacity="0.77" d="M66.1522 74.0198H52.1312V75.212H66.1522V74.0198Z" fill="#2249B3"/>
<path opacity="0.77" d="M66.1522 76.6375H52.1312V77.8298H66.1522V76.6375Z" fill="#2249B3"/>
<path opacity="0.77" d="M66.1522 79.281H52.1312V80.4733H66.1522V79.281Z" fill="#2249B3"/>
<path opacity="0.77" d="M66.1522 84.024H52.1312V85.216H66.1522V84.024Z" fill="#2249B3"/>
<path opacity="0.77" d="M66.1522 86.6413H52.1312V87.8335H66.1522V86.6413Z" fill="#2249B3"/>
<path d="M20.3566 120.463H10.8451V121.655H20.3566V120.463Z" fill="#75E0E6"/>
<path d="M24.8662 123.081H10.8451V124.273H24.8662V123.081Z" fill="#75E0E6"/>
<path d="M24.8662 125.699H10.8451V126.891H24.8662V125.699Z" fill="#75E0E6"/>
<path d="M20.3566 131.193H10.8451V132.385H20.3566V131.193Z" fill="#75E0E6"/>
<path d="M24.8662 133.811H10.8451V135.003H24.8662V133.811Z" fill="#75E0E6"/>
<path d="M24.8662 136.428H10.8451V137.62H24.8662V136.428Z" fill="#75E0E6"/>
<path d="M85.5643 17.0801H114.099" stroke="#161616" stroke-width="0.375" stroke-miterlimit="10" stroke-linecap="round"/>
<path d="M85.5643 15.0066H114.099" stroke="#161616" stroke-width="0.375" stroke-miterlimit="10" stroke-linecap="round"/>
<path d="M85.5643 12.9075H114.099" stroke="#161616" stroke-width="0.375" stroke-miterlimit="10" stroke-linecap="round"/>
<path d="M65.1412 62.798H87.4042V38.073" stroke="#161616" stroke-width="0.375" stroke-miterlimit="10" stroke-linecap="round"/>
<path opacity="0.77" d="M89.2445 80.6805H69.7548V81.8725H89.2445V80.6805Z" fill="#2249B3"/>
<path opacity="0.77" d="M89.2445 83.298H69.7548V84.4902H89.2445V83.298Z" fill="#2249B3"/>
<path d="M118.738 48.5173H99.1185" stroke="#161616" stroke-width="0.375" stroke-miterlimit="10" stroke-linecap="round"/>
<path d="M112.674 54.2192H93.0803" stroke="#161616" stroke-width="0.375" stroke-miterlimit="10" stroke-linecap="round"/>
<path d="M112.674 53.0013H93.0803" stroke="#161616" stroke-width="0.375" stroke-miterlimit="10" stroke-linecap="round"/>
<path d="M115.187 46.9365H99.1185" stroke="#161616" stroke-width="0.375" stroke-miterlimit="10" stroke-linecap="round"/>
<path fill-rule="evenodd" clip-rule="evenodd" d="M179.822 44.7482L179.811 43.9847L180.2 43.9793L180.211 44.7427L179.822 44.7482ZM179.865 47.802L179.844 46.2752L180.233 46.2697L180.254 47.7965L179.865 47.802ZM179.909 50.856L179.887 49.329L180.276 49.3235L180.297 50.8505L179.909 50.856ZM179.952 53.91L179.93 52.383L180.319 52.3775L180.341 53.9045L179.952 53.91ZM179.995 56.9637L179.973 55.4367L180.362 55.4313L180.384 56.9582L179.995 56.9637ZM180.038 60.0177L180.017 58.4907L180.405 58.4852L180.427 60.0122L180.038 60.0177ZM180.081 63.0715L180.06 61.5448L180.448 61.5392L180.47 63.066L180.081 63.0715ZM180.125 66.1255L180.103 64.5985L180.492 64.593L180.513 66.12L180.125 66.1255ZM180.168 69.1795L180.146 67.6525L180.535 67.647L180.556 69.174L180.168 69.1795ZM180.211 72.2333L180.189 70.7063L180.578 70.7008L180.6 72.2278L180.211 72.2333ZM180.254 75.2872L180.233 73.7602L180.621 73.7548L180.643 75.2818L180.254 75.2872ZM180.297 78.341L180.276 76.8142L180.664 76.8087L180.686 78.3355L180.297 78.341ZM180.33 80.6315L180.319 79.868L180.708 79.8625L180.718 80.626L180.33 80.6315Z" fill="#75E0E6"/>
<path fill-rule="evenodd" clip-rule="evenodd" d="M182.517 52.3942L182.507 51.6302L182.895 51.6247L182.906 52.3887L182.517 52.3942ZM182.561 55.4502L182.539 53.9222L182.928 53.9168L182.949 55.4448L182.561 55.4502ZM182.604 58.5062L182.582 56.9782L182.971 56.9728L182.993 58.501L182.604 58.5062ZM182.647 61.5625L182.625 60.0345L183.014 60.029L183.036 61.557L182.647 61.5625ZM182.69 64.6185L182.669 63.0905L183.057 63.085L183.079 64.613L182.69 64.6185ZM182.733 67.6745L182.712 66.1465L183.101 66.141L183.122 67.669L182.733 67.6745ZM182.777 70.7305L182.755 69.2025L183.144 69.197L183.165 70.725L182.777 70.7305ZM182.82 73.7868L182.798 72.2588L183.187 72.2533L183.209 73.7812L182.82 73.7868ZM182.863 76.8428L182.841 75.3148L183.23 75.3092L183.252 76.8372L182.863 76.8428ZM182.906 79.8988L182.885 78.3708L183.273 78.3652L183.295 79.8932L182.906 79.8988ZM182.949 82.9548L182.928 81.4268L183.317 81.4212L183.338 82.9492L182.949 82.9548ZM182.993 86.011L182.971 84.4827L183.36 84.4772L183.381 86.0055L182.993 86.011ZM183.025 88.303L183.014 87.539L183.403 87.5335L183.414 88.2975L183.025 88.303Z" fill="#75E0E6"/>
<path opacity="0.36" d="M197.5 133.24H188.87V135.573H197.5V133.24Z" fill="#2249B3"/>
<path d="M163.004 78.4003L145.717 72.8023L145.951 88.6635L163.237 94.2615L163.004 78.4003Z" fill="#75E0E6"/>
<path d="M145.406 89.1815L137.191 86.512L137.32 95.0905L145.536 97.76L145.406 89.1815Z" fill="#75E0E6"/>
<path opacity="0.35" d="M127.446 120.593L127.576 129.741C127.576 130.001 127.757 130.286 127.964 130.363L133.977 132.307L162.33 40.6128C162.33 40.3535 162.149 40.0685 161.942 40.0165L153.907 37.399L127.446 120.593ZM127.446 120.593L153.881 37.399L127.446 120.593Z" fill="#FEEFF0"/>
</svg>
