<svg width="4320" height="717" viewBox="0 0 4320 717" fill="none" xmlns="http://www.w3.org/2000/svg">
<g clip-path="url(#clip0_536_12557)">
<path d="M335.053 0.0733845C200.324 -2.51269 -4 64.1108 -4 64.1108V730H4287V269.231C4287 269.231 3923.35 148.745 3694.03 192.686C3619.23 207.02 3583.31 245.12 3507.23 248.719C3436.34 252.071 3399.38 218 3328.44 216.2C3224.87 213.571 3171.98 264.024 3068.51 269.231C2907.3 277.342 2823.33 180.899 2662.35 192.686C2546.1 201.198 2490.35 264.584 2373.88 269.231C2257.69 273.866 2194.57 240.655 2080.9 216.2C1944.89 186.938 1874.97 128.487 1735.84 127.648C1613.47 126.91 1551.49 185.444 1429.34 192.686C1380.92 195.557 1353.46 196.852 1305.14 192.686C1207.11 184.236 1159.42 139.497 1061.74 127.648C977.67 117.45 928.572 140.607 844.885 127.648C779.231 117.481 745.315 98.7132 681.118 81.621C546.946 45.8983 473.883 2.73817 335.053 0.0733845Z" fill="url(#paint0_linear_536_12557)"/>
</g>
<defs>
<linearGradient id="paint0_linear_536_12557" x1="2141.5" y1="8.16606e-07" x2="2141.5" y2="730" gradientUnits="userSpaceOnUse">
<stop stop-color="#242452"/>
<stop offset="1" stop-color="#4926AD"/>
</linearGradient>
<clipPath id="clip0_536_12557">
<rect width="4320" height="717" fill="white"/>
</clipPath>
</defs>
</svg>
