<svg width="4320" height="308" viewBox="0 0 4320 308" fill="none" xmlns="http://www.w3.org/2000/svg">
<g clip-path="url(#clip0_535_12486)">
<path d="M205.5 38.7276C111.993 62.2161 -14 151.728 -14 151.728V307.728H4443V95.2276C4443 95.2276 4080.04 5.18748 3843 3.22764C3592.44 1.15604 3458.36 105.538 3208 95.2276C3012.89 87.1923 2910.71 -17.1098 2716.5 3.22764C2591.28 16.3405 2532.16 77.5776 2407.5 95.2276C2167.44 129.216 2034.44 -23.8401 1793.5 3.22764C1654.93 18.7944 1587.92 97.6952 1448.5 95.2276C1317.74 92.9133 1256.6 16.5693 1126.5 3.22764C922.497 -17.693 814.573 95.5086 609.5 95.2276C450.193 95.0094 360.007 -0.0835457 205.5 38.7276Z" fill="url(#paint0_linear_535_12486)"/>
</g>
<defs>
<linearGradient id="paint0_linear_535_12486" x1="-12.6583" y1="34.0693" x2="-12.9888" y2="168.571" gradientUnits="userSpaceOnUse">
<stop stop-color="#DCF2F2"/>
<stop offset="1" stop-color="white"/>
</linearGradient>
<clipPath id="clip0_535_12486">
<rect width="4320" height="308" fill="white"/>
</clipPath>
</defs>
</svg>
