<svg width="4320" height="826" viewBox="0 0 4320 826" fill="none" xmlns="http://www.w3.org/2000/svg">
<g clip-path="url(#clip0_536_12524)">
<path d="M134.077 0.0601582C77.4905 1.43696 -5 40.5809 -5 40.5809V858H4320V240.183C4320 240.183 4087.76 178.887 3936.53 151.138C3847.61 134.822 3798.18 115.589 3707.76 115.619C3619.09 115.649 3568.67 128.466 3484 149.99L3479.49 151.138C3382.25 175.849 3338.19 227.523 3238.62 240.183C3064.05 262.381 2981.27 128.747 2805.77 115.619C2614.64 101.323 2511.63 203.105 2320.51 188.657C2137.94 174.855 2054.63 53.4976 1871.54 54.5881C1692.02 55.6573 1611.36 178.57 1432.13 188.657C1263.27 198.16 1174.29 107.945 1005.33 115.619C943.515 118.427 909.586 142.074 848.108 135.129C815.718 131.47 799.501 117.85 766.98 115.619C721.375 112.492 697.298 134.815 651.586 135.129C603.933 135.457 577.87 124.956 531.153 115.619C442.51 97.9031 307.924 54.5881 307.924 54.5881C239.689 34.4035 205.255 -1.67166 134.077 0.0601582Z" fill="url(#paint0_linear_536_12524)"/>
</g>
<defs>
<linearGradient id="paint0_linear_536_12524" x1="2343.72" y1="111.99" x2="2333" y2="368.141" gradientUnits="userSpaceOnUse">
<stop stop-color="#B0C5E6"/>
<stop offset="1" stop-color="white"/>
</linearGradient>
<clipPath id="clip0_536_12524">
<rect width="4320" height="826" fill="white"/>
</clipPath>
</defs>
</svg>
