<svg width="4320" height="1112" viewBox="0 0 4320 1112" fill="none" xmlns="http://www.w3.org/2000/svg">
<g clip-path="url(#clip0_536_12531)">
<path d="M312.463 62.9531C197.969 5.29468 -8 0 -8 0V1112H4334V780.206C4334 780.206 4166.91 730.893 4057.03 715.189C3881.62 690.118 3778.9 740.936 3603.58 715.189C3447.06 692.201 3371.18 609.042 3213.13 604.763C3070.39 600.899 2989.97 722.019 2854.17 676.488C2781.55 652.139 2780.66 649.484 2712 615C2646.37 582.039 2596.92 543.069 2524 540C2391.21 534.412 2348.06 649.56 2217.74 676.488C2065.88 707.869 1980.75 626.312 1827.29 604.763C1676.29 583.561 1582.03 620.377 1438.83 566.578C1386.06 546.753 1362.58 519.963 1308.85 503.109C1264.84 489.304 1237.51 493.386 1192.86 481.953C1071.78 450.944 1024.98 368.595 902.395 344.694C869.152 338.213 848.92 343.501 816.405 333.858C767.319 319.3 750.361 286.293 702.918 266.777C635.646 239.103 587.697 260.43 520.439 232.72C424.268 193.098 405.527 109.819 312.463 62.9531Z" fill="url(#paint0_linear_536_12531)"/>
</g>
<defs>
<linearGradient id="paint0_linear_536_12531" x1="2765" y1="488.141" x2="2787.53" y2="312.904" gradientUnits="userSpaceOnUse">
<stop stop-color="#FF7777"/>
<stop offset="1" stop-color="#EF234C"/>
</linearGradient>
<clipPath id="clip0_536_12531">
<rect width="4320" height="1112" fill="white"/>
</clipPath>
</defs>
</svg>
