<svg width="75" height="75" viewBox="0 0 75 75" fill="none" xmlns="http://www.w3.org/2000/svg">
<path fill-rule="evenodd" clip-rule="evenodd" d="M44.1395 5.13356C44.1557 5.20702 44.2063 5.43741 44.2519 5.64554C44.432 6.46649 44.4928 7.06706 44.4927 8.02735C44.4926 9.02687 44.4335 9.54535 44.2259 10.3681C43.6644 12.5934 42.3214 14.6227 39.9911 16.7671C39.2238 17.4731 38.1022 18.4106 36.9198 19.3341C33.7153 21.8371 32.6448 22.7358 31.5823 23.8154C29.8772 25.5476 29.0933 26.8092 28.846 28.2189C28.7564 28.7301 28.7809 29.7926 28.8942 30.3096C29.2953 32.1389 30.5153 34.1327 32.6942 36.5201C33.7905 37.7212 37.4276 41.2169 37.581 41.2169C37.6437 41.2169 36.9995 40.0099 36.6188 39.4139C36.4311 39.1201 36.0244 38.519 35.715 38.0783C34.6908 36.6191 34.0004 35.592 33.6732 35.0407C33.0328 33.9614 32.5629 32.838 32.367 31.9178C32.2494 31.365 32.2063 30.4103 32.2755 29.8866C32.5699 27.6557 34.01 25.5009 36.7854 23.1387C37.0319 22.9288 37.4936 22.5502 37.8113 22.2974C41.825 19.103 44.3363 16.0074 45.3885 12.9572C45.7999 11.7645 45.9325 10.8987 45.8964 9.63942C45.8691 8.68513 45.7924 8.23179 45.5208 7.41739C45.2524 6.61247 44.7186 5.64932 44.2838 5.18534L44.1102 5L44.1395 5.13356ZM51.742 18.6918C48.7022 19.5692 45.4877 20.9495 43.2668 22.3309C38.9191 25.0353 37.0749 28.1318 37.7757 31.5511C37.9797 32.5465 38.5636 33.853 39.28 34.9175C39.6662 35.4911 39.8446 35.7238 40.6804 36.7427C41.0399 37.1809 41.3313 37.6605 41.5056 38.1005C41.7271 38.6598 41.7624 38.8687 41.7581 39.592C41.7545 40.183 41.7401 40.3054 41.633 40.656C41.4686 41.1942 41.2599 41.629 40.919 42.143C40.6143 42.6025 39.9624 43.3628 39.7985 43.45C39.7388 43.4817 39.7216 43.5095 39.7549 43.5206C39.8279 43.5448 40.6739 43.0358 41.3029 42.5893C43.3852 41.1113 44.6581 39.4992 45.0405 37.8557C45.159 37.3467 45.1511 36.4725 45.0235 35.9636C44.8212 35.1567 44.6044 34.7551 43.6637 33.4445C42.4807 31.7963 42.0325 31.0701 41.7424 30.3318C41.516 29.7554 41.4258 29.3065 41.4258 28.7562C41.4258 27.44 42.0649 26.2479 43.5774 24.7426C45.1841 23.1435 47.6034 21.4172 51.3121 19.2234C51.9039 18.8732 52.4073 18.5699 52.4307 18.5493C52.5057 18.4833 52.3603 18.5133 51.742 18.6918ZM55.9077 40.7096C55.0399 40.815 54.2221 41.0113 53.7421 41.2294C53.501 41.3391 52.8557 41.8955 52.9084 41.9484C52.9232 41.9633 53.1754 41.9071 53.4688 41.8236C54.0665 41.6534 54.7399 41.5286 55.0605 41.5286C56.4212 41.5286 57.8383 42.2734 58.5761 43.3762C59.0005 44.0106 59.179 44.6 59.1801 45.3703C59.1815 46.4196 58.8307 47.3471 57.9849 48.5301C57.648 49.0014 56.3849 50.2625 55.7508 50.7606C54.8302 51.484 53.3894 52.409 52.1415 53.0778C51.833 53.2432 51.6189 53.3918 51.5203 53.509C51.4375 53.6074 51.377 53.6944 51.3857 53.7024C51.3945 53.7104 51.7447 53.6196 52.164 53.5006C57.1215 52.0937 60.4603 49.8684 61.5844 47.2218C61.8716 46.5457 61.9342 46.2212 61.9362 45.4018C61.9381 44.6068 61.8926 44.3477 61.6456 43.7446C61.2613 42.8065 60.4068 41.9073 59.3892 41.3701C58.9379 41.1319 58.2132 40.8878 57.6787 40.7941C57.2788 40.724 56.2097 40.673 55.9077 40.7096ZM28.7373 41.3359C25.8543 41.4929 22.4709 42.3778 19.7478 43.687C18.6902 44.1955 18.3354 44.5069 18.3354 44.9269C18.3354 45.0913 18.3622 45.1618 18.4712 45.2851C19.2881 46.209 22.8746 46.868 28.3114 47.0932C29.6877 47.1502 33.7155 47.1503 35.1712 47.0933C40.1294 46.8992 44.3359 46.3999 47.7876 45.5957C48.5551 45.4169 48.6918 45.3712 48.9534 45.2061C49.4882 44.8683 49.9993 44.5911 50.8637 44.1699C51.3323 43.9416 51.6853 43.7548 51.6484 43.7548C51.6114 43.7548 50.885 43.8641 50.0343 43.9978C44.9832 44.7917 41.0295 45.1756 35.5075 45.4082C33.81 45.4797 29.2909 45.4807 28.1096 45.4099C25.7926 45.271 24.3881 45.052 23.646 44.7138C23.2925 44.5528 23.1329 44.3882 23.1329 44.1848C23.1329 43.8521 23.987 43.2946 25.2548 42.8C26.2484 42.4124 28.3435 41.7701 29.5556 41.4816C29.796 41.4243 29.9927 41.3614 29.9927 41.3417C29.9927 41.3084 29.3008 41.3052 28.7373 41.3359ZM26.4798 49.0537C24.113 49.9521 23.172 50.9095 23.7774 51.8036C24.5151 52.8931 27.283 53.7031 31.5171 54.0684C32.675 54.1683 36.8696 54.1839 38.0856 54.0929C40.8919 53.8828 43.124 53.5842 45.4834 53.1034C46.9392 52.8068 49.1994 52.2322 49.16 52.1688C49.1493 52.1516 49.044 52.1015 48.9261 52.0576C48.3051 51.826 47.4382 51.3178 46.8343 50.8313C46.4522 50.5234 46.4295 50.512 46.2515 50.5378C46.1497 50.5527 45.6224 50.6437 45.0799 50.7402C39.8784 51.6655 35.8111 51.9074 31.2033 51.5653C29.8835 51.4674 28.4941 51.3297 28.0424 51.2522C26.2519 50.9449 25.8376 50.2027 26.8719 49.1555C27.0488 48.9764 27.1626 48.831 27.1248 48.8325C27.0869 48.8339 26.7967 48.9335 26.4798 49.0537ZM28.1473 56.2181C26.7935 56.6704 26.0179 57.1408 25.7101 57.6961C25.5445 57.9948 25.5317 58.3676 25.6774 58.6488C26.3117 59.8726 29.128 60.923 32.8846 61.3371C36.3737 61.7217 40.2412 61.4685 43.69 60.6298C45.1532 60.2739 45.9771 60.0093 47.8261 59.3013C48.0012 59.2342 48.0788 59.1585 47.9725 59.1585C47.7914 59.1585 45.4396 58.0473 44.7212 57.6224L44.3626 57.4103L44.0711 57.4615C42.684 57.7055 41.0249 57.969 40.2825 58.0633C37.1447 58.4617 34.57 58.4445 30.7403 57.9996C28.9199 57.7882 28.0657 57.4467 28.065 56.9301C28.0647 56.7678 28.2868 56.4419 28.5176 56.2658C28.6261 56.183 28.7341 56.0988 28.7575 56.0787C28.8434 56.0048 28.6602 56.0467 28.1473 56.2181ZM21.048 60.8499C18.7709 61.092 15.9206 62.0399 14.3006 63.0939C13.4434 63.6516 13 64.1909 13 64.6758C13 65.506 14.0542 66.033 16.5196 66.4353C25.0851 67.8331 34.6365 68.2179 43.0399 67.5037C51.2407 66.8068 57.9304 64.9778 58.9346 63.1581C59.0885 62.8793 59.1116 62.5195 58.9902 62.2927C58.871 62.0698 58.5366 61.7726 58.1721 61.5656C57.809 61.3593 57.7019 61.354 57.8923 61.5518C58.1802 61.8509 58.269 62.3163 58.1031 62.6565C57.4139 64.0701 52.9153 65.078 44.4074 65.7247C39.4053 66.105 32.7112 66.1587 27.8182 65.8579C23.3988 65.5862 20.0822 65.0419 18.1113 64.2647C17.5785 64.0546 17.2146 63.7678 17.2146 63.5581C17.2146 63.4302 17.3782 63.1705 17.5623 63.0061C17.9408 62.6682 18.882 62.2311 20.0392 61.8559C21.1674 61.4901 22.1393 61.2978 23.2209 61.2264L23.6901 61.1954L23.48 61.0894C23.3644 61.0311 23.1432 60.9524 22.9884 60.9146C22.6515 60.8324 21.5561 60.7959 21.048 60.8499ZM61.8495 64.9001C61.422 65.5126 59.9712 66.3412 58.2347 66.9648C54.2786 68.3855 48.0052 69.4234 41.112 69.7977C39.3062 69.8958 37.751 69.9317 35.3057 69.9318C31.2678 69.932 28.1998 69.7806 24.9039 69.4182C23.8865 69.3063 22.0637 69.0607 21.9111 69.0149C21.868 69.0019 21.8326 69.0118 21.8326 69.0368C21.8326 69.0619 21.9789 69.1511 22.1577 69.2352C24.5267 70.3496 30.384 71.0013 38.0183 71C50.0943 70.9979 58.8695 69.2711 61.2664 66.425C61.5681 66.0668 61.8895 65.4306 61.9638 65.0448C61.9934 64.8911 62.0078 64.7555 61.9958 64.7435C61.9837 64.7316 61.9179 64.8021 61.8495 64.9001Z" fill="black"/>
</svg>
