<svg width="75" height="75" viewBox="0 0 75 75" fill="none" xmlns="http://www.w3.org/2000/svg">
<path fill-rule="evenodd" clip-rule="evenodd" d="M50.2461 7.02321C50.172 7.04148 49.8082 7.10628 49.4376 7.16704C48.5578 7.31141 46.9216 7.86431 45.822 8.38867C43.4258 9.53156 40.2856 11.7702 37.9612 13.9928L37.4883 14.445L37.2876 14.2639C37.1773 14.1642 36.7635 13.7923 36.3683 13.4373C33.4283 10.7967 29.8785 8.55553 27.2529 7.6824C21.4774 5.76165 17.8884 8.36958 17.1025 15.0582C16.9566 16.2997 16.9783 19.2733 17.1449 20.876C17.2895 22.2677 17.6246 24.4086 17.8571 25.4271C17.954 25.8513 17.9598 26.0008 17.8804 26.0297C17.8223 26.0507 17.1685 26.2802 16.4275 26.5398C12.0197 28.0838 8.48644 30.1544 6.31855 32.4637C5.45489 33.3837 5.07422 33.9258 4.62501 34.8748C3.04493 38.2136 4.48112 41.6582 8.70265 44.6549C10.9022 46.2164 13.9011 47.6798 17.0318 48.7197C17.9803 49.0347 18.0142 49.0551 17.9744 49.2847C17.9517 49.4156 17.8276 50.0892 17.6985 50.7815C16.4667 57.389 16.9836 62.8167 19.1195 65.7028C19.9408 66.8127 21.1526 67.5978 22.4937 67.8889C23.386 68.0827 25.1147 68.0154 26.1733 67.7458C29.3237 66.9433 32.8674 64.8091 36.5575 61.4919L37.5552 60.5951L38.4903 61.4379C42.3213 64.8904 46.181 67.1404 49.4007 67.7983C50.35 67.9923 52.0051 67.9942 52.7829 67.8023C53.9627 67.5112 55.0653 66.7974 55.8776 65.7989C56.4179 65.1348 57.1989 63.48 57.4737 62.4174C58.2912 59.2552 58.2285 54.9755 57.2964 50.2988C57.1733 49.6815 57.0727 49.1441 57.0727 49.1047C57.0727 49.0653 57.4668 48.9009 57.9484 48.7394C63.2203 46.9714 67.4884 44.3455 69.48 41.6447C71.7938 38.507 71.4616 35.2864 68.5133 32.2738C66.2526 29.9638 62.3551 27.7743 57.8811 26.3008C57.4611 26.1625 57.0878 26.0221 57.0515 25.9887C57.0152 25.9553 57.0838 25.4132 57.2039 24.784C58.2978 19.0546 58.1875 14.3489 56.8844 11.1505C56.063 9.13441 54.5445 7.68295 52.7631 7.21128C52.2388 7.07241 50.5554 6.94667 50.2461 7.02321ZM52.3796 10.468C54.6144 11.4504 55.4189 16.4393 54.3741 22.8364C54.2319 23.707 54.0735 24.5789 54.0222 24.7738L53.9288 25.1282L53.0164 24.9084C51.6277 24.5738 48.9405 24.0907 47.237 23.8696C46.3971 23.7606 45.6255 23.6549 45.5222 23.6347C45.4082 23.6123 44.98 23.1198 44.4312 22.3798C43.2862 20.8356 41.6769 18.8601 40.5849 17.6583C40.1184 17.1448 39.7367 16.7075 39.7367 16.6864C39.7367 16.6286 41.393 15.169 42.1877 14.5265C45.0316 12.2272 47.8941 10.6765 50.0119 10.2878C50.7579 10.1508 51.8466 10.2337 52.3796 10.468ZM25.5779 10.5096C27.6031 11.0346 30.3299 12.5823 32.869 14.6481C34.0505 15.6094 35.1557 16.6063 35.1557 16.7107C35.1557 16.7524 34.8463 17.1308 34.468 17.5516C33.0327 19.148 31.5522 20.9805 30.271 22.7461C29.899 23.2589 29.5784 23.6104 29.4632 23.6319C29.3582 23.6515 28.3426 23.7971 27.2063 23.9556C25.3614 24.2128 23.2277 24.6122 21.6151 25.0022C21.3065 25.0769 21.0379 25.1106 21.0183 25.0772C20.9529 24.9664 20.6071 23.1054 20.4271 21.896C19.811 17.7552 20.1051 13.8953 21.192 11.8548C21.5182 11.2422 22.1001 10.6828 22.6311 10.4709C23.2889 10.2085 24.4763 10.2241 25.5779 10.5096ZM40.0408 21.925C40.5899 22.5972 41.0493 23.1754 41.0616 23.21C41.074 23.2445 39.4523 23.2728 37.4579 23.2728H33.8318L34.2467 22.7317C34.8254 21.9771 36.4353 20.0662 36.9867 19.4797L37.4462 18.9907L38.2444 19.8468C38.6833 20.3176 39.4917 21.2528 40.0408 21.925ZM41.129 26.5308C42.0676 26.5806 43.0175 26.6448 43.2398 26.6734L43.644 26.7256L44.601 28.2115C46.3343 30.9033 47.7028 33.3304 49.0418 36.088L49.7381 37.5221L48.7484 39.5299C47.3481 42.3708 45.8631 44.9647 44.0446 47.7464L43.6458 48.3564L43.1509 48.405C42.8787 48.4317 41.5073 48.506 40.1034 48.57C38.0551 48.6633 37.026 48.6638 34.8937 48.5721C33.4322 48.5093 32.0413 48.4336 31.8028 48.4039L31.3693 48.35L30.4827 46.9954C28.8301 44.4706 26.9349 41.106 25.7658 38.6218L25.2581 37.5429L26.1957 35.6396C27.5538 32.8824 28.8105 30.6586 30.4715 28.0733L31.3382 26.7244L31.8771 26.6671C33.8895 26.4532 38.4112 26.3866 41.129 26.5308ZM27.1081 27.426C26.5768 28.245 25.1589 30.7166 24.4546 32.051C24.0036 32.9056 23.6196 33.5896 23.6013 33.5708C23.5244 33.4923 22.5486 30.72 22.1827 29.5406C21.912 28.6683 21.8197 28.2523 21.8914 28.228C22.1273 28.1481 24.1303 27.7213 25.0955 27.5454C27.55 27.0977 27.3119 27.1118 27.1081 27.426ZM50.0215 27.5868C50.9602 27.7621 52.0313 27.9803 52.4018 28.0716C53.0643 28.2348 53.0751 28.2421 53.0464 28.5086C53.0153 28.7989 52.0374 31.8226 51.6116 32.9453L51.3546 33.6229L50.92 32.7617C50.3532 31.6384 49.3093 29.782 48.5002 28.4585C48.1453 27.878 47.823 27.3488 47.7841 27.2824C47.7032 27.1446 47.5268 27.1206 50.0215 27.5868ZM19.0619 30.1342C19.4694 31.5406 20.3726 34.0648 21.1496 35.9685L21.7937 37.5468L21.2079 38.9916C20.4359 40.8951 19.8291 42.5802 19.2581 44.4058C19.0015 45.2262 18.7597 45.8973 18.7209 45.8973C18.5403 45.8973 16.1274 45.0049 15.092 44.5552C12.1687 43.2853 10.0656 41.9233 8.55372 40.3207C7.56458 39.2722 7.13073 38.4373 7.13073 37.582C7.13073 36.8283 7.36769 36.1961 7.94274 35.4157C9.19048 33.7222 11.7226 31.9567 14.905 30.5612C15.6663 30.2273 18.5827 29.1137 18.718 29.1051C18.7427 29.1036 18.8974 29.5666 19.0619 30.1342ZM57.28 29.4659C63.213 31.5564 67.3114 34.4977 67.8338 37.0403C68.3701 39.6503 63.9973 43.2241 57.4959 45.4893C56.8147 45.7267 56.2475 45.9053 56.2355 45.8861C56.2235 45.867 55.9205 44.9428 55.5623 43.8322C55.0259 42.1694 54.2929 40.1945 53.3239 37.8014C53.1876 37.465 53.191 37.4493 53.6402 36.3788C54.4228 34.5137 55.3916 31.7965 55.9488 29.9041C56.0788 29.4624 56.1986 29.101 56.2147 29.101C56.231 29.101 56.7104 29.2652 57.28 29.4659ZM36.009 31.2925C33.3004 31.9766 31.4158 34.2787 31.2327 37.1273C31.1582 38.2871 31.3569 39.2676 31.8941 40.3901C32.2432 41.1196 32.4371 41.3894 33.0822 42.0438C34.8249 43.8114 37.0883 44.3665 39.4672 43.6098C40.8944 43.1558 42.3621 41.8708 43.0394 40.4821C43.576 39.382 43.7299 38.7124 43.725 37.4992C43.7185 35.9065 43.3319 34.7573 42.3879 33.5246C40.9234 31.6119 38.3332 30.7056 36.009 31.2925ZM52.4961 44.6067C52.8868 45.7898 53.1972 46.7672 53.1859 46.7787C53.0611 46.9055 47.9357 47.8809 47.8507 47.7941C47.8238 47.7667 48.149 47.1644 48.5734 46.4558C49.4674 44.9631 50.4182 43.2449 50.9628 42.1381L51.3441 41.3632L51.5649 41.9093C51.6862 42.2097 52.1053 43.4235 52.4961 44.6067ZM24.3827 42.8914C25.0828 44.21 26.6981 47.0007 27.1 47.5863L27.2829 47.8527L26.7955 47.787C25.5865 47.6242 21.9878 46.8828 21.8821 46.7748C21.8043 46.6952 23.5121 41.4917 23.6161 41.4917C23.629 41.4917 23.9739 42.1216 24.3827 42.8914ZM54.2439 51.1749C55.4832 57.5984 54.8718 63.0308 52.7595 64.3647C50.5583 65.7549 45.5497 63.5584 40.4968 58.9872L39.7748 58.3339L40.671 57.3243C41.8947 55.9459 43.2502 54.2715 44.3862 52.7352C44.9087 52.0284 45.3395 51.4433 45.3435 51.4348C45.3475 51.4263 46.0178 51.332 46.8329 51.2251C49.0758 50.9308 52.1241 50.3706 53.5246 49.9951C53.7716 49.9288 53.9827 49.8987 53.9938 49.9282C54.0047 49.9576 54.1173 50.5186 54.2439 51.1749ZM22.7916 50.3127C24.5641 50.6969 28.93 51.4043 29.529 51.4043C29.591 51.4043 29.8415 51.6832 30.0854 52.0239C30.8824 53.1367 32.6198 55.326 33.606 56.4601C35.0927 58.1696 35.272 58.3842 35.235 58.4098C35.2161 58.4228 34.857 58.7453 34.4371 59.1264C29.6315 63.4877 24.7335 65.7014 22.4906 64.5256C20.2282 63.3398 19.5291 57.874 20.7887 51.2207C21.0444 49.8697 21.0279 49.9093 21.3088 49.9816C21.4401 50.0154 22.1073 50.1644 22.7916 50.3127ZM41.0841 51.8367C41.0841 51.9168 39.3922 53.9839 38.4482 55.0572L37.536 56.0942L37.0056 55.5161C36.38 54.8342 34.3114 52.3817 34.0704 52.0361L33.903 51.796L37.4935 51.7936C39.4683 51.7922 41.0841 51.8116 41.0841 51.8367Z" fill="black"/>
</svg>
