<?xml version="1.0" encoding="UTF-8"?>
<svg width="44px" height="44px" viewBox="0 0 44 44" version="1.1" xmlns="http://www.w3.org/2000/svg" xmlns:xlink="http://www.w3.org/1999/xlink">
    <title>menuLogo</title>
    <defs>
        <linearGradient x1="50%" y1="0%" x2="50%" y2="100%" id="linearGradient-1">
            <stop stop-color="#9EE1EC" offset="0%"></stop>
            <stop stop-color="#E5A7E0" offset="100%"></stop>
        </linearGradient>
        <linearGradient x1="0%" y1="50%" x2="100%" y2="50%" id="linearGradient-2">
            <stop stop-color="#9EE1EC" offset="0%"></stop>
            <stop stop-color="#E5A7E0" offset="100%"></stop>
        </linearGradient>
        <linearGradient x1="50%" y1="100%" x2="50%" y2="0%" id="linearGradient-3">
            <stop stop-color="#9EE1EC" offset="0%"></stop>
            <stop stop-color="#E5A7E0" offset="100%"></stop>
        </linearGradient>
        <linearGradient x1="100%" y1="50%" x2="0%" y2="50%" id="linearGradient-4">
            <stop stop-color="#9EE1EC" offset="0%"></stop>
            <stop stop-color="#E5A7E0" offset="100%"></stop>
        </linearGradient>
        <linearGradient x1="50%" y1="-0.000141315192%" x2="50%" y2="99.9987282%" id="linearGradient-5">
            <stop stop-color="#9EE1EC" offset="0%"></stop>
            <stop stop-color="#E5A7E0" offset="100%"></stop>
        </linearGradient>
    </defs>
    <g id="Page-1" stroke="none" stroke-width="1" fill="none" fill-rule="evenodd">
        <g id="logo" transform="translate(-61.000000, -35.000000)" fill-rule="nonzero">
            <g id="menuLogo" transform="translate(61.000000, 35.000000)">
                <path d="M44,22 C44,34.1 34.1,44 22,44 C9.9,44 0,34.1 0,22 C0,9.9 9.9,0 22,0 C34.1,0 44,9.9 44,22 Z" id="Path" fill="#000000"></path>
                <polygon id="Path" fill="url(#linearGradient-1)" points="9 18.8843 17.1036 26.9422 24.3626 27.0792 17.309 34.2012 9 25.7552"></polygon>
                <polygon id="Path" fill="url(#linearGradient-2)" points="18.998 34.5889 27.056 26.4853 27.193 19.2263 34.315 26.2798 25.869 34.5889"></polygon>
                <polygon id="Path" fill="url(#linearGradient-3)" points="35 24.6367 26.8964 16.5788 19.6374 16.4418 26.691 9.31977 35 17.7658"></polygon>
                <polygon id="Path" fill="url(#linearGradient-4)" points="24.9561 9 16.8981 17.1036 16.7611 24.3626 9.63911 17.309 18.0851 9"></polygon>
                <circle id="Oval" fill="url(#linearGradient-5)" cx="22.0802" cy="21.8063" r="3.53819"></circle>
            </g>
        </g>
    </g>
</svg>