<svg width="4320" height="971" viewBox="0 0 4320 971" fill="none" xmlns="http://www.w3.org/2000/svg">
<g clip-path="url(#clip0_536_12529)">
<path d="M343.982 83.9009C220.496 21.5154 0 0 0 0V971H4394.31V420.016C4394.31 420.016 4072.7 275.039 3862.79 306.443C3737.97 325.118 3684.71 400.006 3560.09 420.016C3384.64 448.189 3283.66 394.138 3108.58 363.741C2926.08 332.056 2831.03 255.657 2645.86 259.377C2475.8 262.793 2392.94 359.625 2222.89 363.741C2080.48 367.189 2005.04 308.746 1862.6 306.443C1704.03 303.88 1618.63 376.227 1460.52 363.741C1358.48 355.683 1306.74 314.591 1204.7 306.443C1146.77 301.817 1113.82 311.131 1055.9 306.443C935.571 296.704 874.009 256.893 756.252 230.216C650.906 206.351 583.199 220.905 485.143 175.476C425.548 147.866 402.612 113.521 343.982 83.9009Z" fill="url(#paint0_linear_536_12529)"/>
</g>
<defs>
<linearGradient id="paint0_linear_536_12529" x1="3460.52" y1="204.684" x2="3449.96" y2="645.04" gradientUnits="userSpaceOnUse">
<stop stop-color="#F68B2E"/>
<stop offset="0.951543" stop-color="#F6BB5C"/>
</linearGradient>
<clipPath id="clip0_536_12529">
<rect width="4320" height="971" fill="white"/>
</clipPath>
</defs>
</svg>
