<svg width="200" height="150" viewBox="0 0 200 150" fill="none" xmlns="http://www.w3.org/2000/svg">
<path d="M53.783 105.351H44.6445V111.339H53.783V105.351Z" fill="#F1F2F2"/>
<path d="M70.641 105.351H61.5025V111.339H70.641V105.351Z" fill="#F1F2F2"/>
<path d="M59.913 105.351H55.3438V111.339H59.913V105.351Z" fill="#F1F2F2"/>
<path d="M69.7327 124.649H68.5975C66.6393 124.649 65.05 123.06 65.05 121.102V119.967C65.05 118.009 66.6393 116.419 68.5975 116.419H69.7327C71.691 116.419 73.2803 118.009 73.2803 119.967V121.102C73.252 123.06 71.691 124.649 69.7327 124.649Z" fill="#F1F2F2"/>
<path d="M93.6855 85.0023H44.6445V86.3645H93.6855V85.0023Z" fill="#F1F2F2"/>
<path d="M93.6855 87.9535H44.6445V89.3158H93.6855V87.9535Z" fill="#F1F2F2"/>
<path d="M93.6855 90.8767H44.6445V92.239H93.6855V90.8767Z" fill="#F1F2F2"/>
<path d="M93.6855 93.8285H44.6445V95.1908H93.6855V93.8285Z" fill="#F1F2F2"/>
<path d="M93.6855 96.78H44.6445V98.1423H93.6855V96.78Z" fill="#F1F2F2"/>
<path d="M93.6855 99.703H44.6445V101.065H93.6855V99.703Z" fill="#F1F2F2"/>
<path opacity="0.2" d="M12.4613 52.1095C12.518 58.495 31.0502 58.8072 32.753 67.8605C34.7965 78.645 9.90707 85.8535 10.0206 102.257C10.049 108.33 13.5113 115.482 18.7617 117.299C28.8935 120.79 36.2722 100.214 51.8245 100.384C70.215 100.611 75.4085 124.167 91.188 123.429C108.954 122.634 113.239 90.4795 129.416 90.2807C145.224 90.082 150.701 120.421 165.913 119.484C177.435 118.775 187.425 100.526 188.191 85.229C188.362 81.937 189.099 66.5265 179.479 59.2327C169.205 51.485 155.128 58.7505 151.666 52.592C148.175 46.4617 160.577 36.8125 157.228 31.0798C154.334 26.1415 144.174 31.5623 128.678 28.866C108.159 25.3185 102.2 11.6677 92.4935 15.4422C83.724 18.8478 86.7037 30.7108 75.9762 36.6423C67.973 41.0695 63.0065 36.245 47.8797 37.0963C30.511 38.0613 12.4045 45.7808 12.4613 52.1095Z" fill="#FFC7A8"/>
<path d="M128.934 133.163H16.8038C16.7186 133.163 16.6619 133.107 16.6619 133.021C16.6619 132.936 16.7186 132.88 16.8038 132.88H128.934C129.019 132.88 129.076 132.936 129.076 133.021C129.076 133.107 129.019 133.163 128.934 133.163Z" fill="#2F5373"/>
<path d="M44.5595 23.8714H34.8535C34.3143 23.8714 33.86 23.4173 33.86 22.8781C33.86 22.3388 34.3143 21.8848 34.8535 21.8848H44.5595C45.0988 21.8848 45.5527 22.3388 45.5527 22.8781C45.5527 23.4173 45.0988 23.8714 44.5595 23.8714Z" fill="#F3E6DE"/>
<path d="M101.944 23.8714H92.238C91.6987 23.8714 91.2448 23.4173 91.2448 22.8781C91.2448 22.3388 91.6987 21.8848 92.238 21.8848H101.944C102.483 21.8848 102.937 22.3388 102.937 22.8781C102.966 23.4173 102.512 23.8714 101.944 23.8714Z" fill="#F3E6DE"/>
<path d="M129.615 62.3268H127.912V62.8942H129.615V62.3268Z" fill="#FFC7A8"/>
<path d="M178.003 62.8942H174.54V62.3268H178.003V62.8942ZM171.078 62.8942H167.616V62.3268H171.078V62.8942ZM164.182 62.8942H160.719V62.3268H164.182V62.8942ZM157.257 62.8942H153.795V62.3268H157.257V62.8942ZM150.361 62.8942H146.898V62.3268H150.361V62.8942ZM143.436 62.8942H139.973V62.3268H143.436V62.8942ZM136.54 62.8942H133.077V62.3268H136.54V62.8942Z" fill="#FFC7A8"/>
<path d="M183.14 62.3268H181.437V62.8942H183.14V62.3268Z" fill="#FFC7A8"/>
<path d="M168.042 21.6576V53.273C168.042 53.8122 167.928 54.3232 167.701 54.7772C167.134 55.9125 165.97 56.7355 164.608 56.7355H132.964C131.034 56.7355 129.501 55.1745 129.501 53.273V21.6576C129.501 19.7277 131.062 18.1952 132.964 18.1952H164.579C166.509 18.1668 168.042 19.7277 168.042 21.6576Z" fill="#F1F2F2"/>
<path opacity="0.16" d="M159.102 23.701C158.562 21.9415 156.774 20.7779 154.958 20.4941C155.441 20.3238 155.526 19.5859 155.213 19.1602C154.901 18.7345 154.362 18.5642 153.823 18.4791C153.539 18.4223 153.255 18.3656 153 18.3372C151.467 18.1385 150.077 17.3155 149.169 16.0951C147.636 13.995 144.457 11.5827 139.775 14.3923C138.072 13.7396 135.915 14.1369 134.95 15.8965C134.808 16.1803 134.695 16.4925 134.638 16.8046C134.354 18.5075 134.837 21.1752 136.028 21.8563C136.795 22.3104 137.902 22.651 139.15 22.9064C138.214 26.227 135.432 36.6425 136.426 37.2385C137.05 37.6072 140.144 38.26 143.18 38.544L143.351 39.821L144.003 44.9295C144.315 47.3132 146.473 48.9877 148.857 48.6755C151.241 48.3635 152.915 46.2065 152.603 43.8225L151.496 35.1667L151.382 34.372C151.666 33.7192 151.921 33.0382 152.177 32.357C153.057 32.6125 154.107 32.0165 154.334 31.1082C155.781 30.938 157.37 30.6825 158.25 29.5472C158.846 28.781 158.988 27.7877 159.102 26.8512C159.3 25.8295 159.414 24.7227 159.102 23.701Z" fill="#232323"/>
<path opacity="0.16" d="M168.042 51.4285V53.2733C168.042 53.8125 167.928 54.3233 167.701 54.7775C167.134 55.9125 165.97 56.7355 164.608 56.7355L157.258 40.871C159.244 40.9562 161.798 42.063 163.245 43.255C165.062 44.7593 166.935 48.562 168.042 51.4285Z" fill="#232323"/>
<path d="M169.574 59.6867H140.03C137.987 59.6867 136.341 58.0407 136.341 55.9972V26.482C136.341 24.4385 137.987 22.7925 140.03 22.7925H169.574C171.618 22.7925 173.264 24.4385 173.264 26.482V56.0257C173.264 58.0407 171.618 59.6867 169.574 59.6867ZM140.03 23.2182C138.242 23.2182 136.766 24.6656 136.766 26.482V56.0257C136.766 57.8137 138.214 59.2895 140.03 59.2895H169.574C171.362 59.2895 172.838 57.842 172.838 56.0257V26.482C172.838 24.6939 171.39 23.2182 169.574 23.2182H140.03Z" fill="#232323"/>
<path d="M196.393 29.4052H188.844C188.248 29.4052 187.737 28.9227 187.737 28.2985V20.7777C187.737 20.1817 188.22 19.6709 188.844 19.6709H196.393C196.989 19.6709 197.5 20.1533 197.5 20.7777V28.2985C197.5 28.9227 197.017 29.4052 196.393 29.4052ZM188.872 20.0966C188.503 20.0966 188.191 20.4088 188.191 20.7777V28.2985C188.191 28.6675 188.503 28.9795 188.872 28.9795H196.421C196.79 28.9795 197.103 28.6675 197.103 28.2985V20.7777C197.103 20.4088 196.79 20.0966 196.421 20.0966H188.872Z" fill="#232323"/>
<path d="M196.393 43.2262H188.844C188.248 43.2262 187.737 42.744 187.737 42.1195V34.5988C187.737 34.0028 188.22 33.492 188.844 33.492H196.393C196.989 33.492 197.5 33.9745 197.5 34.5988V42.148C197.5 42.744 197.017 43.2262 196.393 43.2262ZM188.872 33.9178C188.503 33.9178 188.191 34.2298 188.191 34.5988V42.148C188.191 42.5167 188.503 42.829 188.872 42.829H196.421C196.79 42.829 197.103 42.5167 197.103 42.148V34.5988C197.103 34.2298 196.79 33.9178 196.421 33.9178H188.872Z" fill="#232323"/>
<path d="M196.393 57.0477H188.844C188.248 57.0477 187.737 56.5653 187.737 55.9408V48.3918C187.737 47.7958 188.22 47.285 188.844 47.285H196.393C196.989 47.285 197.5 47.7675 197.5 48.3918V55.9408C197.5 56.5653 197.017 57.0477 196.393 57.0477ZM188.872 47.739C188.503 47.739 188.191 48.0512 188.191 48.42V55.9692C188.191 56.3382 188.503 56.6502 188.872 56.6502H196.421C196.79 56.6502 197.103 56.3382 197.103 55.9692V48.42C197.103 48.0512 196.79 47.739 196.421 47.739H188.872Z" fill="#232323"/>
<path d="M195.798 19.0748V27.1348C195.798 27.2768 195.769 27.3903 195.712 27.532C195.57 27.816 195.258 28.043 194.918 28.043H186.858C186.375 28.043 185.978 27.6458 185.978 27.1633V19.0748C185.978 18.5924 186.375 18.195 186.858 18.195H194.918C195.4 18.1667 195.798 18.564 195.798 19.0748Z" fill="#F1F2F2"/>
<path d="M195.798 32.8963V40.956C195.798 41.098 195.769 41.2115 195.712 41.3535C195.57 41.6373 195.258 41.8643 194.918 41.8643H186.858C186.375 41.8643 185.978 41.467 185.978 40.9845V32.8963C185.978 32.4138 186.375 32.0163 186.858 32.0163H194.918C195.4 32.0163 195.798 32.4138 195.798 32.8963Z" fill="#F1F2F2"/>
<path d="M195.798 46.717V54.777C195.798 54.919 195.769 55.0325 195.712 55.1745C195.57 55.4583 195.258 55.6853 194.918 55.6853H186.858C186.375 55.6853 185.978 55.288 185.978 54.8055V46.7455C185.978 46.263 186.375 45.8658 186.858 45.8658H194.918C195.4 45.8373 195.798 46.2348 195.798 46.717Z" fill="#F1F2F2"/>
<path d="M196.393 74.927H188.844C188.362 74.927 187.964 74.5297 187.964 74.0472V66.4983C187.964 66.0158 188.362 65.6185 188.844 65.6185H196.393C196.876 65.6185 197.273 66.0158 197.273 66.4983V74.0472C197.302 74.5297 196.904 74.927 196.393 74.927Z" fill="#FFC7A8"/>
<path d="M196.393 88.7767H188.844C188.362 88.7767 187.964 88.3795 187.964 87.897V80.3477C187.964 79.8652 188.362 79.468 188.844 79.468H196.393C196.876 79.468 197.273 79.8652 197.273 80.3477V87.897C197.302 88.3795 196.904 88.7767 196.393 88.7767Z" fill="#FFC7A8"/>
<path d="M196.393 102.598H188.844C188.362 102.598 187.964 102.201 187.964 101.718V94.169C187.964 93.6867 188.362 93.2893 188.844 93.2893H196.393C196.876 93.2893 197.273 93.6867 197.273 94.169V101.718C197.302 102.201 196.904 102.598 196.393 102.598Z" fill="#FFC7A8"/>
<path d="M194.917 73.9622H186.857C186.261 73.9622 185.751 73.48 185.751 72.8555V64.7955C185.751 64.1995 186.233 63.6888 186.857 63.6888H194.917C195.513 63.6888 196.024 64.1713 196.024 64.7955V72.8555C196.024 73.0257 195.996 73.196 195.911 73.338C195.712 73.7352 195.343 73.9622 194.917 73.9622ZM186.857 64.1428C186.488 64.1428 186.176 64.455 186.176 64.824V72.884C186.176 73.2528 186.488 73.565 186.857 73.565H194.917C195.173 73.565 195.4 73.423 195.514 73.196C195.57 73.111 195.57 72.9975 195.57 72.9122V64.8522C195.57 64.4832 195.258 64.1712 194.889 64.1712H186.857V64.1428Z" fill="#232323"/>
<path d="M194.917 87.812H186.857C186.261 87.812 185.751 87.3295 185.751 86.7053V78.6452C185.751 78.0492 186.233 77.5383 186.857 77.5383H194.917C195.513 77.5383 196.024 78.0207 196.024 78.6452V86.7053C196.024 86.8755 195.996 87.0458 195.911 87.1875C195.712 87.5565 195.343 87.812 194.917 87.812ZM186.857 77.964C186.488 77.964 186.176 78.2762 186.176 78.6452V86.7053C186.176 87.074 186.488 87.3863 186.857 87.3863H194.917C195.173 87.3863 195.4 87.2443 195.514 87.0173C195.57 86.9323 195.57 86.8187 195.57 86.7335V78.6735C195.57 78.3045 195.258 77.9925 194.889 77.9925H186.857V77.964Z" fill="#232323"/>
<path d="M194.917 101.633H186.857C186.261 101.633 185.751 101.151 185.751 100.526V92.4662C185.751 91.8702 186.233 91.3595 186.857 91.3595H194.917C195.513 91.3595 196.024 91.8417 196.024 92.4662V100.526C196.024 100.697 195.996 100.867 195.911 101.009C195.712 101.378 195.343 101.633 194.917 101.633ZM186.857 91.785C186.488 91.785 186.176 92.0972 186.176 92.4662V100.526C186.176 100.895 186.488 101.207 186.857 101.207H194.917C195.173 101.207 195.4 101.065 195.514 100.838C195.57 100.753 195.57 100.64 195.57 100.554V92.4945C195.57 92.1257 195.258 91.8135 194.889 91.8135H186.857V91.785Z" fill="#232323"/>
<path d="M98.2262 60.1125H98.0275V31.2215H98.2262C99.2762 31.2215 100.128 32.0728 100.128 33.123V58.211C100.128 59.261 99.2762 60.1125 98.2262 60.1125Z" fill="#F1F2F2"/>
<path d="M40.075 91.3307H40.2738V120.222H40.075C39.025 120.222 38.1738 119.371 38.1738 118.32V93.2322C38.1738 92.1822 39.025 91.3307 40.075 91.3307Z" fill="#F1F2F2"/>
<path d="M33.2643 73.6217V43.6522C33.2643 42.3467 34.3143 41.2967 35.6198 41.2967H86.2217C87.5272 41.2967 88.5772 42.3467 88.5772 43.6522V73.6217C88.5772 74.9272 87.5272 75.9772 86.2217 75.9772H35.6198C34.3143 75.9772 33.2643 74.9272 33.2643 73.6217Z" fill="#2F5373"/>
<path opacity="0.1" d="M40.5013 41.2967H40.0755V75.9772H40.5013V41.2967Z" fill="#D8D8D8"/>
<path d="M97.46 40.5872L115.283 55.884C115.283 55.884 123.825 78.191 115.198 90.1673L108.188 95.077L110.855 68.9672L97.9993 50.8325L97.46 40.5872Z" fill="#F3E6DE"/>
<path d="M55.0315 56.9625H37.5778C36.6413 56.9625 35.9033 56.1962 35.9033 55.288V45.5252C35.9033 44.5887 36.6695 43.8507 37.5778 43.8507H55.0315C55.968 43.8507 56.706 44.617 56.706 45.5252V55.2598C56.706 56.1963 55.968 56.9625 55.0315 56.9625Z" fill="#F3E6DE"/>
<path d="M82.8158 23.3036H55.4857C51.938 23.3036 49.1 20.4372 49.1 16.9181V13.853H89.2298V16.8897C89.2298 20.4372 86.3633 23.3036 82.8158 23.3036Z" fill="#F3E6DE"/>
<path d="M40.3025 41.5238C40.189 41.5238 40.0755 41.4385 40.0755 41.2967V35.1382C40.0755 35.0247 40.1608 34.9113 40.3025 34.9113C40.4445 34.9113 40.5295 34.9962 40.5295 35.1382V41.2967C40.5012 41.4102 40.416 41.5238 40.3025 41.5238Z" fill="#232323"/>
<path d="M92.806 128.85H45.4963C42.5163 128.85 40.0755 126.409 40.0755 123.429V75.977C40.0755 75.8635 40.1607 75.75 40.3027 75.75C40.4445 75.75 40.5298 75.8352 40.5298 75.977V123.4C40.5298 126.153 42.7718 128.395 45.5245 128.395H92.8345C95.5873 128.395 97.8292 126.153 97.8292 123.4V23.3886C97.8292 20.6357 95.5873 18.3937 92.8345 18.3937H45.4963C42.7433 18.3937 40.5013 20.6357 40.5013 23.3886V29.2917C40.5013 29.4052 40.4163 29.5187 40.2743 29.5187C40.1325 29.5187 40.0472 29.4335 40.0472 29.2917V23.3886C40.0472 20.4087 42.488 17.968 45.4678 17.968H92.7775C95.7575 17.968 98.1982 20.4087 98.1982 23.3886V123.4C98.2265 126.409 95.8142 128.85 92.806 128.85Z" fill="#232323"/>
<path d="M14.1642 41.4953V96.8083H28.326V41.4953H14.1642ZM19.9538 47.512H16.2643V43.8225H19.9538V47.512Z" fill="#FFC7A8"/>
<path d="M86.9027 75.2393H66.3272C66.2137 75.2393 66.1003 75.154 66.1003 75.012C66.1003 74.8703 66.1852 74.785 66.3272 74.785H86.9027C88.2367 74.785 89.315 73.7067 89.315 72.3727V42.971C89.315 41.637 88.2367 40.5585 86.9027 40.5585H44.7015C44.588 40.5585 44.4745 40.4735 44.4745 40.3315C44.4745 40.1898 44.5595 40.1045 44.7015 40.1045H86.9027C88.4637 40.1045 89.7408 41.3815 89.7408 42.9425V72.3727C89.7408 73.9905 88.4637 75.2393 86.9027 75.2393Z" fill="#232323"/>
<path d="M43.623 47.512V53.188C43.623 53.6138 44.1055 53.8975 44.4745 53.642L48.5895 50.946C48.9018 50.7472 48.93 50.2648 48.618 50.0378L44.5028 47.0578C44.1338 46.8025 43.623 47.0578 43.623 47.512Z" fill="#FFC7A8"/>
<path d="M86.1935 51.3997V55.2313C86.1935 55.7988 85.7393 56.2528 85.1718 56.2528H79.666C79.0983 56.2528 78.6442 55.7988 78.6442 55.2313V51.3997C78.6442 50.8322 79.0983 50.3783 79.666 50.3783H85.1718C85.7393 50.3783 86.1935 50.8322 86.1935 51.3997Z" fill="#F3E6DE"/>
<path d="M81.6807 52.3367V54.4652C81.6807 54.6355 81.851 54.7208 81.993 54.6355L83.5255 53.614C83.639 53.5287 83.639 53.3585 83.5255 53.2732L81.993 52.1665C81.8795 52.053 81.6807 52.1665 81.6807 52.3367Z" fill="#FFC7A8"/>
<path d="M76.6572 51.3997V55.2313C76.6572 55.7988 76.2032 56.2528 75.6355 56.2528H70.1298C69.5623 56.2528 69.108 55.7988 69.108 55.2313V51.3997C69.108 50.8322 69.5623 50.3783 70.1298 50.3783H75.6355C76.2032 50.3783 76.6572 50.8322 76.6572 51.3997Z" fill="#F3E6DE"/>
<path d="M72.1735 52.3367V54.4652C72.1735 54.6355 72.3437 54.7208 72.4855 54.6355L74.018 53.614C74.1317 53.5287 74.1317 53.3585 74.018 53.2732L72.4855 52.1665C72.3437 52.053 72.1735 52.1665 72.1735 52.3367Z" fill="#FFC7A8"/>
<path d="M67.1215 51.3997V55.2313C67.1215 55.7988 66.6675 56.2528 66.1 56.2528H60.5942C60.0265 56.2528 59.5725 55.7988 59.5725 55.2313V51.3997C59.5725 50.8322 60.0265 50.3783 60.5942 50.3783H66.1C66.6675 50.3783 67.1215 50.8322 67.1215 51.3997Z" fill="#F3E6DE"/>
<path d="M62.6377 52.3367V54.4652C62.6377 54.6355 62.808 54.7208 62.95 54.6355L64.4825 53.614C64.596 53.5287 64.596 53.3585 64.4825 53.2732L62.95 52.1665C62.808 52.053 62.6377 52.1665 62.6377 52.3367Z" fill="#FFC7A8"/>
<path d="M86.1935 59.091V62.9222C86.1935 63.49 85.7393 63.944 85.1718 63.944H79.666C79.0983 63.944 78.6442 63.49 78.6442 62.9222V59.091C78.6442 58.5235 79.0983 58.0692 79.666 58.0692H85.1718C85.7393 58.041 86.1935 58.5235 86.1935 59.091Z" fill="#F3E6DE"/>
<path d="M81.6807 59.9992V62.1278C81.6807 62.2983 81.851 62.3832 81.993 62.2982L83.5255 61.2765C83.639 61.1913 83.639 61.021 83.5255 60.936L81.993 59.829C81.8795 59.744 81.6807 59.829 81.6807 59.9992Z" fill="#FFC7A8"/>
<path d="M76.6572 59.091V62.9222C76.6572 63.49 76.2032 63.944 75.6355 63.944H70.1298C69.5623 63.944 69.108 63.49 69.108 62.9222V59.091C69.108 58.5235 69.5623 58.0692 70.1298 58.0692H75.6355C76.2032 58.041 76.6572 58.5235 76.6572 59.091Z" fill="#F3E6DE"/>
<path d="M72.1735 59.9992V62.1278C72.1735 62.2983 72.3437 62.3832 72.4855 62.2982L74.018 61.2765C74.1317 61.1913 74.1317 61.021 74.018 60.936L72.4855 59.829C72.3437 59.744 72.1735 59.829 72.1735 59.9992Z" fill="#FFC7A8"/>
<path d="M67.1215 59.091V62.9222C67.1215 63.49 66.6675 63.944 66.1 63.944H60.5942C60.0265 63.944 59.5725 63.49 59.5725 62.9222V59.091C59.5725 58.5235 60.0265 58.0692 60.5942 58.0692H66.1C66.6675 58.041 67.1215 58.5235 67.1215 59.091Z" fill="#F3E6DE"/>
<path d="M62.6377 59.9992V62.1278C62.6377 62.2983 62.808 62.3832 62.95 62.2982L64.4825 61.2765C64.596 61.1913 64.596 61.021 64.4825 60.936L62.95 59.829C62.808 59.744 62.6377 59.829 62.6377 59.9992Z" fill="#FFC7A8"/>
<path d="M86.1935 66.7538V70.5853C86.1935 71.1528 85.7393 71.607 85.1718 71.607H79.666C79.0983 71.607 78.6442 71.1528 78.6442 70.5853V66.7538C78.6442 66.1863 79.0983 65.7322 79.666 65.7322H85.1718C85.7393 65.7322 86.1935 66.1863 86.1935 66.7538Z" fill="#F3E6DE"/>
<path d="M81.6807 67.6902V69.8187C81.6807 69.989 81.851 70.0742 81.993 69.989L83.5255 68.9672C83.639 68.8822 83.639 68.712 83.5255 68.6267L81.993 67.52C81.8795 67.4347 81.6807 67.52 81.6807 67.6902Z" fill="#FFC7A8"/>
<path d="M76.6572 66.7538V70.5853C76.6572 71.1528 76.2032 71.607 75.6355 71.607H70.1298C69.5623 71.607 69.108 71.1528 69.108 70.5853V66.7538C69.108 66.1863 69.5623 65.7322 70.1298 65.7322H75.6355C76.2032 65.7322 76.6572 66.1863 76.6572 66.7538Z" fill="#F3E6DE"/>
<path d="M72.1735 67.6902V69.8187C72.1735 69.989 72.3437 70.0742 72.4855 69.989L74.018 68.9672C74.1317 68.8822 74.1317 68.712 74.018 68.6267L72.4855 67.52C72.3437 67.4347 72.1735 67.52 72.1735 67.6902Z" fill="#FFC7A8"/>
<path d="M66.1 65.7322H60.5942C60.0265 65.7322 59.5725 66.1863 59.5725 66.7538V70.5853C59.5725 71.1528 60.0265 71.607 60.5942 71.607H66.1C66.6675 71.607 67.1215 71.1528 67.1215 70.5853V66.7538C67.1215 66.1863 66.6675 65.7322 66.1 65.7322ZM64.4822 68.9675L62.9497 69.9893C62.8077 70.0743 62.6375 69.9893 62.6375 69.819V67.6905C62.6375 67.5202 62.8363 67.435 62.978 67.5202L64.5105 68.627C64.624 68.712 64.624 68.8825 64.4822 68.9675Z" fill="#FFC7A8"/>
<path d="M64.4825 68.9672L62.95 69.989C62.808 70.0742 62.6377 69.989 62.6377 69.8187V67.6902C62.6377 67.52 62.8362 67.4347 62.9782 67.52L64.5107 68.6267C64.6242 68.712 64.6242 68.8822 64.4825 68.9672Z" fill="#F3E6DE"/>
<path d="M88.5772 79.2125V79.3545C88.5772 79.7235 88.265 80.0358 87.8962 80.0358H54.521C54.663 79.8653 54.748 79.6382 54.748 79.4112V79.1842C54.748 78.9287 54.663 78.7018 54.521 78.5315H87.9245C88.265 78.5315 88.5772 78.8438 88.5772 79.2125Z" fill="#F3E6DE"/>
<path d="M49.299 80.0358H33.9455C33.5765 80.0358 33.2643 79.7235 33.2643 79.3545V79.2125C33.2643 78.8438 33.5765 78.5315 33.9455 78.5315H49.299C49.668 78.5315 49.9803 78.8438 49.9803 79.2125V79.3545C49.9803 79.7517 49.668 80.0358 49.299 80.0358Z" fill="#2F5373"/>
<path d="M54.7477 79.1842V79.4112C54.7477 79.6382 54.6625 79.8655 54.5207 80.0358C54.3505 80.2628 54.0383 80.433 53.726 80.433H49.2702C48.7027 80.433 48.2487 79.979 48.2487 79.4112V79.1842C48.2487 78.6167 48.7027 78.1625 49.2702 78.1625H53.726C54.0383 78.1625 54.322 78.3045 54.5207 78.5315C54.6625 78.7303 54.7477 78.9572 54.7477 79.1842Z" fill="#FFC7A8"/>
<path opacity="0.4" d="M56.5075 58.8643H36.1305C35.9885 58.8643 35.875 58.7507 35.875 58.6087V58.552C35.875 58.4102 35.9885 58.2967 36.1305 58.2967H56.5075C56.6492 58.2967 56.7627 58.4102 56.7627 58.552V58.6087C56.7627 58.7507 56.6492 58.8643 56.5075 58.8643Z" fill="#F1F2F2"/>
<path d="M43.8215 59.006H42.1755C41.9767 59.006 41.8065 58.8355 41.8065 58.637V58.5518C41.8065 58.3533 41.9767 58.1828 42.1755 58.1828H43.8215C44.0202 58.1828 44.1905 58.3533 44.1905 58.5518V58.637C44.1905 58.864 44.0202 59.006 43.8215 59.006Z" fill="#FFC7A8"/>
<path d="M117.071 70.358C111.735 49.5555 103.079 37.0965 99.39 34.372C95.956 31.8463 91.614 31.534 90.9327 32.4138C90.507 32.953 92.7775 35.3085 93.6572 36.2735C101.15 44.5888 105.804 62.7523 100.015 76.9423C96.836 84.7185 89.826 93.0623 85.0297 91.927C83.1282 91.473 59.4593 69.1945 57.2173 71.3798C55.9685 72.6 59.374 76.3463 63.3473 85.4563C65.9583 91.4445 69.903 104.131 69.1085 117.356C68.8247 122.237 67.5192 130.921 61.162 140.996L100.242 140.486C100.242 140.486 118.235 104.982 121.186 82.0223C121.896 76.4315 118.036 74.161 117.071 70.358Z" fill="#FFC7A8"/>
<path d="M104.243 70.131C104.101 70.1025 104.016 70.0175 104.045 69.904C105.01 61.4467 101.462 50.1798 98.5387 45.27C98.482 45.1565 98.5105 45.043 98.624 44.9863C98.7375 44.9295 98.851 44.9578 98.9078 45.0713C101.859 50.0378 105.435 61.4467 104.47 69.9607C104.442 70.0457 104.357 70.131 104.243 70.131Z" fill="#232323"/>
<path d="M19.9538 43.8225H16.2644V47.512H19.9538V43.8225Z" fill="#F3E6DE"/>
<path opacity="0.77" d="M26.68 52.1097H16.2644V53.4152H26.68V52.1097Z" fill="#F1F2F2"/>
<path opacity="0.77" d="M26.68 54.976H16.2644V56.2815H26.68V54.976Z" fill="#F1F2F2"/>
<path opacity="0.77" d="M26.68 57.8423H16.2644V59.1478H26.68V57.8423Z" fill="#F1F2F2"/>
<path opacity="0.77" d="M26.68 60.7088H16.2644V62.0143H26.68V60.7088Z" fill="#F1F2F2"/>
<path opacity="0.77" d="M26.68 63.6035H16.2644V64.909H26.68V63.6035Z" fill="#F1F2F2"/>
<path opacity="0.77" d="M26.68 66.47H16.2644V67.7755H26.68V66.47Z" fill="#F1F2F2"/>
<path opacity="0.77" d="M26.68 69.3363H16.2644V70.6417H26.68V69.3363Z" fill="#F1F2F2"/>
<path opacity="0.77" d="M26.68 75.0975H16.2644V76.403H26.68V75.0975Z" fill="#F1F2F2"/>
<path opacity="0.77" d="M26.68 77.9638H16.2644V79.2692H26.68V77.9638Z" fill="#F1F2F2"/>
<path opacity="0.77" d="M26.68 80.83H16.2644V82.1355H26.68V80.83Z" fill="#F1F2F2"/>
<path opacity="0.77" d="M26.68 83.6967H16.2644V85.0023H26.68V83.6967Z" fill="#F1F2F2"/>
<path opacity="0.77" d="M26.68 86.5915H16.2644V87.897H26.68V86.5915Z" fill="#F1F2F2"/>
<path opacity="0.77" d="M26.68 89.458H16.2644V90.7635H26.68V89.458Z" fill="#F1F2F2"/>
<path d="M26.68 99.8167H16.2644V101.122H26.68V99.8167Z" fill="#FFC7A8"/>
<path d="M26.68 102.598H16.2644V103.904H26.68V102.598Z" fill="#FFC7A8"/>
<path opacity="0.77" d="M146.984 65.8455H136.568V67.151H146.984V65.8455Z" fill="#2F5373"/>
<path opacity="0.77" d="M151.922 68.7122H136.568V70.0178H151.922V68.7122Z" fill="#2F5373"/>
<path opacity="0.77" d="M151.922 71.5782H136.568V72.8838H151.922V71.5782Z" fill="#2F5373"/>
<path d="M173.32 124.877H138.441V126.182H173.32V124.877Z" fill="#2F5373"/>
<path d="M173.32 127.743H138.441V129.048H173.32V127.743Z" fill="#2F5373"/>
<path d="M85.9375 35.337H35.9032C34.3422 35.337 33.0652 34.0598 33.0652 32.499V31.903C33.0652 30.342 34.3422 29.065 35.9032 29.065H85.9375C87.4985 29.065 88.7755 30.342 88.7755 31.903V32.499C88.7755 34.0883 87.5267 35.337 85.9375 35.337ZM35.9032 29.519C34.5695 29.519 33.491 30.5975 33.491 31.9313V32.5273C33.491 33.8613 34.5695 34.9398 35.9032 34.9398H85.9375C87.2715 34.9398 88.3497 33.8613 88.3497 32.5273V31.9313C88.3497 30.5975 87.2715 29.519 85.9375 29.519H35.9032Z" fill="#232323"/>
<path opacity="0.2" d="M40.5013 29.15H40.0755V34.9963H40.5013V29.15Z" fill="#232323"/>
<path d="M39.593 71.2663H37.209C36.8402 71.2663 36.528 70.954 36.528 70.585V68.2012C36.528 67.8322 36.8402 67.52 37.209 67.52H39.593C39.962 67.52 40.2743 67.8322 40.2743 68.2012V70.585C40.2743 70.954 39.962 71.2663 39.593 71.2663Z" fill="#FFC7A8"/>
<path d="M47.823 67.8037H41.4375V68.428H47.823V67.8037Z" fill="#FFC7A8"/>
<path d="M43.6227 69.081H41.4375V69.7055H43.6227V69.081Z" fill="#FFC7A8"/>
<path d="M42.2605 60.1128H35.875V60.7373H42.2605V60.1128Z" fill="#FFC7A8"/>
<path d="M38.0602 61.3615H35.875V61.986H38.0602V61.3615Z" fill="#FFC7A8"/>
<path d="M52.2217 70.3295H41.4375V70.954H52.2217V70.3295Z" fill="#FFC7A8"/>
<path d="M86.477 43.8225H72.7128V46.2632H86.477V43.8225Z" fill="#FFC7A8"/>
<path d="M162.167 43.085C160.578 42.1485 158.052 40.7578 156.094 40.6728C150.333 40.4173 136.114 39.4808 132.424 42.943C129.615 45.5825 128.167 49.4705 127.429 52.3085C126.919 54.2385 128.252 56.1683 130.267 56.367C131.374 56.4805 133.645 56.6223 136.483 56.7925L168.524 56.7075C168.524 56.7358 166.481 45.6393 162.167 43.085Z" fill="#F3E6DE"/>
<path d="M147.466 47.143C145.082 47.455 142.925 45.7523 142.641 43.3968L141.988 38.2882L141.421 33.719L150.02 32.6405L150.162 33.634L151.269 42.29C151.524 44.6738 149.85 46.859 147.466 47.143Z" fill="#FFBF85"/>
<path opacity="0.4" d="M150.134 33.6623C149.396 35.4503 148.544 37.0112 147.92 37.6922C147.21 38.4585 144.656 38.5152 141.988 38.2882L141.421 33.719L150.02 32.6405L150.134 33.6623Z" fill="#232323"/>
<path d="M138.072 20.352C138.072 20.352 133.872 34.9962 135.064 35.7057C136.256 36.4152 146.473 38.118 148.033 36.4152C149.594 34.7407 152.489 27.5322 151.751 25.2617C151.013 22.9913 142.613 19.0465 138.072 20.352Z" fill="#FFBF85"/>
<path d="M135.433 20.6925C134.241 20.0114 133.758 17.3153 134.042 15.6408C134.099 15.3286 134.184 15.0165 134.354 14.7327C135.319 12.9447 137.476 12.5758 139.179 13.2285C143.833 10.4189 147.04 12.8312 148.573 14.9313C149.481 16.1801 150.871 16.9747 152.404 17.1734C152.688 17.2017 152.972 17.2585 153.227 17.3153C153.738 17.4288 154.277 17.5991 154.618 17.9964C154.93 18.4221 154.873 19.16 154.362 19.3303C156.179 19.6141 157.995 20.7776 158.506 22.5372C158.818 23.5589 158.676 24.6373 158.534 25.6875C158.421 26.624 158.279 27.6457 157.683 28.3835C156.803 29.5187 155.185 29.7742 153.766 29.9445C153.539 30.881 152.432 31.477 151.524 31.1647C150.247 29.604 149.935 27.3335 150.73 25.4605C149.481 24.836 148.459 23.8143 147.806 22.594C147.778 22.594 138.64 22.5372 135.433 20.6925Z" fill="#2F5373"/>
<path d="M139.009 32.8677C138.526 32.8677 137.987 32.6975 137.533 32.4137C137.448 32.357 137.42 32.2153 137.476 32.13C137.533 32.0448 137.675 32.0165 137.76 32.0732C138.327 32.4422 139.037 32.584 139.52 32.3855C139.832 32.2435 140.059 31.988 140.144 31.6192C140.172 31.5055 140.286 31.4205 140.399 31.4487C140.513 31.4772 140.598 31.5907 140.57 31.7042C140.456 32.2152 140.144 32.584 139.69 32.7827C139.463 32.8395 139.236 32.8677 139.009 32.8677Z" fill="#232323"/>
<path d="M139.548 29.8595C139.519 29.8595 139.519 29.8595 139.491 29.8595C139.037 29.7742 137.533 29.4052 137.419 28.6957C137.306 28.0715 138.895 25.943 139.378 25.2902C139.463 25.205 139.576 25.1767 139.69 25.2617C139.775 25.347 139.803 25.4605 139.718 25.574C138.782 26.7945 137.788 28.327 137.845 28.639C137.902 28.923 138.782 29.2635 139.605 29.4337C139.718 29.462 139.803 29.5757 139.775 29.6892C139.746 29.7742 139.661 29.8595 139.548 29.8595Z" fill="#232323"/>
<path d="M139.491 76.3177L140.4 78.1342L142.443 78.4465L140.967 79.8655L141.307 81.8805L139.491 80.9155L137.703 81.8805L138.044 79.8655L136.568 78.4465L138.611 78.1342L139.491 76.3177Z" fill="#F3DF88"/>
<path d="M147.693 76.3177L148.602 78.1342L150.617 78.4465L149.169 79.8655L149.51 81.8805L147.693 80.9155L145.877 81.8805L146.217 79.8655L144.77 78.4465L146.785 78.1342L147.693 76.3177Z" fill="#F3DF88"/>
<path d="M155.895 76.3177L156.775 78.1342L158.818 78.4465L157.342 79.8655L157.683 81.8805L155.895 80.9155L154.079 81.8805L154.419 79.8655L152.943 78.4465L154.986 78.1342L155.895 76.3177Z" fill="#F3DF88"/>
<path d="M164.068 76.3177L164.977 78.1342L166.992 78.4465L165.544 79.8655L165.885 81.8805L164.068 80.9155L162.252 81.8805L162.592 79.8655L161.145 78.4465L163.16 78.1342L164.068 76.3177Z" fill="#F3DF88"/>
<path d="M172.27 76.3177L173.15 78.1342L175.193 78.4465L173.718 79.8655L174.059 81.8805L172.27 80.9155L170.454 81.8805L170.795 79.8655L169.319 78.4465L171.362 78.1342L172.27 76.3177Z" fill="#F3DF88"/>
<path d="M148.374 111.537H138.441V118.178H148.374V111.537Z" fill="#FFC7A8"/>
<path d="M148.374 119.456H138.441V120.761H148.374V119.456Z" fill="#F1F2F2"/>
<path d="M160.861 111.537H150.928V118.178H160.861V111.537Z" fill="#F3E6DE"/>
<path d="M160.861 119.456H150.928V120.761H160.861V119.456Z" fill="#F1F2F2"/>
<path d="M173.32 111.537H163.387V118.178H173.32V111.537Z" fill="#FFC7A8"/>
<path d="M173.32 119.456H163.387V120.761H173.32V119.456Z" fill="#F1F2F2"/>
<path d="M148.374 98.3978H138.441V105.039H148.374V98.3978Z" fill="#F3E6DE"/>
<path d="M148.374 106.344H138.441V107.65H148.374V106.344Z" fill="#F1F2F2"/>
<path d="M160.861 98.3978H150.928V105.039H160.861V98.3978Z" fill="#FFC7A8"/>
<path d="M160.861 106.344H150.928V107.65H160.861V106.344Z" fill="#F1F2F2"/>
<path d="M173.32 98.3978H163.387V105.039H173.32V98.3978Z" fill="#F3E6DE"/>
<path d="M173.32 106.344H163.387V107.65H173.32V106.344Z" fill="#F1F2F2"/>
<path d="M148.374 85.286H138.441V91.9268H148.374V85.286Z" fill="#F3E6DE"/>
<path d="M148.374 93.2322H138.441V94.5378H148.374V93.2322Z" fill="#F1F2F2"/>
<path d="M160.861 85.286H150.928V91.9268H160.861V85.286Z" fill="#F3E6DE"/>
<path d="M160.861 93.2322H150.928V94.5378H160.861V93.2322Z" fill="#F1F2F2"/>
<path d="M173.32 85.286H163.387V91.9268H173.32V85.286Z" fill="#FFC7A8"/>
<path d="M173.32 93.2322H163.387V94.5378H173.32V93.2322Z" fill="#F1F2F2"/>
<path d="M148.374 95.4743H138.441V96.127H148.374V95.4743Z" fill="#F1F2F2"/>
<path d="M160.861 95.4743H150.928V96.127H160.861V95.4743Z" fill="#F1F2F2"/>
<path d="M173.32 95.4743H163.387V96.127H173.32V95.4743Z" fill="#F1F2F2"/>
<path d="M148.374 108.586H138.441V109.239H148.374V108.586Z" fill="#F1F2F2"/>
<path d="M160.861 108.586H150.928V109.239H160.861V108.586Z" fill="#F1F2F2"/>
<path d="M173.32 108.586H163.387V109.239H173.32V108.586Z" fill="#F1F2F2"/>
<path d="M148.374 121.84H138.441V122.492H148.374V121.84Z" fill="#F1F2F2"/>
<path d="M160.861 121.84H150.928V122.492H160.861V121.84Z" fill="#F1F2F2"/>
<path d="M173.32 121.84H163.387V122.492H173.32V121.84Z" fill="#F1F2F2"/>
<path d="M65.5605 9H63.8577V9.5676H65.5605V9Z" fill="#FFC7A8"/>
<path d="M113.921 9.5676H110.459V9H113.921V9.5676ZM107.024 9.5676H103.562V9H107.024V9.5676ZM100.1 9.5676H96.6373V9H100.1V9.5676ZM93.2032 9.5676H89.741V9H93.2032V9.5676ZM86.2785 9.5676H82.8163V9H86.2785V9.5676ZM79.3822 9.5676H75.9197V9H79.3822V9.5676ZM72.4575 9.5676H68.995V9H72.4575V9.5676Z" fill="#FFC7A8"/>
<path d="M119.086 9H117.383V9.5676H119.086V9Z" fill="#FFC7A8"/>
<path d="M60.793 139.606C60.8213 139.634 60.878 139.634 60.9065 139.663C60.9633 139.691 61.02 139.719 61.0768 139.719C61.1335 139.719 61.1903 139.719 61.247 139.719C61.3038 139.719 61.3605 139.691 61.3887 139.634C61.4457 139.606 61.474 139.577 61.5025 139.52C61.5307 139.492 61.5308 139.464 61.5593 139.407C61.5875 139.322 61.5875 139.265 61.5593 139.18C61.5308 139.151 61.5307 139.123 61.5025 139.066C61.474 139.01 61.4173 138.953 61.3605 138.924C61.332 138.896 61.2753 138.896 61.247 138.868C61.1903 138.84 61.1335 138.811 61.0768 138.811C61.02 138.811 60.9633 138.811 60.9065 138.811C60.8498 138.811 60.793 138.84 60.7645 138.896C60.7078 138.925 60.6793 138.953 60.651 139.01C60.6225 139.038 60.6225 139.066 60.5943 139.123C60.5658 139.208 60.5658 139.265 60.5943 139.35C60.6225 139.379 60.6225 139.407 60.651 139.464C60.6793 139.52 60.736 139.577 60.793 139.606Z" fill="#2F5373"/>
<path d="M65.0498 137.704C65.589 137.704 65.589 136.853 65.0498 136.853C64.5105 136.853 64.5105 137.704 65.0498 137.704Z" fill="#2F5373"/>
<path d="M71.2653 139.634C71.8045 139.634 71.8045 138.783 71.2653 138.783C70.726 138.783 70.726 139.634 71.2653 139.634Z" fill="#2F5373"/>
<path d="M84.8878 138.839C85.427 138.839 85.427 137.988 84.8878 137.988C84.3485 137.988 84.3485 138.839 84.8878 138.839Z" fill="#2F5373"/>
<path d="M87.7258 140.117C88.265 140.117 88.265 139.265 87.7258 139.265C87.1865 139.265 87.1865 140.117 87.7258 140.117Z" fill="#2F5373"/>
<path d="M81.5105 139.038C82.0497 139.038 82.0497 138.186 81.5105 138.186C80.9712 138.186 80.943 139.038 81.5105 139.038Z" fill="#2F5373"/>
<path d="M69.7325 136.427C70.2718 136.427 70.2718 135.576 69.7325 135.576C69.1933 135.576 69.1933 136.427 69.7325 136.427Z" fill="#2F5373"/>
<path d="M84.6323 136.995C85.1713 136.995 85.1713 136.143 84.6323 136.143C84.093 136.143 84.093 136.995 84.6323 136.995Z" fill="#2F5373"/>
<path d="M89.5705 137.137C90.1097 137.137 90.1097 136.285 89.5705 136.285C89.003 136.285 89.003 137.137 89.5705 137.137Z" fill="#2F5373"/>
<path d="M73.5357 138.045C74.075 138.045 74.075 137.193 73.5357 137.193C72.9682 137.193 72.9682 138.045 73.5357 138.045Z" fill="#2F5373"/>
<path d="M78.8428 137.279C79.382 137.279 79.382 136.427 78.8428 136.427C78.275 136.427 78.275 137.279 78.8428 137.279Z" fill="#2F5373"/>
<path d="M77.5943 139.889C78.1335 139.889 78.1335 139.038 77.5943 139.038C77.055 139.038 77.055 139.889 77.5943 139.889Z" fill="#2F5373"/>
<path d="M92.4085 139.35C92.9477 139.35 92.9477 138.499 92.4085 138.499C91.841 138.499 91.841 139.35 92.4085 139.35Z" fill="#2F5373"/>
<path d="M73.933 141.025C74.4723 141.025 74.4723 140.173 73.933 140.173C73.3938 140.173 73.3938 141.025 73.933 141.025Z" fill="#2F5373"/>
<path d="M97.375 136.143C97.9143 136.143 97.9143 135.292 97.375 135.292C96.8358 135.292 96.8358 136.143 97.375 136.143Z" fill="#2F5373"/>
<path d="M103.931 140.06C104.47 140.06 104.47 139.208 103.931 139.208C103.363 139.208 103.363 140.06 103.931 140.06Z" fill="#2F5373"/>
<path d="M61.559 136.342C62.0982 136.342 62.0982 135.491 61.559 135.491C60.9915 135.491 60.9915 136.342 61.559 136.342Z" fill="#2F5373"/>
<path d="M97.375 138.811C97.9143 138.811 97.9143 137.96 97.375 137.96C96.8358 137.96 96.8358 138.811 97.375 138.811Z" fill="#2F5373"/>
<path d="M100.923 139.294C101.462 139.294 101.462 138.442 100.923 138.442C100.383 138.442 100.383 139.294 100.923 139.294Z" fill="#2F5373"/>
<path d="M94.7355 140.599C95.2747 140.599 95.2747 139.747 94.7355 139.747C94.1962 139.747 94.1962 140.599 94.7355 140.599Z" fill="#2F5373"/>
<path d="M99.8438 135.916C100.383 135.916 100.383 135.065 99.8438 135.065C99.3045 135.065 99.3045 135.916 99.8438 135.916Z" fill="#2F5373"/>
<path d="M102.995 136.03C103.534 136.03 103.534 135.178 102.995 135.178C102.455 135.178 102.455 136.03 102.995 136.03Z" fill="#2F5373"/>
<path d="M64.6525 140.117C65.1917 140.117 65.1917 139.265 64.6525 139.265C64.085 139.265 64.085 140.117 64.6525 140.117Z" fill="#2F5373"/>
<path d="M68.7395 139.35C69.2788 139.35 69.2788 138.499 68.7395 138.499C68.1718 138.499 68.1718 139.35 68.7395 139.35Z" fill="#2F5373"/>
<path d="M95.1613 131.518C95.7003 131.518 95.7003 130.666 95.1613 130.666C94.622 130.666 94.622 131.518 95.1613 131.518Z" fill="#2F5373"/>
<path d="M98.141 131.716C98.6803 131.716 98.6803 130.865 98.141 130.865C97.6018 130.865 97.6018 131.716 98.141 131.716Z" fill="#2F5373"/>
<path d="M99.305 126.182C99.8443 126.182 99.8443 125.33 99.305 125.33C98.7658 125.33 98.7658 126.182 99.305 126.182Z" fill="#2F5373"/>
<path d="M101.887 130.24C102.427 130.24 102.427 129.389 101.887 129.389C101.32 129.389 101.32 130.24 101.887 130.24Z" fill="#2F5373"/>
<path d="M107.308 122.123C107.847 122.123 107.847 121.272 107.308 121.272C106.769 121.272 106.769 122.123 107.308 122.123Z" fill="#2F5373"/>
<path d="M98.141 118.519C98.6803 118.519 98.6803 117.668 98.141 117.668C97.6018 117.668 97.6018 118.519 98.141 118.519Z" fill="#2F5373"/>
<path d="M101.972 123.315C102.512 123.315 102.512 122.464 101.972 122.464C101.433 122.464 101.433 123.315 101.972 123.315Z" fill="#2F5373"/>
<path d="M104.328 116.05C104.867 116.05 104.867 115.199 104.328 115.199C103.789 115.199 103.789 116.05 104.328 116.05Z" fill="#2F5373"/>
<path d="M93.572 135.462C94.1112 135.462 94.1112 134.611 93.572 134.611C93.0045 134.611 93.0045 135.462 93.572 135.462Z" fill="#2F5373"/>
<path d="M86.3068 131.829C86.846 131.829 86.846 130.978 86.3068 130.978C85.7675 130.978 85.7675 131.829 86.3068 131.829Z" fill="#2F5373"/>
<path d="M92.8058 128.112C93.345 128.112 93.345 127.26 92.8058 127.26C92.2665 127.26 92.2665 128.112 92.8058 128.112Z" fill="#2F5373"/>
<path d="M108.699 116.164C109.238 116.164 109.238 115.312 108.699 115.312C108.16 115.312 108.16 116.164 108.699 116.164Z" fill="#2F5373"/>
<path d="M113.921 117.866C114.46 117.866 114.46 117.015 113.921 117.015C113.382 117.015 113.382 117.866 113.921 117.866Z" fill="#2F5373"/>
<path d="M111.679 109.665C112.218 109.665 112.218 108.813 111.679 108.813C111.14 108.813 111.14 109.665 111.679 109.665Z" fill="#2F5373"/>
<path d="M116.588 98.9935C117.127 98.9935 117.127 98.142 116.588 98.142C116.049 98.142 116.021 98.9935 116.588 98.9935Z" fill="#2F5373"/>
<path d="M109.124 104.982C109.664 104.982 109.664 104.131 109.124 104.131C108.585 104.131 108.585 104.982 109.124 104.982Z" fill="#2F5373"/>
<path d="M102.738 112.644C103.278 112.644 103.278 111.793 102.738 111.793C102.171 111.793 102.171 112.644 102.738 112.644Z" fill="#2F5373"/>
<path d="M116.163 103.052C116.702 103.052 116.702 102.201 116.163 102.201C115.624 102.201 115.595 103.052 116.163 103.052Z" fill="#2F5373"/>
<path d="M116.787 107.423C117.326 107.423 117.326 106.571 116.787 106.571C116.248 106.571 116.248 107.423 116.787 107.423Z" fill="#2F5373"/>
<path d="M118.064 95.276C118.604 95.276 118.604 94.4245 118.064 94.4245C117.525 94.4245 117.525 95.276 118.064 95.276Z" fill="#2F5373"/>
<path d="M119.767 87.0738C120.306 87.0738 120.306 86.2225 119.767 86.2225C119.228 86.2225 119.228 87.0738 119.767 87.0738Z" fill="#2F5373"/>
<path d="M117.865 76.9423C118.405 76.9423 118.405 76.0908 117.865 76.0908C117.326 76.0908 117.326 76.9423 117.865 76.9423Z" fill="#2F5373"/>
<path d="M116.163 81.937C116.702 81.937 116.702 81.0857 116.163 81.0857C115.624 81.0857 115.595 81.937 116.163 81.937Z" fill="#2F5373"/>
<path d="M115.51 88.9753C116.049 88.9753 116.049 88.1237 115.51 88.1237C114.971 88.1237 114.971 88.9753 115.51 88.9753Z" fill="#2F5373"/>
<path d="M112.416 98.9082C112.956 98.9082 112.956 98.057 112.416 98.057C111.877 98.057 111.877 98.9082 112.416 98.9082Z" fill="#2F5373"/>
<path d="M122.435 91.4445C122.974 91.4445 122.974 90.593 122.435 90.593C121.896 90.593 121.896 91.4445 122.435 91.4445Z" fill="#2F5373"/>
<path d="M15.6117 112.645C16.4268 112.645 17.0875 111.984 17.0875 111.169C17.0875 110.353 16.4268 109.693 15.6117 109.693C14.7967 109.693 14.1359 110.353 14.1359 111.169C14.1359 111.984 14.7967 112.645 15.6117 112.645Z" fill="#F3E6DE"/>
<path d="M15.6117 121.357C16.4268 121.357 17.0875 120.696 17.0875 119.881C17.0875 119.066 16.4268 118.406 15.6117 118.406C14.7967 118.406 14.1359 119.066 14.1359 119.881C14.1359 120.696 14.7967 121.357 15.6117 121.357Z" fill="#FFC7A8"/>
<path d="M15.6117 114.489C16.1793 114.489 16.6618 114.943 16.6618 115.539C16.6618 116.107 16.2077 116.589 15.6117 116.589C15.0157 116.589 14.5616 116.135 14.5616 115.539C14.59 114.972 15.0441 114.489 15.6117 114.489ZM15.6117 114.063C14.7887 114.063 14.1359 114.716 14.1359 115.539C14.1359 116.362 14.7887 117.015 15.6117 117.015C16.4347 117.015 17.0875 116.362 17.0875 115.539C17.0875 114.716 16.4347 114.063 15.6117 114.063Z" fill="#2F5373"/>
<path d="M10.8723 20.6643H5.59357V25.943H10.8723V20.6643Z" fill="#F3E6DE"/>
<path d="M21.4577 20.6643H16.179V25.943H21.4577V20.6643Z" fill="#F3E6DE"/>
<path d="M16.1792 25.9713H10.9005V31.25H16.1792V25.9713Z" fill="#F3E6DE"/>
<path d="M16.1792 15.3855H10.9005V20.6642H16.1792V15.3855Z" fill="#F3E6DE"/>
<path d="M120.618 23.0764H115.935V27.7592H120.618V23.0764Z" fill="#F3E6DE"/>
<path d="M115.935 27.7593H111.253V32.442H115.935V27.7593Z" fill="#F3E6DE"/>
<path d="M144.401 22.0265C144.401 22.0265 144.06 23.8428 145.111 24.9497C146.161 26.0565 150.985 26.7375 150.985 26.7375L154.05 23.701L148.772 21.0332L144.401 22.0265Z" fill="#2F5373"/>
<path d="M149.055 31.3635C148.942 31.3635 148.856 31.3352 148.8 31.2782C148.232 30.9377 148.005 30.1147 148.062 29.462C148.119 28.866 148.402 28.412 148.828 28.27C148.942 28.2418 149.055 28.2985 149.112 28.3835C149.14 28.497 149.084 28.6107 148.999 28.6675C148.601 28.8092 148.516 29.2917 148.516 29.5187C148.459 30.1147 148.686 30.7392 149.055 30.9377C149.112 30.9662 149.254 30.9095 149.424 30.7675C150.219 30.0865 151.212 27.816 150.786 26.8227C150.701 26.624 150.559 26.482 150.361 26.4252C149.736 26.255 148.63 26.9077 148.289 27.1632C148.204 27.22 148.062 27.22 148.005 27.1065C147.948 27.0213 147.948 26.8795 148.062 26.8227C148.119 26.766 149.538 25.7442 150.503 25.9997C150.815 26.0847 151.07 26.3117 151.212 26.6525C151.723 27.8442 150.673 30.285 149.736 31.0798C149.424 31.3068 149.226 31.3635 149.055 31.3635Z" fill="#232323"/>
<path d="M149.055 31.3635C148.942 31.3635 148.856 31.3352 148.8 31.2782C148.232 30.9377 148.005 30.1147 148.062 29.462C148.119 28.866 148.402 28.412 148.828 28.27C148.942 28.2418 149.055 28.2985 149.112 28.3835C149.14 28.497 149.084 28.6107 148.999 28.6675C148.601 28.8092 148.516 29.2917 148.516 29.5187C148.459 30.1147 148.686 30.7392 149.055 30.9377C149.112 30.9662 149.254 30.9095 149.424 30.7675C150.219 30.0865 151.212 27.816 150.786 26.8227C150.701 26.624 150.559 26.482 150.361 26.4252C149.736 26.255 148.63 26.9077 148.289 27.1632C148.204 27.22 148.062 27.22 148.005 27.1065C147.948 27.0213 147.948 26.8795 148.062 26.8227C148.119 26.766 149.538 25.7442 150.503 25.9997C150.815 26.0847 151.07 26.3117 151.212 26.6525C151.723 27.8442 150.673 30.285 149.736 31.0798C149.424 31.3068 149.226 31.3635 149.055 31.3635Z" fill="#232323"/>
<path d="M8.85705 94.339C8.74352 94.339 8.63 94.254 8.63 94.112V92.9768C8.63 92.8633 8.71515 92.7497 8.85705 92.7497C8.99895 92.7497 9.0841 92.835 9.0841 92.9768V94.112C9.0841 94.254 8.97057 94.339 8.85705 94.339ZM8.85705 92.0687C8.74352 92.0687 8.63 91.9835 8.63 91.8415V90.7065C8.63 90.593 8.71515 90.4792 8.85705 90.4792C8.99895 90.4792 9.0841 90.5645 9.0841 90.7065V91.8415C9.0841 91.9835 8.97057 92.0687 8.85705 92.0687ZM8.85705 89.7982C8.74352 89.7982 8.63 89.713 8.63 89.5713V88.436C8.63 88.3225 8.71515 88.209 8.85705 88.209C8.99895 88.209 9.0841 88.294 9.0841 88.436V89.5713C9.0841 89.713 8.97057 89.7982 8.85705 89.7982ZM8.85705 87.5277C8.74352 87.5277 8.63 87.4428 8.63 87.3008V86.1655C8.63 86.052 8.71515 85.9385 8.85705 85.9385C8.99895 85.9385 9.0841 86.0237 9.0841 86.1655V87.3008C9.0841 87.4428 8.97057 87.5277 8.85705 87.5277ZM8.85705 85.2575C8.74352 85.2575 8.63 85.1723 8.63 85.0303V83.8952C8.63 83.7817 8.71515 83.668 8.85705 83.668C8.99895 83.668 9.0841 83.7532 9.0841 83.8952V85.0303C9.0841 85.1723 8.97057 85.2575 8.85705 85.2575ZM8.85705 82.987C8.74352 82.987 8.63 82.9018 8.63 82.76V81.6247C8.63 81.5112 8.71515 81.3978 8.85705 81.3978C8.99895 81.3978 9.0841 81.4827 9.0841 81.6247V82.76C9.0841 82.9018 8.97057 82.987 8.85705 82.987Z" fill="#2F5373"/>
<path d="M8.85705 81.852C8.74352 81.852 8.63 81.7667 8.63 81.6247V53.4432C8.63 53.3297 8.71515 53.2163 8.85705 53.2163C8.99895 53.2163 9.0841 53.3015 9.0841 53.4432V81.6247C9.0841 81.7667 8.97057 81.852 8.85705 81.852Z" fill="#2F5373"/>
<path d="M8.85705 78.3895H5.792V44.8442H8.85705C8.97057 44.8442 9.0841 44.9295 9.0841 45.0713C9.0841 45.2133 8.99895 45.2982 8.85705 45.2982H6.2177V77.964H8.85705C8.97057 77.964 9.0841 78.049 9.0841 78.191C9.0841 78.3328 8.97057 78.3895 8.85705 78.3895Z" fill="#2F5373"/>
<path d="M9.19785 45.6673C9.54267 45.6673 9.82222 45.3878 9.82222 45.0428C9.82222 44.698 9.54267 44.4185 9.19785 44.4185C8.85302 44.4185 8.57347 44.698 8.57347 45.0428C8.57347 45.3878 8.85302 45.6673 9.19785 45.6673Z" fill="#F3E6DE"/>
<path d="M8.85697 96.723C9.2018 96.723 9.48132 96.4435 9.48132 96.0987C9.48132 95.754 9.2018 95.4743 8.85697 95.4743C8.51215 95.4743 8.2326 95.754 8.2326 96.0987C8.2326 96.4435 8.51215 96.723 8.85697 96.723Z" fill="#F3E6DE"/>
<path d="M128.934 124.394C128.82 124.394 128.706 124.309 128.706 124.167V123.032C128.706 122.918 128.792 122.805 128.934 122.805C129.076 122.805 129.161 122.89 129.161 123.032V124.167C129.161 124.309 129.076 124.394 128.934 124.394ZM128.934 122.123C128.82 122.123 128.706 122.038 128.706 121.896V120.761C128.706 120.648 128.792 120.534 128.934 120.534C129.076 120.534 129.161 120.62 129.161 120.761V121.896C129.161 122.038 129.076 122.123 128.934 122.123ZM128.934 119.853C128.82 119.853 128.706 119.768 128.706 119.626V118.491C128.706 118.377 128.792 118.264 128.934 118.264C129.076 118.264 129.161 118.349 129.161 118.491V119.626C129.161 119.768 129.076 119.853 128.934 119.853ZM128.934 117.583C128.82 117.583 128.706 117.498 128.706 117.356V116.22C128.706 116.107 128.792 115.993 128.934 115.993C129.076 115.993 129.161 116.078 129.161 116.22V117.356C129.161 117.498 129.076 117.583 128.934 117.583ZM128.934 115.312C128.82 115.312 128.706 115.227 128.706 115.085V113.95C128.706 113.836 128.792 113.723 128.934 113.723C129.076 113.723 129.161 113.808 129.161 113.95V115.085C129.161 115.227 129.076 115.312 128.934 115.312ZM128.934 113.042C128.82 113.042 128.706 112.957 128.706 112.815V111.68C128.706 111.566 128.792 111.453 128.934 111.453C129.076 111.453 129.161 111.538 129.161 111.68V112.815C129.161 112.957 129.076 113.042 128.934 113.042Z" fill="#2F5373"/>
<path d="M128.934 111.907C128.82 111.907 128.706 111.821 128.706 111.679V101.065C128.706 100.952 128.792 100.838 128.934 100.838C129.076 100.838 129.161 100.923 129.161 101.065V111.679C129.161 111.821 129.076 111.907 128.934 111.907Z" fill="#2F5373"/>
<path d="M128.934 126.778C129.279 126.778 129.558 126.498 129.558 126.154C129.558 125.809 129.279 125.529 128.934 125.529C128.589 125.529 128.309 125.809 128.309 126.154C128.309 126.498 128.589 126.778 128.934 126.778Z" fill="#FFC7A8"/>
<path d="M131.686 91.5013C132.031 91.5013 132.311 91.2217 132.311 90.8767C132.311 90.532 132.031 90.2525 131.686 90.2525C131.342 90.2525 131.062 90.532 131.062 90.8767C131.062 91.2217 131.342 91.5013 131.686 91.5013Z" fill="#2F5373"/>
<path d="M8.85697 54.0112C9.2018 54.0112 9.48132 53.7317 9.48132 53.3867C9.48132 53.042 9.2018 52.7625 8.85697 52.7625C8.51215 52.7625 8.2326 53.042 8.2326 53.3867C8.2326 53.7317 8.51215 54.0112 8.85697 54.0112Z" fill="#F3E6DE"/>
<path d="M131.687 104.045C131.573 104.045 131.46 103.96 131.46 103.818V93.204C131.46 93.0905 131.545 92.977 131.687 92.977C131.829 92.977 131.914 93.0623 131.914 93.204V103.818C131.914 103.932 131.8 104.045 131.687 104.045Z" fill="#2F5373"/>
<path d="M35.8753 122.577C35.7618 122.577 35.6483 122.493 35.6483 122.351V111.736C35.6483 111.623 35.7335 111.509 35.8753 111.509C36.0173 111.509 36.1025 111.595 36.1025 111.736V122.351C36.1025 122.464 35.989 122.577 35.8753 122.577Z" fill="#2F5373"/>
<path d="M35.8753 108.955C35.7618 108.955 35.6483 108.87 35.6483 108.728V107.593C35.6483 107.479 35.7335 107.366 35.8753 107.366C36.0173 107.366 36.1025 107.451 36.1025 107.593V108.728C36.1025 108.841 35.989 108.955 35.8753 108.955ZM35.8753 106.685C35.7618 106.685 35.6483 106.599 35.6483 106.457V105.322C35.6483 105.209 35.7335 105.095 35.8753 105.095C36.0173 105.095 36.1025 105.18 36.1025 105.322V106.457C36.1025 106.571 35.989 106.685 35.8753 106.685ZM35.8753 104.414C35.7618 104.414 35.6483 104.329 35.6483 104.187V103.052C35.6483 102.938 35.7335 102.825 35.8753 102.825C36.0173 102.825 36.1025 102.91 36.1025 103.052V104.187C36.1025 104.3 35.989 104.414 35.8753 104.414ZM35.8753 102.144C35.7618 102.144 35.6483 102.058 35.6483 101.916V100.782C35.6483 100.668 35.7335 100.554 35.8753 100.554C36.0173 100.554 36.1025 100.64 36.1025 100.782V101.916C36.1025 102.03 35.989 102.144 35.8753 102.144ZM35.8753 99.8733C35.7618 99.8733 35.6483 99.788 35.6483 99.6462V98.511C35.6483 98.3975 35.7335 98.284 35.8753 98.284C36.0173 98.284 36.1025 98.369 36.1025 98.511V99.6462C36.1025 99.7597 35.989 99.8733 35.8753 99.8733Z" fill="#2F5373"/>
<path d="M8.06252 135.036H2.5V140.599H8.06252V135.036Z" fill="#F3E6DE"/>
<path d="M16.5766 135.036H11.0141V140.599H16.5766V135.036Z" fill="#FFC7A8"/>
<path d="M187.074 119.535L185.528 121.08L187.074 122.626L188.619 121.08L187.074 119.535Z" fill="#FFC7A8"/>
<path d="M189.701 116.88L188.156 118.425L189.701 119.97L191.246 118.425L189.701 116.88Z" fill="#FFC7A8"/>
<path d="M189.9 122.371L188.355 123.917L189.9 125.462L191.446 123.917L189.9 122.371Z" fill="#FFC7A8"/>
<path d="M192.548 119.736L191.003 121.281L192.548 122.826L194.094 121.281L192.548 119.736Z" fill="#FFC7A8"/>
</svg>
