<svg width="4320" height="900" viewBox="0 0 4320 900" fill="none" xmlns="http://www.w3.org/2000/svg">
<g clip-path="url(#clip0_536_12539)">
<path d="M232.5 52.3405C149.23 16.504 2 24.8405 2 24.8405V985.341H4318.5V657.341C4318.5 657.341 3976.71 635.094 3760.5 599.841C3631.39 578.79 3562.8 536.053 3432 534.341C3292 532.508 3219.51 598.171 3079.5 599.841C2929.89 601.624 2849.13 561.562 2702 534.341C2550.93 506.389 2467.78 482.181 2316 458.341C2124.9 428.322 2016.85 399.341 1823.5 405.341C1673.35 410 1592.06 472.458 1442.5 458.341C1353.01 449.893 1308.22 410.83 1218.5 405.341C1186.34 403.373 1166.45 415.856 1136 405.341C1099.41 392.706 1095.85 358.494 1062.5 338.841C1017.13 312.1 981.896 321.693 932 304.841C855.523 279.01 822.366 239.12 744.5 217.84C666.889 196.63 618.062 214.7 539.5 197.34C465.579 181.007 423.29 169.527 356 134.84C304.446 108.265 285.777 75.2689 232.5 52.3405Z" fill="url(#paint0_linear_536_12539)"/>
</g>
<defs>
<linearGradient id="paint0_linear_536_12539" x1="2284.65" y1="163.385" x2="2223.36" y2="678.081" gradientUnits="userSpaceOnUse">
<stop stop-color="#FF2424"/>
<stop offset="0.487613" stop-color="#C1347A"/>
<stop offset="1" stop-color="#5A3C76"/>
</linearGradient>
<clipPath id="clip0_536_12539">
<rect width="4320" height="900" fill="white"/>
</clipPath>
</defs>
</svg>
