<svg width="4320" height="547" viewBox="0 0 4320 547" fill="none" xmlns="http://www.w3.org/2000/svg">
<g clip-path="url(#clip0_754_7880)">
<path d="M1363.43 86.1907C1130.13 -4.90092 1023.69 86.0399 780.323 107.151C536.96 128.263 503.955 83.1644 322.637 62.5351C141.319 41.9058 86.7434 147.489 3.7762e-07 169.492C3.80755e-07 267.302 1.2196e-06 547.409 1.2196e-06 547.409L1728 547.409L4344.5 547.409V38.409C4344.5 38.409 4207.69 118.611 3871 107.151C3567.1 96.808 3484.04 -4.6576 3180 0.166604C2900.72 4.59798 2841.71 99.2152 2562.5 107.151C2323.06 113.957 2184.2 29.0478 1953 38.409C1722.19 47.7545 1597.16 177.449 1363.43 86.1907Z" fill="url(#paint0_linear_754_7880)"/>
</g>
<defs>
<linearGradient id="paint0_linear_754_7880" x1="642.299" y1="-129.776" x2="640.999" y2="196.667" gradientUnits="userSpaceOnUse">
<stop stop-color="#BEFFFF"/>
<stop offset="1" stop-color="white"/>
</linearGradient>
<clipPath id="clip0_754_7880">
<rect width="4320" height="547" fill="white"/>
</clipPath>
</defs>
</svg>
