<svg width="58" height="67" viewBox="0 0 58 67" fill="none" xmlns="http://www.w3.org/2000/svg">
<path fill-rule="evenodd" clip-rule="evenodd" d="M28.1514 0.0328895C27.4154 0.151451 26.957 0.320473 26.2398 0.737775C24.748 1.6058 2.61418 14.7492 2.34909 14.9244C1.49142 15.4914 0.654393 16.6609 0.263609 17.8382C-0.0145856 18.6765 0.000134819 17.8003 0.000134819 33.5034C0.000134819 49.2066 -0.0145856 48.3304 0.263609 49.1687C0.652534 50.3405 1.49685 51.5204 2.3486 52.0824C2.60846 52.2539 24.5712 65.2962 26.2553 66.2791C27.2027 66.832 27.856 67.0019 29.0277 67C29.8888 66.9986 30.2753 66.9349 30.9373 66.685C31.1918 66.5889 32.7893 65.67 35.557 64.0277C37.8839 62.6469 43.3456 59.4063 47.6943 56.8262C52.043 54.2461 55.7483 52.0217 55.9284 51.8831C56.9119 51.1263 57.7717 49.587 57.9553 48.2545C57.9958 47.9606 58.0068 43.926 57.9963 33.2522L57.9818 18.6518L57.8744 18.2649C57.4805 16.8456 56.6944 15.6466 55.7076 14.96C55.5101 14.8226 40.5183 5.91488 31.5954 0.633186C31.2246 0.413654 30.6871 0.207189 30.2023 0.0978747C29.7949 0.00605105 28.5609 -0.0330506 28.1514 0.0328895ZM30.8998 13.7778C34.6981 14.1815 38.121 15.6353 41.1816 18.145C41.9854 18.8042 43.378 20.24 44.0373 21.0894C44.7117 21.9583 45.7376 23.5148 45.6749 23.5737C45.6649 23.5831 43.795 24.6974 41.5194 26.0499L37.3821 28.5089L37.1719 28.1602C36.6967 27.3721 35.6925 26.2426 34.9457 25.656C32.9657 24.1008 30.5038 23.364 28.0947 23.6057C25.1655 23.8995 22.511 25.5437 20.9191 28.0503C19.2818 30.6285 18.8901 33.7412 19.8354 36.663C20.5083 38.7427 21.8629 40.56 23.6557 41.7882C24.9285 42.6601 26.5158 43.2409 28.0669 43.4021C30.0911 43.6125 32.2176 43.1149 34.0164 42.0097C35.1983 41.2835 36.5589 39.9061 37.2253 38.7613L37.3795 38.4963L40.2465 40.2009C45.2318 43.1652 45.6564 43.4181 45.6746 43.434C45.7068 43.4621 45.1322 44.3952 44.7053 45.0083C44.0639 45.9294 43.4892 46.6181 42.6029 47.5277C39.8644 50.338 36.4031 52.2216 32.598 52.9721C31.2517 53.2376 30.7557 53.2805 29.0277 53.2805C27.34 53.2805 26.9591 53.2515 25.685 53.0265C21.4233 52.2738 17.4658 49.9979 14.5811 46.6408C12.257 43.9362 10.754 40.8331 10.08 37.3483C9.79887 35.8949 9.75749 35.4014 9.75749 33.5034C9.75749 31.6065 9.79868 31.1149 10.0796 29.6586C11.5093 22.2473 16.9281 16.3095 24.0634 14.3354C24.9875 14.0798 26.4326 13.8245 27.4626 13.7352C28.079 13.6817 30.2484 13.7086 30.8998 13.7778ZM46.1703 31.3423V32.448H47.2218H48.2734V33.5034V34.5589H47.2218H46.1703V35.6646V36.7703H45.1197H44.0691L44.056 35.6772L44.0427 34.584L42.979 34.5705L41.9152 34.5569V33.5034V32.45L42.979 32.4364L44.0427 32.4229L44.056 31.3297L44.0691 30.2366H45.1197H46.1703V31.3423ZM54.2026 31.3297L54.2158 32.4229L55.2796 32.4364L56.3434 32.45V33.5034V34.5569L55.2796 34.5705L54.2158 34.584L54.2026 35.6772L54.1895 36.7703H53.1389H52.0883V35.6646V34.5589H51.0123H49.9363V33.5034V32.448H51.0123H52.0883V31.3423V30.2366H53.1389H54.1895L54.2026 31.3297Z" fill="black"/>
</svg>
