<svg width="49" height="66" viewBox="0 0 49 66" fill="none" xmlns="http://www.w3.org/2000/svg">
<path fill-rule="evenodd" clip-rule="evenodd" d="M31.1395 0.13356C31.1557 0.207018 31.2063 0.437408 31.2519 0.645539C31.432 1.46649 31.4928 2.06706 31.4927 3.02735C31.4926 4.02687 31.4335 4.54535 31.2259 5.36812C30.6644 7.5934 29.3214 9.62267 26.9911 11.7671C26.2238 12.4731 25.1022 13.4106 23.9198 14.3341C20.7153 16.8371 19.6448 17.7358 18.5823 18.8154C16.8772 20.5476 16.0933 21.8092 15.846 23.2189C15.7564 23.7301 15.7809 24.7926 15.8942 25.3096C16.2953 27.1389 17.5153 29.1327 19.6942 31.5201C20.7905 32.7212 24.4276 36.2169 24.581 36.2169C24.6437 36.2169 23.9995 35.0099 23.6188 34.4139C23.4311 34.1201 23.0244 33.519 22.715 33.0783C21.6908 31.6191 21.0004 30.592 20.6732 30.0407C20.0328 28.9614 19.5629 27.838 19.367 26.9178C19.2494 26.365 19.2063 25.4103 19.2755 24.8866C19.5699 22.6557 21.01 20.5009 23.7854 18.1387C24.0319 17.9288 24.4936 17.5502 24.8113 17.2974C28.825 14.103 31.3363 11.0074 32.3885 7.95718C32.7999 6.76453 32.9325 5.89866 32.8964 4.63942C32.8691 3.68513 32.7924 3.23179 32.5208 2.41739C32.2524 1.61247 31.7186 0.649323 31.2838 0.185336L31.1102 0L31.1395 0.13356ZM38.742 13.6918C35.7022 14.5692 32.4877 15.9495 30.2668 17.3309C25.9191 20.0353 24.0749 23.1318 24.7757 26.5511C24.9797 27.5465 25.5636 28.853 26.28 29.9175C26.6662 30.4911 26.8446 30.7238 27.6804 31.7427C28.0399 32.1809 28.3313 32.6605 28.5056 33.1005C28.7271 33.6598 28.7624 33.8687 28.7581 34.592C28.7545 35.183 28.7401 35.3054 28.633 35.656C28.4686 36.1942 28.2599 36.629 27.919 37.143C27.6143 37.6025 26.9624 38.3628 26.7985 38.45C26.7388 38.4817 26.7216 38.5095 26.7549 38.5206C26.8279 38.5448 27.6739 38.0358 28.3029 37.5893C30.3852 36.1113 31.6581 34.4992 32.0405 32.8557C32.159 32.3467 32.1511 31.4725 32.0235 30.9636C31.8212 30.1567 31.6044 29.7551 30.6637 28.4445C29.4807 26.7963 29.0325 26.0701 28.7424 25.3318C28.516 24.7554 28.4258 24.3065 28.4258 23.7562C28.4258 22.44 29.0649 21.2479 30.5774 19.7426C32.1841 18.1435 34.6034 16.4172 38.3121 14.2234C38.9039 13.8732 39.4073 13.5699 39.4307 13.5493C39.5057 13.4833 39.3603 13.5133 38.742 13.6918ZM42.9077 35.7096C42.0399 35.815 41.2221 36.0113 40.7421 36.2294C40.501 36.3391 39.8557 36.8955 39.9084 36.9484C39.9232 36.9633 40.1754 36.9071 40.4688 36.8236C41.0665 36.6534 41.7399 36.5286 42.0605 36.5286C43.4212 36.5286 44.8383 37.2734 45.5761 38.3762C46.0005 39.0106 46.179 39.6 46.1801 40.3703C46.1816 41.4196 45.8307 42.3471 44.9849 43.5301C44.648 44.0014 43.3849 45.2625 42.7508 45.7606C41.8302 46.484 40.3894 47.409 39.1415 48.0778C38.833 48.2432 38.6189 48.3918 38.5203 48.509C38.4375 48.6074 38.377 48.6944 38.3857 48.7024C38.3945 48.7104 38.7447 48.6196 39.164 48.5006C44.1215 47.0937 47.4603 44.8684 48.5844 42.2218C48.8716 41.5457 48.9342 41.2212 48.9362 40.4018C48.9381 39.6068 48.8926 39.3477 48.6456 38.7446C48.2613 37.8065 47.4068 36.9073 46.3892 36.3701C45.9379 36.1319 45.2132 35.8878 44.6787 35.7941C44.2788 35.724 43.2097 35.673 42.9077 35.7096ZM15.7373 36.3359C12.8543 36.4929 9.47086 37.3778 6.74777 38.687C5.69019 39.1955 5.33545 39.5069 5.33545 39.9269C5.33545 40.0913 5.36221 40.1618 5.47121 40.2851C6.28811 41.209 9.87461 41.868 15.3114 42.0932C16.6877 42.1502 20.7155 42.1503 22.1712 42.0933C27.1294 41.8992 31.3359 41.3999 34.7876 40.5957C35.5551 40.4169 35.6918 40.3712 35.9534 40.2061C36.4882 39.8683 36.9993 39.5911 37.8637 39.1699C38.3323 38.9416 38.6853 38.7548 38.6484 38.7548C38.6114 38.7548 37.885 38.8641 37.0343 38.9978C31.9832 39.7917 28.0295 40.1756 22.5075 40.4082C20.81 40.4797 16.2909 40.4807 15.1096 40.4099C12.7926 40.271 11.3881 40.052 10.646 39.7138C10.2925 39.5528 10.1329 39.3882 10.1329 39.1848C10.1329 38.8521 10.987 38.2946 12.2548 37.8C13.2484 37.4124 15.3435 36.7701 16.5556 36.4816C16.796 36.4243 16.9927 36.3614 16.9927 36.3417C16.9927 36.3084 16.3008 36.3052 15.7373 36.3359ZM13.4798 44.0537C11.113 44.9521 10.172 45.9095 10.7774 46.8036C11.5151 47.8931 14.283 48.7031 18.5171 49.0684C19.675 49.1683 23.8696 49.1839 25.0856 49.0929C27.8919 48.8828 30.124 48.5842 32.4834 48.1034C33.9392 47.8068 36.1994 47.2322 36.16 47.1688C36.1493 47.1516 36.044 47.1015 35.9261 47.0576C35.3051 46.826 34.4382 46.3178 33.8343 45.8313C33.4522 45.5234 33.4295 45.512 33.2515 45.5378C33.1497 45.5527 32.6224 45.6437 32.0799 45.7402C26.8784 46.6655 22.8111 46.9074 18.2033 46.5653C16.8835 46.4674 15.4941 46.3297 15.0424 46.2522C13.2519 45.9449 12.8376 45.2027 13.8719 44.1555C14.0488 43.9764 14.1626 43.831 14.1248 43.8325C14.0869 43.8339 13.7967 43.9335 13.4798 44.0537ZM15.1473 51.2181C13.7935 51.6704 13.0179 52.1408 12.7101 52.6961C12.5445 52.9948 12.5317 53.3676 12.6774 53.6488C13.3117 54.8726 16.128 55.923 19.8846 56.3371C23.3737 56.7217 27.2412 56.4685 30.69 55.6298C32.1532 55.2739 32.9771 55.0093 34.8261 54.3013C35.0012 54.2342 35.0788 54.1585 34.9725 54.1585C34.7914 54.1585 32.4396 53.0473 31.7212 52.6224L31.3626 52.4103L31.0711 52.4615C29.684 52.7055 28.0249 52.969 27.2825 53.0633C24.1447 53.4617 21.57 53.4445 17.7403 52.9997C15.9199 52.7882 15.0657 52.4467 15.065 51.9301C15.0647 51.7678 15.2868 51.4419 15.5176 51.2658C15.6261 51.183 15.7341 51.0988 15.7575 51.0787C15.8434 51.0048 15.6602 51.0467 15.1473 51.2181ZM8.048 55.8499C5.77089 56.092 2.9206 57.0399 1.30059 58.0939C0.443425 58.6516 0 59.1909 0 59.6758C0 60.506 1.05418 61.033 3.5196 61.4353C12.0851 62.8331 21.6365 63.2179 30.0399 62.5037C38.2407 61.8068 44.9304 59.9778 45.9346 58.1581C46.0885 57.8793 46.1116 57.5195 45.9902 57.2927C45.871 57.0698 45.5366 56.7726 45.1721 56.5656C44.809 56.3593 44.7019 56.354 44.8923 56.5518C45.1802 56.8509 45.269 57.3163 45.1031 57.6565C44.4139 59.0701 39.9153 60.078 31.4074 60.7247C26.4053 61.105 19.7112 61.1587 14.8182 60.8579C10.3988 60.5862 7.08215 60.0419 5.11131 59.2647C4.57848 59.0546 4.21455 58.7678 4.21455 58.5581C4.21455 58.4302 4.37816 58.1705 4.5623 58.0061C4.9408 57.6682 5.88199 57.2311 7.0392 56.8559C8.1674 56.4901 9.13935 56.2978 10.2209 56.2264L10.6901 56.1954L10.48 56.0894C10.3644 56.0311 10.1432 55.9524 9.98836 55.9146C9.65146 55.8324 8.55613 55.7959 8.048 55.8499ZM48.8495 59.9001C48.422 60.5126 46.9712 61.3412 45.2347 61.9648C41.2786 63.3855 35.0052 64.4234 28.112 64.7977C26.3062 64.8958 24.751 64.9317 22.3057 64.9318C18.2678 64.932 15.1998 64.7806 11.9039 64.4182C10.8865 64.3063 9.06371 64.0607 8.91109 64.0149C8.86796 64.0019 8.83263 64.0118 8.83263 64.0368C8.83263 64.0619 8.97893 64.1511 9.15769 64.2352C11.5267 65.3496 17.384 66.0013 25.0183 66C37.0943 65.9979 45.8695 64.2711 48.2664 61.425C48.5681 61.0668 48.8895 60.4306 48.9638 60.0448C48.9934 59.8911 49.0078 59.7555 48.9958 59.7435C48.9837 59.7316 48.9179 59.8021 48.8495 59.9001Z" fill="black"/>
</svg>
