<svg width="67" height="60" viewBox="0 0 67 60" fill="none" xmlns="http://www.w3.org/2000/svg">
<path fill-rule="evenodd" clip-rule="evenodd" d="M41.2647 0.0341966C41.2647 0.0756508 41.7205 0.790962 42.2775 1.62379C46.7496 8.30928 49.0298 15.3045 49.0298 22.3377C49.0298 24.8742 48.839 26.5469 48.2962 28.7724C48.0214 29.8991 47.41 31.8314 47.2832 31.9745C47.2036 32.0642 42.903 29.2922 41.0705 27.9702C40.1288 27.2907 35.2895 23.7255 35.1374 23.5989C34.7619 23.2869 32.889 21.8182 32.3479 21.4114C31.2263 20.5682 24.3704 14.8219 24.1814 14.5665C24.1458 14.5185 23.7964 14.1994 23.4049 13.8574C21.5211 12.2118 18.2267 9.11125 16.0112 6.89868C15.2374 6.12603 14.6045 5.54567 14.6045 5.60895C14.6045 5.76753 16.3062 8.25001 17.5775 9.94576C17.8285 10.2809 18.3544 10.9954 18.7458 11.5338C19.896 13.1156 24.2535 18.7368 24.8513 19.4097C24.9775 19.5518 25.4082 20.0748 25.8086 20.572C26.2089 21.0692 26.6903 21.6503 26.8785 21.8634C27.0666 22.0765 27.511 22.5995 27.8661 23.0257C28.5417 23.8363 29.0687 24.4475 29.3017 24.6902C29.3774 24.7691 30.1585 25.6472 31.0374 26.6416C31.9163 27.636 32.6696 28.4791 32.7115 28.5153C32.7535 28.5513 32.9334 28.7479 33.1113 28.9518C33.3819 29.262 33.2547 29.2115 32.3348 28.643C30.5576 27.5449 26.5748 24.7997 23.8579 22.8003C21.827 21.3058 17.3136 17.9167 17.0589 17.695C16.9546 17.6043 16.5198 17.2643 16.0928 16.9396C15.6657 16.615 15.2871 16.3111 15.2515 16.2644C15.216 16.2176 14.6045 15.7172 13.8927 15.1522C12.4428 14.0016 9.47378 11.5378 9.1558 11.2217C9.04191 11.1083 8.77919 10.8703 8.572 10.6927C8.36493 10.5151 7.80299 10.0287 7.32324 9.61154C6.84361 9.19442 6.45108 8.88758 6.45108 8.92955C6.45108 9.21314 9.04023 12.7485 10.226 14.0841C10.4632 14.3511 10.861 14.8376 11.1102 15.1652C11.3593 15.4927 11.767 16.0057 12.0161 16.3052C12.2652 16.6048 12.9932 17.5048 13.6338 18.3054C14.6772 19.6092 16.2399 21.5 16.4146 21.6697C16.4511 21.7052 16.7722 22.0828 17.1281 22.5087C20.0391 25.9925 22.0297 28.1587 26.0914 32.2627C28.6134 34.8111 30.2968 36.4114 32.5813 38.4323C32.766 38.5957 33.4122 39.1445 34.0172 39.6518C34.6223 40.1592 35.1755 40.6372 35.2467 40.7142C35.3179 40.7912 35.9585 41.3098 36.6703 41.8665C37.3821 42.4233 37.9817 42.9236 38.0027 42.9782C38.0851 43.1927 36.0601 44.2441 34.0172 45.0477C29.2504 46.9224 22.6747 47.3133 16.8693 46.0668C14.4287 45.5429 12.2788 44.8902 9.8654 43.9408C7.12626 42.8631 2.79643 40.4876 0.952738 39.0509C0.455641 38.6635 0.0290774 38.366 0.0050056 38.3901C-0.0355024 38.4306 0.147366 38.7037 1.3903 40.4597C3.08115 42.8484 6.72286 46.8503 8.91004 48.7234C16.0019 54.7965 24.5158 58.5338 33.1662 59.3711C38.7902 59.9155 44.3822 58.9179 49.348 56.4844C50.4186 55.9598 51.8188 55.3537 52.4594 55.1377C58.6024 53.0663 63.1099 54.5258 65.8561 59.4757C66.1986 60.0928 66.2484 60.1165 66.5366 59.7985C67.1099 59.166 67.162 55.4476 66.6328 52.9218C66.2827 51.2511 65.661 49.373 64.9224 47.7561C64.0333 45.8093 63.389 44.7342 61.8915 42.6987L61.443 42.089L61.7686 40.7577C62.3983 38.1834 62.5327 37.0177 62.5328 34.1318C62.5329 31.2803 62.3972 30.0501 61.7661 27.1817C61.4321 25.6636 60.2814 22.1095 59.6887 20.7657C56.2868 13.0517 50.471 6.16296 43.2059 1.24205C41.3515 -0.0139729 41.2647 -0.0679538 41.2647 0.0341966Z" fill="black"/>
</svg>
