<svg width="66" height="67" viewBox="0 0 66 67" fill="none" xmlns="http://www.w3.org/2000/svg">
<path fill-rule="evenodd" clip-rule="evenodd" d="M29.8044 0.0523762C23.1887 0.492827 18.954 2.2927 17.5379 5.26601C17.0848 6.21735 17.0975 6.05618 17.0975 10.8445V15.0841H25.1287H33.1599V16.2309V17.3779L21.3194 17.3762C11.0936 17.3747 9.4113 17.3859 8.98372 17.4577C5.06899 18.115 2.24661 21.0038 0.89841 25.7334C0.205469 28.1641 -0.0429495 30.4964 0.00595305 34.1123C0.0431388 36.8643 0.193037 38.3967 0.624468 40.4356C1.75187 45.7635 4.34959 49.054 8.13109 49.9441C8.49128 50.0289 8.95352 50.044 11.7719 50.0635L15.0002 50.0859L15.0234 45.4843C15.0485 40.4765 15.0447 40.5427 15.3865 39.1957C16.2433 35.8196 18.3481 33.6106 21.4431 32.8391C22.7186 32.5211 22.5757 32.5254 31.8367 32.5254C37.1554 32.5254 40.5684 32.5043 40.9241 32.469C42.6727 32.2958 44.4613 31.6926 45.7037 30.8571C47.2689 29.8045 48.3456 28.253 48.8119 26.3786C49.1109 25.1765 49.1076 25.2882 49.1143 16.2021C49.1211 6.84619 49.1431 7.43551 48.7482 6.39489C48.407 5.4956 47.9763 4.82461 47.2438 4.05098C45.0646 1.74956 41.2374 0.420211 35.7231 0.0494134C34.7221 -0.0179484 30.8309 -0.0159359 29.8044 0.0523762ZM24.705 5.27266C25.7491 5.54904 26.5622 6.38735 26.8061 7.43892C27.3189 9.64905 25.1746 11.5914 23.0764 10.8175C21.6977 10.3089 20.9202 8.86486 21.2528 7.4307C21.4904 6.40646 22.3116 5.55379 23.3286 5.27546C23.7099 5.17103 24.3165 5.1698 24.705 5.27266ZM51.2027 21.3325C51.2027 24.0626 51.1808 25.9163 51.1451 26.21C50.9336 27.949 50.3565 29.5961 49.5102 30.8763C48.4328 32.506 46.7448 33.663 44.7328 34.1508C43.4787 34.4548 43.8623 34.443 33.9851 34.483C24.0493 34.5233 24.7527 34.5005 23.4827 34.823C20.1482 35.6699 17.9544 37.892 17.3207 41.0645C17.1136 42.1015 17.0975 42.818 17.0975 51.0018C17.0975 59.7332 17.0855 59.3957 17.432 60.3993C17.6693 61.0868 17.9362 61.5866 18.4033 62.2185C20.259 64.7285 23.9852 66.3068 29.2646 66.819C31.9515 67.0797 35.5238 67.057 38.1932 66.7623C42.6063 66.2752 45.7594 65.1087 47.5476 63.3016C48.1121 62.731 48.4174 62.3004 48.7296 61.6339C49.1534 60.7293 49.1345 60.9484 49.1559 56.703C49.1665 54.6123 49.1587 52.669 49.1386 52.3846L49.1021 51.8675H41.1036H33.1049V50.7506V49.6337L45.028 49.6157C58.3804 49.5955 57.1758 49.6342 58.5918 49.1805C60.6921 48.5076 62.496 47.0395 63.7581 44.9759C64.1513 44.333 64.7351 43.0797 65.0268 42.2524C65.3384 41.3685 65.6881 39.9777 65.8638 38.9237L66 38.1067V33.3995V28.6923L65.8611 27.8323C65.323 24.4996 64.2902 21.8854 62.7602 19.9826C61.5336 18.4571 59.7676 17.3522 58.0165 17.0146C57.6487 16.9437 57.0193 16.9288 54.3872 16.9288H51.2027V21.3325ZM43.0615 56.1181C43.6722 56.2977 44.2154 56.7154 44.6005 57.3014C45.2109 58.2304 45.2105 59.515 44.5995 60.4612C44.0595 61.2973 43.2075 61.76 42.2051 61.7615C40.9051 61.7634 39.7863 60.8894 39.4505 59.6099C39.3634 59.2779 39.3557 58.5372 39.4356 58.1844C39.5805 57.5449 40.0586 56.8562 40.6209 56.4769C41.3651 55.9749 42.1717 55.8563 43.0615 56.1181Z" fill="black"/>
</svg>
