<svg width="67" height="61" viewBox="0 0 67 61" fill="none" xmlns="http://www.w3.org/2000/svg">
<path fill-rule="evenodd" clip-rule="evenodd" d="M46.2461 0.0232137C46.172 0.0414785 45.8082 0.106278 45.4376 0.167038C44.5578 0.311413 42.9216 0.864314 41.822 1.38867C39.4258 2.53156 36.2856 4.77024 33.9612 6.99277L33.4883 7.44498L33.2876 7.26389C33.1773 7.16422 32.7635 6.79231 32.3683 6.4373C29.4283 3.79669 25.8785 1.55553 23.2529 0.6824C17.4774 -1.23835 13.8884 1.36958 13.1025 8.05819C12.9566 9.29974 12.9783 12.2733 13.1449 13.876C13.2895 15.2677 13.6246 17.4086 13.8571 18.4271C13.954 18.8513 13.9598 19.0008 13.8804 19.0297C13.8223 19.0507 13.1685 19.2802 12.4275 19.5398C8.01974 21.0838 4.48644 23.1544 2.31855 25.4637C1.45489 26.3837 1.07422 26.9258 0.625014 27.8748C-0.955073 31.2136 0.481116 34.6582 4.70265 37.6549C6.90216 39.2164 9.9011 40.6798 13.0318 41.7197C13.9803 42.0347 14.0142 42.0551 13.9744 42.2847C13.9517 42.4156 13.8276 43.0892 13.6985 43.7815C12.4667 50.389 12.9836 55.8167 15.1195 58.7028C15.9408 59.8127 17.1526 60.5978 18.4937 60.8889C19.386 61.0827 21.1147 61.0154 22.1733 60.7458C25.3237 59.9433 28.8674 57.8091 32.5575 54.4919L33.5552 53.5951L34.4903 54.4379C38.3213 57.8904 42.181 60.1404 45.4007 60.7983C46.35 60.9923 48.0051 60.9942 48.7829 60.8023C49.9627 60.5112 51.0653 59.7974 51.8776 58.7989C52.4179 58.1348 53.1989 56.48 53.4737 55.4174C54.2912 52.2552 54.2285 47.9755 53.2964 43.2988C53.1733 42.6815 53.0727 42.1441 53.0727 42.1047C53.0727 42.0653 53.4668 41.9009 53.9484 41.7394C59.2203 39.9714 63.4884 37.3455 65.48 34.6447C67.7938 31.507 67.4616 28.2864 64.5133 25.2738C62.2526 22.9638 58.3551 20.7743 53.8811 19.3008C53.4611 19.1625 53.0878 19.0221 53.0515 18.9887C53.0152 18.9553 53.0838 18.4132 53.2039 17.784C54.2978 12.0546 54.1875 7.34889 52.8844 4.15052C52.063 2.13441 50.5445 0.682951 48.7631 0.211277C48.2388 0.0724091 46.5554 -0.0533335 46.2461 0.0232137ZM48.3796 3.46802C50.6144 4.45037 51.4189 9.43934 50.3741 15.8364C50.2319 16.707 50.0735 17.5789 50.0222 17.7738L49.9288 18.1282L49.0164 17.9084C47.6277 17.5738 44.9405 17.0907 43.237 16.8696C42.3971 16.7606 41.6255 16.6549 41.5222 16.6347C41.4082 16.6123 40.98 16.1198 40.4312 15.3798C39.2862 13.8356 37.6769 11.8601 36.5849 10.6583C36.1184 10.1448 35.7367 9.70753 35.7367 9.68642C35.7367 9.6286 37.393 8.16897 38.1877 7.52649C41.0316 5.22723 43.8941 3.67646 46.0119 3.28776C46.7579 3.15082 47.8466 3.2337 48.3796 3.46802ZM21.5779 3.5096C23.6031 4.0346 26.3299 5.58234 28.869 7.6481C30.0505 8.60944 31.1557 9.60629 31.1557 9.71074C31.1557 9.75241 30.8463 10.1308 30.468 10.5516C29.0327 12.148 27.5522 13.9805 26.271 15.7461C25.899 16.2589 25.5784 16.6104 25.4632 16.6319C25.3582 16.6515 24.3426 16.7971 23.2063 16.9556C21.3614 17.2128 19.2277 17.6122 17.6151 18.0022C17.3065 18.0769 17.0379 18.1106 17.0183 18.0772C16.9529 17.9664 16.6071 16.1054 16.4271 14.896C15.811 10.7552 16.1051 6.89529 17.192 4.85477C17.5182 4.24221 18.1001 3.68279 18.6311 3.47086C19.2889 3.20846 20.4763 3.22406 21.5779 3.5096ZM36.0408 14.925C36.5899 15.5972 37.0493 16.1754 37.0616 16.21C37.074 16.2445 35.4523 16.2728 33.4579 16.2728H29.8318L30.2467 15.7317C30.8254 14.9771 32.4353 13.0662 32.9867 12.4797L33.4462 11.9907L34.2444 12.8468C34.6833 13.3176 35.4917 14.2528 36.0408 14.925ZM37.129 19.5308C38.0676 19.5806 39.0175 19.6448 39.2398 19.6734L39.644 19.7256L40.601 21.2115C42.3343 23.9033 43.7028 26.3304 45.0418 29.088L45.7381 30.5221L44.7484 32.5299C43.3481 35.3708 41.8631 37.9647 40.0446 40.7464L39.6458 41.3564L39.1509 41.405C38.8787 41.4317 37.5073 41.506 36.1034 41.57C34.0551 41.6633 33.026 41.6638 30.8937 41.5721C29.4322 41.5093 28.0413 41.4336 27.8028 41.4039L27.3693 41.35L26.4827 39.9954C24.8301 37.4706 22.9349 34.106 21.7658 31.6218L21.2581 30.5429L22.1957 28.6396C23.5538 25.8824 24.8105 23.6586 26.4715 21.0733L27.3382 19.7244L27.8771 19.6671C29.8895 19.4532 34.4112 19.3866 37.129 19.5308ZM23.1081 20.426C22.5768 21.245 21.1589 23.7166 20.4546 25.051C20.0036 25.9056 19.6196 26.5896 19.6013 26.5708C19.5244 26.4923 18.5486 23.72 18.1827 22.5406C17.912 21.6683 17.8197 21.2523 17.8914 21.228C18.1273 21.1481 20.1303 20.7213 21.0955 20.5454C23.55 20.0977 23.3119 20.1118 23.1081 20.426ZM46.0215 20.5868C46.9602 20.7621 48.0313 20.9803 48.4018 21.0716C49.0643 21.2348 49.0751 21.2421 49.0464 21.5086C49.0153 21.7989 48.0374 24.8226 47.6116 25.9453L47.3546 26.6229L46.92 25.7617C46.3532 24.6384 45.3093 22.782 44.5002 21.4585C44.1453 20.878 43.823 20.3488 43.7841 20.2824C43.7032 20.1446 43.5268 20.1206 46.0215 20.5868ZM15.0619 23.1342C15.4694 24.5406 16.3726 27.0648 17.1496 28.9685L17.7937 30.5468L17.2079 31.9916C16.4359 33.8951 15.8291 35.5802 15.2581 37.4058C15.0015 38.2262 14.7597 38.8973 14.7209 38.8973C14.5403 38.8973 12.1274 38.0049 11.092 37.5552C8.16867 36.2853 6.06563 34.9233 4.55372 33.3207C3.56458 32.2722 3.13073 31.4373 3.13073 30.582C3.13073 29.8283 3.36769 29.1961 3.94274 28.4157C5.19048 26.7222 7.7226 24.9567 10.905 23.5612C11.6663 23.2273 14.5827 22.1137 14.718 22.1051C14.7427 22.1036 14.8974 22.5666 15.0619 23.1342ZM53.28 22.4659C59.213 24.5564 63.3114 27.4977 63.8338 30.0403C64.3701 32.6503 59.9973 36.2241 53.4959 38.4893C52.8147 38.7267 52.2475 38.9053 52.2355 38.8861C52.2235 38.867 51.9205 37.9428 51.5623 36.8322C51.0259 35.1694 50.2929 33.1945 49.3239 30.8014C49.1876 30.465 49.191 30.4493 49.6402 29.3788C50.4228 27.5137 51.3916 24.7965 51.9488 22.9041C52.0788 22.4624 52.1986 22.101 52.2147 22.101C52.231 22.101 52.7104 22.2652 53.28 22.4659ZM32.009 24.2925C29.3004 24.9766 27.4158 27.2787 27.2327 30.1273C27.1582 31.2871 27.3569 32.2676 27.8941 33.3901C28.2432 34.1196 28.4371 34.3894 29.0822 35.0438C30.8249 36.8114 33.0883 37.3665 35.4672 36.6098C36.8944 36.1558 38.3621 34.8708 39.0394 33.4821C39.576 32.382 39.7299 31.7124 39.725 30.4992C39.7185 28.9065 39.3319 27.7573 38.3879 26.5246C36.9234 24.6119 34.3332 23.7056 32.009 24.2925ZM48.4961 37.6067C48.8868 38.7898 49.1972 39.7672 49.1859 39.7787C49.0611 39.9055 43.9357 40.8809 43.8507 40.7941C43.8238 40.7667 44.149 40.1644 44.5734 39.4558C45.4674 37.9631 46.4182 36.2449 46.9628 35.1381L47.3441 34.3632L47.5649 34.9093C47.6862 35.2097 48.1053 36.4235 48.4961 37.6067ZM20.3827 35.8914C21.0828 37.21 22.6981 40.0007 23.1 40.5863L23.2829 40.8527L22.7955 40.787C21.5865 40.6242 17.9878 39.8828 17.8821 39.7748C17.8043 39.6952 19.5121 34.4917 19.6161 34.4917C19.629 34.4917 19.9739 35.1216 20.3827 35.8914ZM50.2439 44.1749C51.4832 50.5984 50.8718 56.0308 48.7595 57.3647C46.5583 58.7549 41.5497 56.5584 36.4968 51.9872L35.7748 51.3339L36.671 50.3243C37.8947 48.9459 39.2502 47.2715 40.3862 45.7352C40.9087 45.0284 41.3395 44.4433 41.3435 44.4348C41.3475 44.4263 42.0178 44.332 42.8329 44.2251C45.0758 43.9308 48.1241 43.3706 49.5246 42.9951C49.7716 42.9288 49.9827 42.8987 49.9938 42.9282C50.0047 42.9576 50.1173 43.5186 50.2439 44.1749ZM18.7916 43.3127C20.5641 43.6969 24.93 44.4043 25.529 44.4043C25.591 44.4043 25.8415 44.6832 26.0854 45.0239C26.8824 46.1367 28.6198 48.326 29.606 49.4601C31.0927 51.1696 31.272 51.3842 31.235 51.4098C31.2161 51.4228 30.857 51.7453 30.4371 52.1264C25.6315 56.4877 20.7335 58.7014 18.4906 57.5256C16.2282 56.3398 15.5291 50.874 16.7887 44.2207C17.0444 42.8697 17.0279 42.9093 17.3088 42.9816C17.4401 43.0154 18.1073 43.1644 18.7916 43.3127ZM37.0841 44.8367C37.0841 44.9168 35.3922 46.9839 34.4482 48.0572L33.536 49.0942L33.0056 48.5161C32.38 47.8342 30.3114 45.3817 30.0704 45.0361L29.903 44.796L33.4935 44.7936C35.4683 44.7922 37.0841 44.8116 37.0841 44.8367Z" fill="black"/>
</svg>
