<svg width="21" height="15" viewBox="0 0 21 15" fill="none" xmlns="http://www.w3.org/2000/svg">
<path d="M19.6389 2.41758L19.6396 2.41998C19.8413 3.15696 19.9463 4.34213 19.9974 5.38783C20.0225 5.90137 20.034 6.36583 20.0393 6.70194C20.0419 6.86986 20.0429 7.00539 20.0433 7.09859C20.0435 7.14518 20.0435 7.18117 20.0435 7.2053L20.0435 7.23245L20.0434 7.23906L20.0434 7.24058L20.0434 7.24088V7.24387V7.24391V7.24422L20.0434 7.24574L20.0434 7.25235L20.0433 7.27942L20.0426 7.38574C20.0418 7.47858 20.0402 7.61357 20.0369 7.78082C20.0303 8.11559 20.0172 8.57829 19.9911 9.09014C19.9379 10.1306 19.8332 11.314 19.6385 12.0548C19.4558 12.7313 18.9209 13.2662 18.2444 13.4489C17.9014 13.5388 17.2484 13.616 16.4123 13.676C15.5914 13.7349 14.6417 13.7745 13.737 13.8009C12.8331 13.8273 11.9789 13.8406 11.3503 13.8472C11.0361 13.8505 10.7786 13.8522 10.5998 13.853C10.5103 13.8534 10.4406 13.8536 10.3934 13.8537L10.3397 13.8538L10.3261 13.8538L10.3227 13.8538H10.3219H10.3218L10.3217 14.4538L10.3217 13.8538H10.3215H10.3207L10.3174 13.8538L10.3038 13.8538L10.2503 13.8537C10.2032 13.8536 10.1337 13.8534 10.0445 13.8529C9.86615 13.8521 9.60927 13.8504 9.29581 13.8469C8.66864 13.84 7.81614 13.8263 6.91357 13.7988C6.01004 13.7713 5.06122 13.7302 4.23994 13.6689C3.40206 13.6065 2.74706 13.5262 2.40144 13.4325L2.40057 13.4323C1.72313 13.2499 1.18741 12.7144 1.00472 12.0371C0.810404 11.3058 0.705602 10.1231 0.65236 9.07957C0.626191 8.56666 0.613083 8.10237 0.606528 7.76625C0.603254 7.59833 0.601621 7.46274 0.600807 7.36946L0.600099 7.26262L0.600012 7.2354L0.600001 7.22875L0.6 7.22722L0.6 7.22694V7.22691V7.2269V7.22687L0.6 7.22659L0.600001 7.22507L0.600012 7.21846L0.600099 7.19138L0.600807 7.08506C0.601621 6.99223 0.603253 6.85724 0.606527 6.68998C0.613081 6.35522 0.626188 5.89252 0.652356 5.38067C0.705548 4.34024 0.810257 3.15687 1.00491 2.416C1.18801 1.73822 1.741 1.18678 2.40038 1.00454C2.74375 0.914753 3.39615 0.837729 4.2311 0.777805C5.05201 0.718888 6.00171 0.679338 6.90647 0.652883C7.81029 0.626455 8.66455 0.613226 9.29315 0.606609C9.60733 0.603302 9.86486 0.60165 10.0437 0.600824C10.1331 0.600411 10.2028 0.600205 10.2501 0.600102L10.3038 0.600013L10.3173 0.600002L10.3207 0.6L10.3215 0.6H10.3217L10.3217 0L10.3217 0.6H10.3219L10.3227 0.6L10.3261 0.600002L10.3396 0.600013L10.3933 0.600106C10.4406 0.600213 10.5103 0.600427 10.5996 0.600857C10.7784 0.601715 11.0359 0.603433 11.35 0.606872C11.9785 0.613753 12.8326 0.627509 13.7363 0.654987C14.6409 0.682496 15.5902 0.723615 16.4106 0.784853C17.2482 0.847369 17.9 0.927666 18.2405 1.02084L18.2429 1.02149C18.9206 1.20395 19.4565 1.73984 19.6389 2.41758Z" fill="white" stroke="#3913B8" stroke-width="1.2"/>
<path d="M8.26416 10.2035L13.6376 7.10873L8.26416 4.01392V10.2035Z" fill="#00CFFD"/>
</svg>
