<svg width="75" height="75" viewBox="0 0 75 75" fill="none" xmlns="http://www.w3.org/2000/svg">
<path fill-rule="evenodd" clip-rule="evenodd" d="M36.1514 4.03289C35.4154 4.15145 34.957 4.32047 34.2398 4.73778C32.748 5.6058 10.6142 18.7492 10.3491 18.9244C9.49142 19.4914 8.65439 20.6609 8.26361 21.8382C7.98541 22.6765 8.00013 21.8003 8.00013 37.5034C8.00013 53.2066 7.98541 52.3304 8.26361 53.1687C8.65253 54.3405 9.49685 55.5204 10.3486 56.0824C10.6085 56.2539 32.5712 69.2962 34.2553 70.2791C35.2027 70.832 35.856 71.0019 37.0277 71C37.8888 70.9986 38.2753 70.9349 38.9373 70.685C39.1918 70.5889 40.7893 69.67 43.557 68.0277C45.8839 66.6469 51.3456 63.4063 55.6943 60.8262C60.043 58.2461 63.7483 56.0217 63.9284 55.8831C64.9119 55.1263 65.7717 53.587 65.9553 52.2545C65.9958 51.9606 66.0068 47.926 65.9963 37.2522L65.9818 22.6518L65.8744 22.2649C65.4805 20.8456 64.6944 19.6466 63.7076 18.96C63.5101 18.8226 48.5183 9.91488 39.5954 4.63319C39.2246 4.41365 38.6871 4.20719 38.2023 4.09787C37.7949 4.00605 36.5609 3.96695 36.1514 4.03289ZM38.8998 17.7778C42.6981 18.1815 46.121 19.6353 49.1816 22.145C49.9854 22.8042 51.378 24.24 52.0373 25.0894C52.7117 25.9583 53.7376 27.5148 53.6749 27.5737C53.6649 27.5831 51.795 28.6974 49.5194 30.0499L45.3821 32.5089L45.1719 32.1602C44.6967 31.3721 43.6925 30.2426 42.9457 29.656C40.9657 28.1008 38.5038 27.364 36.0947 27.6057C33.1655 27.8995 30.511 29.5437 28.9191 32.0503C27.2818 34.6285 26.8901 37.7412 27.8354 40.663C28.5083 42.7427 29.8629 44.56 31.6557 45.7882C32.9285 46.6601 34.5158 47.2409 36.0669 47.4021C38.0911 47.6125 40.2176 47.1149 42.0164 46.0097C43.1983 45.2835 44.5589 43.9061 45.2253 42.7613L45.3795 42.4963L48.2465 44.2009C53.2318 47.1652 53.6564 47.4181 53.6746 47.434C53.7068 47.4621 53.1322 48.3952 52.7053 49.0083C52.0639 49.9294 51.4892 50.6181 50.6029 51.5277C47.8644 54.338 44.4031 56.2216 40.598 56.9721C39.2517 57.2376 38.7557 57.2805 37.0277 57.2805C35.34 57.2805 34.9591 57.2515 33.685 57.0265C29.4233 56.2738 25.4658 53.9979 22.5811 50.6408C20.257 47.9362 18.754 44.8331 18.08 41.3483C17.7989 39.8949 17.7575 39.4014 17.7575 37.5034C17.7575 35.6065 17.7987 35.1149 18.0796 33.6586C19.5093 26.2473 24.9281 20.3095 32.0634 18.3354C32.9875 18.0798 34.4326 17.8245 35.4626 17.7352C36.079 17.6817 38.2484 17.7086 38.8998 17.7778ZM54.1703 35.3423V36.448H55.2218H56.2734V37.5034V38.5589H55.2218H54.1703V39.6646V40.7703H53.1197H52.0691L52.056 39.6772L52.0427 38.584L50.979 38.5705L49.9152 38.5569V37.5034V36.45L50.979 36.4364L52.0427 36.4229L52.056 35.3297L52.0691 34.2366H53.1197H54.1703V35.3423ZM62.2026 35.3297L62.2158 36.4229L63.2796 36.4364L64.3434 36.45V37.5034V38.5569L63.2796 38.5705L62.2158 38.584L62.2026 39.6772L62.1895 40.7703H61.1389H60.0883V39.6646V38.5589H59.0123H57.9363V37.5034V36.448H59.0123H60.0883V35.3423V34.2366H61.1389H62.1895L62.2026 35.3297Z" fill="black"/>
</svg>
