<svg width="75" height="75" viewBox="0 0 75 75" fill="none" xmlns="http://www.w3.org/2000/svg">
<path fill-rule="evenodd" clip-rule="evenodd" d="M33.8044 4.05238C27.1887 4.49283 22.954 6.2927 21.5379 9.26601C21.0848 10.2173 21.0975 10.0562 21.0975 14.8445V19.0841H29.1287H37.1599V20.2309V21.3779L25.3194 21.3762C15.0936 21.3747 13.4113 21.3859 12.9837 21.4577C9.06899 22.115 6.24661 25.0038 4.89841 29.7334C4.20547 32.1641 3.95705 34.4964 4.00595 38.1123C4.04314 40.8643 4.19304 42.3967 4.62447 44.4356C5.75187 49.7635 8.34959 53.054 12.1311 53.9441C12.4913 54.0289 12.9535 54.044 15.7719 54.0635L19.0002 54.0859L19.0234 49.4843C19.0485 44.4765 19.0447 44.5427 19.3865 43.1957C20.2433 39.8196 22.3481 37.6106 25.4431 36.8391C26.7186 36.5211 26.5757 36.5254 35.8367 36.5254C41.1554 36.5254 44.5684 36.5043 44.9241 36.469C46.6727 36.2958 48.4613 35.6926 49.7037 34.8571C51.2689 33.8045 52.3456 32.253 52.8119 30.3786C53.1109 29.1765 53.1076 29.2882 53.1143 20.2021C53.1211 10.8462 53.1431 11.4355 52.7482 10.3949C52.407 9.4956 51.9763 8.82461 51.2438 8.05098C49.0646 5.74956 45.2374 4.42021 39.7231 4.04941C38.7221 3.98205 34.8309 3.98406 33.8044 4.05238ZM28.705 9.27266C29.7491 9.54904 30.5622 10.3873 30.8061 11.4389C31.3189 13.6491 29.1746 15.5914 27.0764 14.8175C25.6977 14.3089 24.9202 12.8649 25.2528 11.4307C25.4904 10.4065 26.3116 9.55379 27.3286 9.27546C27.7099 9.17103 28.3165 9.1698 28.705 9.27266ZM55.2027 25.3325C55.2027 28.0626 55.1808 29.9163 55.1451 30.21C54.9336 31.949 54.3565 33.5961 53.5102 34.8763C52.4328 36.506 50.7448 37.663 48.7328 38.1508C47.4787 38.4548 47.8623 38.443 37.9851 38.483C28.0493 38.5233 28.7527 38.5005 27.4827 38.823C24.1482 39.6699 21.9544 41.892 21.3207 45.0645C21.1136 46.1015 21.0975 46.818 21.0975 55.0018C21.0975 63.7332 21.0855 63.3957 21.432 64.3993C21.6693 65.0868 21.9362 65.5866 22.4033 66.2185C24.259 68.7285 27.9852 70.3068 33.2646 70.819C35.9515 71.0797 39.5238 71.057 42.1932 70.7623C46.6063 70.2752 49.7594 69.1087 51.5476 67.3016C52.1121 66.731 52.4174 66.3004 52.7296 65.6339C53.1534 64.7293 53.1345 64.9484 53.1559 60.703C53.1665 58.6123 53.1587 56.669 53.1386 56.3846L53.1021 55.8675H45.1036H37.1049V54.7506V53.6337L49.028 53.6157C62.3804 53.5955 61.1758 53.6342 62.5918 53.1805C64.6921 52.5076 66.496 51.0395 67.7581 48.9759C68.1513 48.333 68.7351 47.0797 69.0268 46.2524C69.3384 45.3685 69.6881 43.9777 69.8638 42.9237L70 42.1067V37.3995V32.6923L69.8611 31.8323C69.323 28.4996 68.2902 25.8854 66.7602 23.9826C65.5336 22.4571 63.7676 21.3522 62.0165 21.0146C61.6487 20.9437 61.0193 20.9288 58.3872 20.9288H55.2027V25.3325ZM47.0615 60.1181C47.6722 60.2977 48.2154 60.7154 48.6005 61.3014C49.2109 62.2304 49.2105 63.515 48.5995 64.4612C48.0595 65.2973 47.2075 65.76 46.2051 65.7615C44.9051 65.7634 43.7863 64.8894 43.4505 63.6099C43.3634 63.2779 43.3557 62.5372 43.4356 62.1844C43.5805 61.5449 44.0586 60.8562 44.6209 60.4769C45.3651 59.9749 46.1717 59.8563 47.0615 60.1181Z" fill="black"/>
</svg>
