<svg width="75" height="75" viewBox="0 0 75 75" fill="none" xmlns="http://www.w3.org/2000/svg">
<path fill-rule="evenodd" clip-rule="evenodd" d="M45.2647 8.0342C45.2647 8.07565 45.7205 8.79096 46.2775 9.62379C50.7496 16.3093 53.0298 23.3045 53.0298 30.3377C53.0298 32.8742 52.839 34.5469 52.2962 36.7724C52.0214 37.8991 51.41 39.8314 51.2832 39.9745C51.2036 40.0642 46.903 37.2922 45.0705 35.9702C44.1288 35.2907 39.2895 31.7255 39.1374 31.5989C38.7619 31.2869 36.889 29.8182 36.3479 29.4114C35.2263 28.5682 28.3704 22.8219 28.1814 22.5665C28.1458 22.5185 27.7964 22.1994 27.4049 21.8574C25.5211 20.2118 22.2267 17.1112 20.0112 14.8987C19.2374 14.126 18.6045 13.5457 18.6045 13.6089C18.6045 13.7675 20.3062 16.25 21.5775 17.9458C21.8285 18.2809 22.3544 18.9954 22.7458 19.5338C23.896 21.1156 28.2535 26.7368 28.8513 27.4097C28.9775 27.5518 29.4082 28.0748 29.8086 28.572C30.2089 29.0692 30.6903 29.6503 30.8785 29.8634C31.0666 30.0765 31.511 30.5995 31.8661 31.0257C32.5417 31.8363 33.0687 32.4475 33.3017 32.6902C33.3774 32.7691 34.1585 33.6472 35.0374 34.6416C35.9163 35.636 36.6696 36.4791 36.7115 36.5153C36.7535 36.5513 36.9334 36.7479 37.1113 36.9518C37.3819 37.262 37.2547 37.2115 36.3348 36.643C34.5576 35.5449 30.5748 32.7997 27.8579 30.8003C25.827 29.3058 21.3136 25.9167 21.0589 25.695C20.9546 25.6043 20.5198 25.2643 20.0928 24.9396C19.6657 24.615 19.2871 24.3111 19.2515 24.2644C19.216 24.2176 18.6045 23.7172 17.8927 23.1522C16.4428 22.0016 13.4738 19.5378 13.1558 19.2217C13.0419 19.1083 12.7792 18.8703 12.572 18.6927C12.3649 18.5151 11.803 18.0287 11.3232 17.6115C10.8436 17.1944 10.4511 16.8876 10.4511 16.9295C10.4511 17.2131 13.0402 20.7485 14.226 22.0841C14.4632 22.3511 14.861 22.8376 15.1102 23.1652C15.3593 23.4927 15.767 24.0057 16.0161 24.3052C16.2652 24.6048 16.9932 25.5048 17.6338 26.3054C18.6772 27.6092 20.2399 29.5 20.4146 29.6697C20.4511 29.7052 20.7722 30.0828 21.1281 30.5087C24.0391 33.9925 26.0297 36.1587 30.0914 40.2627C32.6134 42.8111 34.2968 44.4114 36.5813 46.4323C36.766 46.5957 37.4122 47.1445 38.0172 47.6518C38.6223 48.1592 39.1755 48.6372 39.2467 48.7142C39.3179 48.7912 39.9585 49.3098 40.6703 49.8665C41.3821 50.4233 41.9817 50.9236 42.0027 50.9782C42.0851 51.1927 40.0601 52.2441 38.0172 53.0477C33.2504 54.9224 26.6747 55.3133 20.8693 54.0668C18.4287 53.5429 16.2788 52.8902 13.8654 51.9408C11.1263 50.8631 6.79643 48.4876 4.95274 47.0509C4.45564 46.6635 4.02908 46.366 4.00501 46.3901C3.9645 46.4306 4.14737 46.7037 5.3903 48.4597C7.08115 50.8484 10.7229 54.8503 12.91 56.7234C20.0019 62.7965 28.5158 66.5338 37.1662 67.3711C42.7902 67.9155 48.3822 66.9179 53.348 64.4844C54.4186 63.9598 55.8188 63.3537 56.4594 63.1377C62.6024 61.0663 67.1099 62.5258 69.8561 67.4757C70.1986 68.0928 70.2484 68.1165 70.5366 67.7985C71.1099 67.166 71.162 63.4476 70.6328 60.9218C70.2827 59.2511 69.661 57.373 68.9224 55.7561C68.0333 53.8093 67.389 52.7342 65.8915 50.6987L65.443 50.089L65.7686 48.7577C66.3983 46.1834 66.5327 45.0177 66.5328 42.1318C66.5329 39.2803 66.3972 38.0501 65.7661 35.1817C65.4321 33.6636 64.2814 30.1095 63.6887 28.7657C60.2868 21.0517 54.471 14.163 47.2059 9.24205C45.3515 7.98603 45.2647 7.93205 45.2647 8.0342Z" fill="black"/>
</svg>
